<svg width="648" height="160" viewBox="0 0 648 160" fill="none" xmlns="http://www.w3.org/2000/svg">
<path d="M31.6182 36.8764C32.1381 36.8764 32.6463 36.7222 33.0786 36.4334C33.5109 36.1445 33.8478 35.734 34.0467 35.2537C34.2457 34.7734 34.2977 34.2449 34.1963 33.735C34.0949 33.2251 33.8445 32.7567 33.4769 32.3891C33.1093 32.0215 32.6409 31.7711 32.131 31.6697C31.6212 31.5683 31.0926 31.6203 30.6123 31.8193C30.132 32.0182 29.7215 32.3552 29.4327 32.7874C29.1438 33.2197 28.9897 33.7279 28.9897 34.2478C28.9897 34.9449 29.2666 35.6135 29.7596 36.1065C30.2525 36.5994 30.9211 36.8764 31.6182 36.8764ZM44.7611 36.8764C45.281 36.8764 45.7892 36.7222 46.2214 36.4334C46.6537 36.1445 46.9906 35.734 47.1896 35.2537C47.3885 34.7734 47.4406 34.2449 47.3392 33.735C47.2377 33.2251 46.9874 32.7567 46.6198 32.3891C46.2522 32.0215 45.7838 31.7711 45.2739 31.6697C44.764 31.5683 44.2355 31.6203 43.7552 31.8193C43.2749 32.0182 42.8643 32.3552 42.5755 32.7874C42.2867 33.2197 42.1325 33.7279 42.1325 34.2478C42.1325 34.9449 42.4095 35.6135 42.9024 36.1065C43.3954 36.5994 44.064 36.8764 44.7611 36.8764ZM31.6182 47.3906C32.1381 47.3906 32.6463 47.2365 33.0786 46.9476C33.5109 46.6588 33.8478 46.2483 34.0467 45.768C34.2457 45.2877 34.2977 44.7591 34.1963 44.2493C34.0949 43.7394 33.8445 43.271 33.4769 42.9034C33.1093 42.5358 32.6409 42.2854 32.131 42.184C31.6212 42.0826 31.0926 42.1346 30.6123 42.3336C30.132 42.5325 29.7215 42.8694 29.4327 43.3017C29.1438 43.734 28.9897 44.2422 28.9897 44.7621C28.9897 45.4592 29.2666 46.1278 29.7596 46.6207C30.2525 47.1137 30.9211 47.3906 31.6182 47.3906ZM44.7611 47.3906C45.281 47.3906 45.7892 47.2365 46.2214 46.9476C46.6537 46.6588 46.9906 46.2483 47.1896 45.768C47.3885 45.2877 47.4406 44.7591 47.3392 44.2493C47.2377 43.7394 46.9874 43.271 46.6198 42.9034C46.2522 42.5358 45.7838 42.2854 45.2739 42.184C44.764 42.0826 44.2355 42.1346 43.7552 42.3336C43.2749 42.5325 42.8643 42.8694 42.5755 43.3017C42.2867 43.734 42.1325 44.2422 42.1325 44.7621C42.1325 45.4592 42.4095 46.1278 42.9024 46.6207C43.3954 47.1137 44.064 47.3906 44.7611 47.3906ZM18.4754 36.8764C18.9953 36.8764 19.5035 36.7222 19.9357 36.4334C20.368 36.1445 20.7049 35.734 20.9039 35.2537C21.1028 34.7734 21.1549 34.2449 21.0534 33.735C20.952 33.2251 20.7017 32.7567 20.3341 32.3891C19.9664 32.0215 19.4981 31.7711 18.9882 31.6697C18.4783 31.5683 17.9498 31.6203 17.4695 31.8193C16.9892 32.0182 16.5786 32.3552 16.2898 32.7874C16.001 33.2197 15.8468 33.7279 15.8468 34.2478C15.8468 34.9449 16.1237 35.6135 16.6167 36.1065C17.1096 36.5994 17.7782 36.8764 18.4754 36.8764ZM50.0182 10.5906H47.3897V7.96207C47.3897 7.26493 47.1127 6.59634 46.6198 6.10339C46.1268 5.61043 45.4582 5.3335 44.7611 5.3335C44.064 5.3335 43.3954 5.61043 42.9024 6.10339C42.4095 6.59634 42.1325 7.26493 42.1325 7.96207V10.5906H21.1039V7.96207C21.1039 7.26493 20.827 6.59634 20.3341 6.10339C19.8411 5.61043 19.1725 5.3335 18.4754 5.3335C17.7782 5.3335 17.1096 5.61043 16.6167 6.10339C16.1237 6.59634 15.8468 7.26493 15.8468 7.96207V10.5906H13.2182C11.1268 10.5906 9.12105 11.4215 7.64219 12.9003C6.16333 14.3792 5.33252 16.3849 5.33252 18.4764V50.0192C5.33252 52.1106 6.16333 54.1164 7.64219 55.5953C9.12105 57.0741 11.1268 57.9049 13.2182 57.9049H50.0182C52.1097 57.9049 54.1154 57.0741 55.5943 55.5953C57.0731 54.1164 57.9039 52.1106 57.9039 50.0192V18.4764C57.9039 16.3849 57.0731 14.3792 55.5943 12.9003C54.1154 11.4215 52.1097 10.5906 50.0182 10.5906V10.5906ZM52.6468 50.0192C52.6468 50.7163 52.3699 51.3849 51.8769 51.8779C51.384 52.3708 50.7154 52.6478 50.0182 52.6478H13.2182C12.5211 52.6478 11.8525 52.3708 11.3596 51.8779C10.8666 51.3849 10.5897 50.7163 10.5897 50.0192V26.3621H52.6468V50.0192ZM52.6468 21.1049H10.5897V18.4764C10.5897 17.7792 10.8666 17.1106 11.3596 16.6177C11.8525 16.1247 12.5211 15.8478 13.2182 15.8478H50.0182C50.7154 15.8478 51.384 16.1247 51.8769 16.6177C52.3699 17.1106 52.6468 17.7792 52.6468 18.4764V21.1049ZM18.4754 47.3906C18.9953 47.3906 19.5035 47.2365 19.9357 46.9476C20.368 46.6588 20.7049 46.2483 20.9039 45.768C21.1028 45.2877 21.1549 44.7591 21.0534 44.2493C20.952 43.7394 20.7017 43.271 20.3341 42.9034C19.9664 42.5358 19.4981 42.2854 18.9882 42.184C18.4783 42.0826 17.9498 42.1346 17.4695 42.3336C16.9892 42.5325 16.5786 42.8694 16.2898 43.3017C16.001 43.734 15.8468 44.2422 15.8468 44.7621C15.8468 45.4592 16.1237 46.1278 16.6167 46.6207C17.1096 47.1137 17.7782 47.3906 18.4754 47.3906Z" fill="#024123"/>
<path d="M93.6177 52.6537H138.382C144.066 52.6537 147 49.8166 147 44.4437V17.328C147 11.9551 144.066 9.14307 138.382 9.14307H93.6177C87.9599 9.14307 85 11.9551 85 17.328V44.4437C85 49.8417 87.9599 52.6537 93.6177 52.6537ZM90.2125 17.7799C90.2125 15.3696 91.5484 14.1645 93.9582 14.1645H138.042C140.452 14.1645 141.787 15.3696 141.787 17.7799V19.5876H90.2125V17.7799ZM93.9582 47.6323C91.5484 47.6323 90.2125 46.4272 90.2125 44.0169V25.4878H141.787V44.0169C141.787 46.4272 140.452 47.6323 138.042 47.6323H93.9582ZM97.5205 43.0879H103.938C105.483 43.0879 106.531 42.1087 106.531 40.7027V36.0328C106.531 34.6268 105.483 33.6476 103.938 33.6476H97.5205C96.0013 33.6476 94.9535 34.6268 94.9535 36.0328V40.7027C94.9535 42.1087 96.0013 43.0879 97.5205 43.0879Z" fill="#024123"/>
<path d="M196.015 43.4983C196.427 43.0853 196.659 42.5254 196.659 41.9417C196.658 41.358 196.426 40.7984 196.013 40.386C195.6 39.9735 195.04 39.7421 194.456 39.7425C193.872 39.7429 193.313 39.9751 192.9 40.3882L186.302 46.9869C185.889 47.3999 185.658 47.9598 185.658 48.5435C185.659 49.1272 185.891 49.6868 186.304 50.0992C186.717 50.5117 187.277 50.7431 187.861 50.7427C188.444 50.7423 189.004 50.51 189.416 50.097L196.015 43.4983ZM220.633 11.3671C219.203 9.93724 217.505 8.80297 215.637 8.02911C213.769 7.25524 211.767 6.85693 209.745 6.85693C207.723 6.85693 205.72 7.25524 203.852 8.02911C201.984 8.80297 200.287 9.93724 198.857 11.3671L177.081 33.1428C174.194 36.0304 172.571 39.9469 172.571 44.0306C172.571 48.1144 174.194 52.0308 177.081 54.9185C179.969 57.8061 183.885 59.4284 187.969 59.4284C192.053 59.4284 195.969 57.8061 198.857 54.9185L220.633 33.1428C222.062 31.7131 223.197 30.0156 223.971 28.1475C224.744 26.2793 225.143 24.2771 225.143 22.255C225.143 20.2329 224.744 18.2306 223.971 16.3625C223.197 14.4943 222.062 12.7969 220.633 11.3671V11.3671ZM189.526 26.9224L205.077 42.4777L195.751 51.8039C193.686 53.8518 190.893 54.9981 187.985 54.9922C185.076 54.9862 182.289 53.8284 180.232 51.7721C178.175 49.7158 177.016 46.9285 177.01 44.02C177.003 41.1116 178.148 38.3189 180.196 36.253L189.522 26.9224H189.526ZM217.522 30.0326L208.192 39.3632L192.636 23.8167L201.967 14.4861C202.986 13.4574 204.199 12.6402 205.535 12.0814C206.871 11.5225 208.305 11.2331 209.753 11.2298C211.201 11.2264 212.636 11.5091 213.975 12.0617C215.314 12.6143 216.53 13.4258 217.554 14.4498C218.578 15.4738 219.39 16.69 219.943 18.0285C220.496 19.3671 220.779 20.8017 220.776 22.25C220.774 23.6983 220.485 25.1318 219.926 26.4681C219.368 27.8044 218.551 29.0173 217.522 30.037V30.0326Z" fill="#024123"/>
<path d="M309.8 39.1063L305.706 35.6063C305.9 34.4188 306 33.2063 306 31.9938C306 30.7813 305.9 29.5688 305.706 28.3813L309.8 24.8813C310.109 24.617 310.33 24.2649 310.433 23.872C310.537 23.479 310.519 23.0637 310.381 22.6813L310.325 22.5188C309.198 19.369 307.51 16.4491 305.344 13.9001L305.231 13.7688C304.968 13.4598 304.618 13.2376 304.226 13.1316C303.835 13.0257 303.42 13.0408 303.037 13.1751L297.956 14.9813C296.081 13.4438 293.987 12.2313 291.725 11.3813L290.744 6.06885C290.67 5.66911 290.476 5.30136 290.188 5.01446C289.9 4.72755 289.531 4.53508 289.131 4.4626L288.962 4.43135C285.706 3.84385 282.281 3.84385 279.025 4.43135L278.856 4.4626C278.456 4.53508 278.088 4.72755 277.8 5.01446C277.512 5.30136 277.318 5.66911 277.244 6.06885L276.256 11.4063C274.012 12.2565 271.921 13.4684 270.069 14.9938L264.95 13.1751C264.567 13.0397 264.152 13.024 263.76 13.1301C263.369 13.2362 263.018 13.4589 262.756 13.7688L262.644 13.9001C260.479 16.4509 258.792 19.3703 257.662 22.5188L257.606 22.6813C257.325 23.4626 257.556 24.3376 258.187 24.8813L262.331 28.4188C262.137 29.5938 262.044 30.7938 262.044 31.9876C262.044 33.1876 262.137 34.3876 262.331 35.5563L258.187 39.0938C257.879 39.3582 257.658 39.7103 257.554 40.1032C257.45 40.4962 257.468 40.9115 257.606 41.2938L257.662 41.4563C258.794 44.6063 260.469 47.5126 262.644 50.0751L262.756 50.2063C263.019 50.5154 263.369 50.7376 263.761 50.8436C264.152 50.9495 264.567 50.9344 264.95 50.8001L270.069 48.9813C271.931 50.5126 274.012 51.7251 276.256 52.5688L277.244 57.9063C277.318 58.3061 277.512 58.6738 277.8 58.9607C278.088 59.2476 278.456 59.4401 278.856 59.5126L279.025 59.5438C282.311 60.1345 285.676 60.1345 288.962 59.5438L289.131 59.5126C289.531 59.4401 289.9 59.2476 290.188 58.9607C290.476 58.6738 290.67 58.3061 290.744 57.9063L291.725 52.5938C293.986 51.7461 296.092 50.5296 297.956 48.9939L303.037 50.8001C303.42 50.9355 303.835 50.9512 304.227 50.8451C304.619 50.739 304.969 50.5163 305.231 50.2063L305.344 50.0751C307.519 47.5064 309.194 44.6063 310.325 41.4563L310.381 41.2938C310.662 40.5251 310.431 39.6501 309.8 39.1063V39.1063ZM301.269 29.1188C301.425 30.0626 301.506 31.0313 301.506 32.0001C301.506 32.9688 301.425 33.9376 301.269 34.8813L300.856 37.3876L305.525 41.3813C304.817 43.0119 303.924 44.5554 302.862 45.9813L297.062 43.9251L295.1 45.5376C293.606 46.7626 291.944 47.7251 290.144 48.4001L287.762 49.2938L286.644 55.3563C284.878 55.5564 283.096 55.5564 281.331 55.3563L280.212 49.2813L277.85 48.3751C276.069 47.7001 274.412 46.7376 272.931 45.5188L270.969 43.9001L265.131 45.9751C264.069 44.5438 263.181 43.0001 262.469 41.3751L267.187 37.3438L266.781 34.8438C266.631 33.9126 266.55 32.9501 266.55 32.0001C266.55 31.0438 266.625 30.0876 266.781 29.1563L267.187 26.6563L262.469 22.6251C263.175 20.9938 264.069 19.4563 265.131 18.0251L270.969 20.1001L272.931 18.4813C274.412 17.2626 276.069 16.3001 277.85 15.6251L280.219 14.7313L281.337 8.65635C283.094 8.45635 284.887 8.45635 286.65 8.65635L287.769 14.7188L290.15 15.6126C291.944 16.2876 293.612 17.2501 295.106 18.4751L297.069 20.0876L302.869 18.0313C303.931 19.4626 304.819 21.0063 305.531 22.6313L300.862 26.6251L301.269 29.1188ZM284 20.3751C277.925 20.3751 273 25.3001 273 31.3751C273 37.4501 277.925 42.3751 284 42.3751C290.075 42.3751 295 37.4501 295 31.3751C295 25.3001 290.075 20.3751 284 20.3751ZM288.95 36.3251C288.301 36.9762 287.529 37.4925 286.68 37.8443C285.83 38.1962 284.919 38.3765 284 38.3751C282.131 38.3751 280.375 37.6438 279.05 36.3251C278.399 35.6759 277.882 34.9043 277.531 34.0548C277.179 33.2053 276.998 32.2946 277 31.3751C277 29.5063 277.731 27.7501 279.05 26.4251C280.375 25.1001 282.131 24.3751 284 24.3751C285.869 24.3751 287.625 25.1001 288.95 26.4251C289.601 27.0743 290.117 27.8459 290.469 28.6954C290.821 29.5449 291.001 30.4556 291 31.3751C291 33.2438 290.269 35.0001 288.95 36.3251Z" fill="#024123"/>
<path d="M368 5.3335C364.498 5.3335 361.031 6.02325 357.795 7.36338C354.56 8.7035 351.62 10.6678 349.144 13.144C344.143 18.145 341.333 24.9277 341.333 32.0002C341.333 39.0726 344.143 45.8554 349.144 50.8563C351.62 53.3326 354.56 55.2968 357.795 56.637C361.031 57.9771 364.498 58.6668 368 58.6668C375.073 58.6668 381.855 55.8573 386.856 50.8563C391.857 45.8554 394.667 39.0726 394.667 32.0002C394.667 28.4982 393.977 25.0306 392.637 21.7953C391.297 18.5599 389.333 15.6202 386.856 13.144C384.38 10.6678 381.44 8.7035 378.205 7.36338C374.97 6.02325 371.502 5.3335 368 5.3335V5.3335ZM354.853 48.7468C356 46.3468 362.987 44.0002 368 44.0002C373.013 44.0002 380 46.3468 381.147 48.7468C377.412 51.7229 372.776 53.3403 368 53.3335C363.04 53.3335 358.48 51.6268 354.853 48.7468ZM384.96 44.8802C381.147 40.2402 371.893 38.6668 368 38.6668C364.107 38.6668 354.853 40.2402 351.04 44.8802C348.203 41.1858 346.666 36.658 346.667 32.0002C346.667 20.2402 356.24 10.6668 368 10.6668C379.76 10.6668 389.333 20.2402 389.333 32.0002C389.333 36.8535 387.68 41.3335 384.96 44.8802V44.8802ZM368 16.0002C362.827 16.0002 358.667 20.1602 358.667 25.3335C358.667 30.5068 362.827 34.6668 368 34.6668C373.173 34.6668 377.333 30.5068 377.333 25.3335C377.333 20.1602 373.173 16.0002 368 16.0002ZM368 29.3335C366.939 29.3335 365.922 28.9121 365.172 28.1619C364.422 27.4118 364 26.3944 364 25.3335C364 24.2726 364.422 23.2552 365.172 22.5051C365.922 21.7549 366.939 21.3335 368 21.3335C369.061 21.3335 370.078 21.7549 370.829 22.5051C371.579 23.2552 372 24.2726 372 25.3335C372 26.3944 371.579 27.4118 370.829 28.1619C370.078 28.9121 369.061 29.3335 368 29.3335Z" fill="#024123"/>
<path d="M446.267 47.9627C450.65 47.9627 454.758 46.6395 458.176 44.3789L470.251 56.4811C471.05 57.253 472.07 57.6389 473.173 57.6389C475.461 57.6389 477.143 55.847 477.143 53.5865C477.143 52.5389 476.784 51.5189 476.012 50.747L464.021 38.7C466.502 35.1713 467.963 30.8984 467.963 26.267C467.963 14.3302 458.204 4.57129 446.267 4.57129C434.358 4.57129 424.571 14.3302 424.571 26.267C424.571 38.2038 434.33 47.9627 446.267 47.9627ZM446.267 42.1735C437.528 42.1735 430.36 35.0059 430.36 26.267C430.36 17.5281 437.528 10.3605 446.267 10.3605C455.006 10.3605 462.174 17.5281 462.174 26.267C462.174 35.0059 455.006 42.1735 446.267 42.1735Z" fill="#024123"/>
<path d="M535.688 8.01867L536 8C536.653 8.00009 537.284 8.23988 537.772 8.67391C538.26 9.10793 538.572 9.706 538.648 10.3547L538.667 10.6667V29.3333H557.333C557.986 29.3334 558.617 29.5732 559.105 30.0072C559.593 30.4413 559.905 31.0393 559.981 31.688L560 32C560 32.6532 559.76 33.2836 559.326 33.7717C558.892 34.2598 558.294 34.5716 557.645 34.648L557.333 34.6667H538.667V53.3333C538.667 53.9865 538.427 54.6169 537.993 55.105C537.559 55.5931 536.961 55.9049 536.312 55.9813L536 56C535.347 55.9999 534.716 55.7601 534.228 55.3261C533.74 54.8921 533.428 54.294 533.352 53.6453L533.333 53.3333V34.6667H514.667C514.014 34.6666 513.383 34.4268 512.895 33.9928C512.407 33.5587 512.095 32.9607 512.019 32.312L512 32C512 31.3468 512.24 30.7164 512.674 30.2283C513.108 29.7402 513.706 29.4284 514.355 29.352L514.667 29.3333H533.333V10.6667C533.333 10.0135 533.573 9.3831 534.007 8.89501C534.441 8.40691 535.039 8.09509 535.688 8.01867L536 8L535.688 8.01867Z" fill="#024123"/>
<g clip-path="url(#clip0_910_3848)">
<path d="M631 50.36L610.603 32L631 13.64L624.721 8L598 32L624.721 56L631 50.36Z" fill="#024123"/>
</g>
<path d="M50.0182 106.591H47.3897V103.962C47.3897 102.385 46.3382 101.333 44.7611 101.333C43.1839 101.333 42.1325 102.385 42.1325 103.962V106.591H21.1039V103.962C21.1039 102.385 20.0525 101.333 18.4754 101.333C16.8982 101.333 15.8468 102.385 15.8468 103.962V106.591H13.2182C8.74966 106.591 5.33252 110.008 5.33252 114.476V117.105H57.9039V114.476C57.9039 110.008 54.4868 106.591 50.0182 106.591ZM5.33252 146.019C5.33252 150.488 8.74966 153.905 13.2182 153.905H50.0182C54.4868 153.905 57.9039 150.488 57.9039 146.019V122.362H5.33252V146.019ZM44.7611 127.619C46.3382 127.619 47.3897 128.671 47.3897 130.248C47.3897 131.825 46.3382 132.876 44.7611 132.876C43.1839 132.876 42.1325 131.825 42.1325 130.248C42.1325 128.671 43.1839 127.619 44.7611 127.619ZM44.7611 138.133C46.3382 138.133 47.3897 139.185 47.3897 140.762C47.3897 142.339 46.3382 143.391 44.7611 143.391C43.1839 143.391 42.1325 142.339 42.1325 140.762C42.1325 139.185 43.1839 138.133 44.7611 138.133ZM31.6182 127.619C33.1954 127.619 34.2468 128.671 34.2468 130.248C34.2468 131.825 33.1954 132.876 31.6182 132.876C30.0411 132.876 28.9897 131.825 28.9897 130.248C28.9897 128.671 30.0411 127.619 31.6182 127.619ZM31.6182 138.133C33.1954 138.133 34.2468 139.185 34.2468 140.762C34.2468 142.339 33.1954 143.391 31.6182 143.391C30.0411 143.391 28.9897 142.339 28.9897 140.762C28.9897 139.185 30.0411 138.133 31.6182 138.133ZM18.4754 127.619C20.0525 127.619 21.1039 128.671 21.1039 130.248C21.1039 131.825 20.0525 132.876 18.4754 132.876C16.8982 132.876 15.8468 131.825 15.8468 130.248C15.8468 128.671 16.8982 127.619 18.4754 127.619ZM18.4754 138.133C20.0525 138.133 21.1039 139.185 21.1039 140.762C21.1039 142.339 20.0525 143.391 18.4754 143.391C16.8982 143.391 15.8468 142.339 15.8468 140.762C15.8468 139.185 16.8982 138.133 18.4754 138.133Z" fill="#024123"/>
<path d="M139.74 107.429H96.8315C91.4084 107.429 88.5713 110.241 88.5713 115.614V117.873H148V115.614C148 110.241 145.188 107.429 139.74 107.429ZM99.0661 142.905C97.5847 142.905 96.5805 141.926 96.5805 140.495V135.85C96.5805 134.444 97.5847 133.44 99.0661 133.44H105.217C106.674 133.44 107.678 134.444 107.678 135.85V140.495C107.678 141.926 106.674 142.905 105.217 142.905H99.0661ZM96.8315 150.939H139.74C145.188 150.939 148 148.102 148 142.729V123.773H88.5713V142.729C88.5713 148.127 91.4084 150.939 96.8315 150.939Z" fill="#024123"/>
<path d="M198.857 107.367C201.745 104.479 205.661 102.857 209.745 102.857C213.829 102.857 217.745 104.479 220.633 107.367C223.52 110.254 225.143 114.171 225.143 118.255C225.143 122.339 223.52 126.255 220.633 129.143L198.857 150.918C197.427 152.348 195.73 153.482 193.862 154.256C191.993 155.03 189.991 155.428 187.969 155.428C183.885 155.428 179.969 153.806 177.081 150.918C174.194 148.031 172.571 144.114 172.571 140.031C172.571 135.947 174.194 132.03 177.081 129.143L198.857 107.367ZM208.192 135.363L217.518 126.037C219.566 123.972 220.712 121.179 220.707 118.271C220.701 115.362 219.543 112.575 217.486 110.518C215.43 108.461 212.643 107.302 209.734 107.295C206.826 107.289 204.033 108.434 201.967 110.481L192.637 119.808L208.192 135.363ZM198.215 141.698C198.419 141.493 198.581 141.251 198.691 140.983C198.802 140.716 198.858 140.43 198.858 140.141C198.858 139.852 198.801 139.566 198.69 139.299C198.579 139.032 198.417 138.79 198.213 138.585C198.008 138.381 197.765 138.219 197.498 138.109C197.231 137.998 196.945 137.942 196.656 137.942C196.367 137.942 196.081 137.999 195.814 138.11C195.547 138.221 195.304 138.383 195.1 138.588L188.501 145.186C188.297 145.391 188.135 145.634 188.025 145.901C187.914 146.168 187.858 146.454 187.858 146.743C187.858 147.327 188.091 147.886 188.504 148.299C188.917 148.711 189.477 148.943 190.06 148.942C190.644 148.942 191.204 148.71 191.616 148.297L198.215 141.698Z" fill="#024123"/>
<path d="M284.031 120.412C282.163 120.412 280.413 121.137 279.088 122.462C277.769 123.787 277.038 125.537 277.038 127.406C277.038 129.275 277.769 131.025 279.088 132.35C280.413 133.669 282.163 134.4 284.031 134.4C285.9 134.4 287.65 133.669 288.975 132.35C290.294 131.025 291.025 129.275 291.025 127.406C291.025 125.537 290.294 123.787 288.975 122.462C288.328 121.81 287.558 121.293 286.709 120.941C285.86 120.589 284.95 120.409 284.031 120.412V120.412ZM309.8 135.131L305.713 131.637C305.906 130.45 306.006 129.237 306.006 128.031C306.006 126.825 305.906 125.606 305.713 124.425L309.8 120.931C310.109 120.667 310.33 120.315 310.434 119.922C310.537 119.529 310.519 119.113 310.381 118.731L310.325 118.569C309.2 115.423 307.515 112.507 305.35 109.962L305.238 109.831C304.975 109.522 304.624 109.3 304.233 109.194C303.841 109.088 303.427 109.103 303.044 109.237L297.969 111.044C296.094 109.506 294.006 108.294 291.744 107.45L290.763 102.144C290.688 101.744 290.495 101.376 290.207 101.089C289.919 100.802 289.55 100.61 289.15 100.537L288.981 100.506C285.731 99.9186 282.306 99.9186 279.056 100.506L278.888 100.537C278.488 100.61 278.119 100.802 277.831 101.089C277.543 101.376 277.349 101.744 277.275 102.144L276.288 107.475C274.046 108.325 271.959 109.535 270.106 111.056L264.994 109.237C264.611 109.102 264.196 109.086 263.804 109.192C263.413 109.298 263.062 109.521 262.8 109.831L262.688 109.962C260.527 112.51 258.842 115.425 257.713 118.569L257.656 118.731C257.375 119.512 257.606 120.387 258.238 120.931L262.375 124.462C262.181 125.637 262.088 126.837 262.088 128.025C262.088 129.225 262.181 130.425 262.375 131.587L258.25 135.119C257.941 135.383 257.72 135.735 257.616 136.128C257.513 136.521 257.531 136.936 257.669 137.319L257.725 137.481C258.856 140.625 260.525 143.531 262.7 146.087L262.813 146.219C263.075 146.528 263.426 146.75 263.817 146.856C264.209 146.962 264.623 146.947 265.006 146.812L270.119 144.994C271.981 146.525 274.056 147.737 276.3 148.575L277.288 153.906C277.362 154.306 277.555 154.674 277.843 154.96C278.132 155.247 278.5 155.44 278.9 155.512L279.069 155.544C282.351 156.134 285.712 156.134 288.994 155.544L289.163 155.512C289.563 155.44 289.931 155.247 290.219 154.96C290.507 154.674 290.701 154.306 290.775 153.906L291.756 148.6C294.019 147.75 296.106 146.544 297.981 145.006L303.056 146.812C303.439 146.948 303.854 146.963 304.246 146.857C304.638 146.751 304.988 146.528 305.25 146.219L305.363 146.087C307.538 143.519 309.206 140.625 310.338 137.481L310.394 137.319C310.663 136.544 310.431 135.675 309.8 135.131ZM284.031 138.394C277.963 138.394 273.044 133.475 273.044 127.406C273.044 121.337 277.963 116.419 284.031 116.419C290.1 116.419 295.019 121.337 295.019 127.406C295.019 133.475 290.1 138.394 284.031 138.394Z" fill="#024123"/>
<path d="M368 147.2C361.333 147.2 355.44 143.787 352 138.667C352.08 133.333 362.667 130.4 368 130.4C373.333 130.4 383.92 133.333 384 138.667C382.237 141.292 379.856 143.443 377.066 144.931C374.276 146.419 371.162 147.199 368 147.2V147.2ZM368 109.333C370.122 109.333 372.157 110.176 373.657 111.677C375.157 113.177 376 115.212 376 117.333C376 119.455 375.157 121.49 373.657 122.99C372.157 124.491 370.122 125.333 368 125.333C365.878 125.333 363.844 124.491 362.343 122.99C360.843 121.49 360 119.455 360 117.333C360 115.212 360.843 113.177 362.343 111.677C363.844 110.176 365.878 109.333 368 109.333V109.333ZM368 101.333C364.498 101.333 361.031 102.023 357.795 103.363C354.56 104.704 351.62 106.668 349.144 109.144C344.143 114.145 341.333 120.928 341.333 128C341.333 135.073 344.143 141.855 349.144 146.856C351.62 149.333 354.56 151.297 357.795 152.637C361.031 153.977 364.498 154.667 368 154.667C375.073 154.667 381.855 151.857 386.856 146.856C391.857 141.855 394.667 135.073 394.667 128C394.667 113.253 382.667 101.333 368 101.333Z" fill="#024123"/>
<path d="M479.239 112.451C479.239 113.129 478.99 113.783 478.54 114.289C478.089 114.796 477.469 115.119 476.796 115.199L476.472 115.218H474.134L470.728 149.86C470.542 151.74 469.664 153.483 468.265 154.751C466.865 156.02 465.044 156.722 463.155 156.722H442.752C440.863 156.722 439.041 156.02 437.642 154.751C436.242 153.483 435.364 151.74 435.179 149.86L431.772 115.218H429.434C428.701 115.218 427.997 114.927 427.478 114.408C426.959 113.889 426.667 113.185 426.667 112.451C426.667 111.717 426.959 111.014 427.478 110.495C427.997 109.976 428.701 109.684 429.434 109.684H443.269C443.269 108.412 443.519 107.153 444.006 105.978C444.493 104.803 445.206 103.736 446.105 102.836C447.005 101.937 448.072 101.224 449.247 100.737C450.422 100.25 451.681 100 452.953 100C454.225 100 455.484 100.25 456.659 100.737C457.834 101.224 458.902 101.937 459.801 102.836C460.7 103.736 461.414 104.803 461.9 105.978C462.387 107.153 462.637 108.412 462.637 109.684H476.472C477.206 109.684 477.91 109.976 478.428 110.495C478.947 111.014 479.239 111.717 479.239 112.451ZM459.179 121.444C458.677 121.444 458.193 121.625 457.815 121.955C457.437 122.284 457.191 122.74 457.123 123.237L457.104 123.519V142.887L457.123 143.169C457.191 143.666 457.437 144.121 457.815 144.451C458.193 144.78 458.677 144.962 459.179 144.962C459.68 144.962 460.165 144.78 460.542 144.451C460.92 144.121 461.166 143.666 461.235 143.169L461.254 142.887V123.519L461.235 123.237C461.166 122.74 460.921 122.284 460.543 121.955C460.165 121.625 459.68 121.444 459.179 121.444V121.444ZM446.728 121.444C446.226 121.444 445.742 121.625 445.364 121.955C444.986 122.284 444.74 122.74 444.672 123.237L444.652 123.519V142.887L444.672 143.169C444.74 143.666 444.986 144.121 445.364 144.451C445.742 144.78 446.226 144.962 446.728 144.962C447.229 144.962 447.713 144.78 448.091 144.451C448.469 144.121 448.715 143.666 448.783 143.169L448.803 142.887V123.519L448.783 123.237C448.715 122.74 448.469 122.284 448.092 121.955C447.714 121.625 447.229 121.444 446.728 121.444V121.444ZM452.953 105.534C451.852 105.534 450.797 105.971 450.018 106.749C449.24 107.528 448.803 108.583 448.803 109.684H457.104C457.104 108.583 456.666 107.528 455.888 106.749C455.11 105.971 454.054 105.534 452.953 105.534Z" fill="#024123"/>
<path d="M512.5 120H516C516.275 120 516.5 119.775 516.5 119.5V108.5H527.5C527.775 108.5 528 108.275 528 108V104.5C528 104.225 527.775 104 527.5 104H516.25C513.9 104 512 105.9 512 108.25V119.5C512 119.775 512.225 120 512.5 120ZM544.5 108.5H555.5V119.5C555.5 119.775 555.725 120 556 120H559.5C559.775 120 560 119.775 560 119.5V108.25C560 105.9 558.1 104 555.75 104H544.5C544.225 104 544 104.225 544 104.5V108C544 108.275 544.225 108.5 544.5 108.5ZM527.5 147.5H516.5V136.5C516.5 136.225 516.275 136 516 136H512.5C512.225 136 512 136.225 512 136.5V147.75C512 150.1 513.9 152 516.25 152H527.5C527.775 152 528 151.775 528 151.5V148C528 147.725 527.775 147.5 527.5 147.5ZM559.5 136H556C555.725 136 555.5 136.225 555.5 136.5V147.5H544.5C544.225 147.5 544 147.725 544 148V151.5C544 151.775 544.225 152 544.5 152H555.75C558.1 152 560 150.1 560 147.75V136.5C560 136.225 559.775 136 559.5 136ZM560.5 125.75H511.5C511.225 125.75 511 125.975 511 126.25V129.75C511 130.025 511.225 130.25 511.5 130.25H560.5C560.775 130.25 561 130.025 561 129.75V126.25C561 125.975 560.775 125.75 560.5 125.75Z" fill="#024123"/>
<path d="M594.398 102.398C595.293 101.503 596.507 101 597.773 101C599.039 101 600.253 101.503 601.148 102.398L618.029 119.278L634.91 102.398C635.81 101.528 637.016 101.047 638.268 101.058C639.519 101.069 640.717 101.571 641.602 102.456C642.487 103.341 642.989 104.538 643 105.79C643.011 107.042 642.53 108.248 641.66 109.148L624.779 126.029L641.66 142.91C642.53 143.81 643.011 145.016 643 146.268C642.989 147.519 642.487 148.717 641.602 149.602C640.717 150.487 639.519 150.989 638.268 151C637.016 151.011 635.81 150.53 634.91 149.66L618.029 132.779L601.148 149.66C600.248 150.53 599.042 151.011 597.79 151C596.538 150.989 595.341 150.487 594.456 149.602C593.571 148.717 593.069 147.519 593.058 146.268C593.047 145.016 593.528 143.81 594.398 142.91L611.278 126.029L594.398 109.148C593.503 108.253 593 107.039 593 105.773C593 104.507 593.503 103.293 594.398 102.398V102.398Z" fill="#024123"/>
<defs>
<clipPath id="clip0_910_3848">
<rect width="64" height="53" fill="white" transform="translate(641) rotate(90)"/>
</clipPath>
</defs>
</svg>
