<svg width="665" height="220" viewBox="0 0 665 220" fill="none" xmlns="http://www.w3.org/2000/svg">
<path d="M0 32C0 14.3269 14.3269 0 32 0C49.6731 0 64 14.3269 64 32C64 49.6731 49.6731 64 32 64C14.3269 64 0 49.6731 0 32Z" fill="#025930"/>
<path d="M7.80469 82.4062L7.4375 84.2188H9.45312V85.8281H7.13281L6.53125 89H4.8125L5.42188 85.8281H3.90625L3.3125 89H1.63281L2.21094 85.8281H0.351562V84.2188H2.51562L2.88281 82.4062H0.914062V80.7734H3.17188L3.77344 77.5938H5.48438L4.88281 80.7734H6.42969L7.03906 77.5938H8.71875L8.10938 80.7734H9.98438V82.4062H7.80469ZM4.21094 84.2188H5.74219L6.10938 82.4062H4.57812L4.21094 84.2188ZM18.9062 83.2891C18.9062 85.2839 18.5781 86.7604 17.9219 87.7188C17.2708 88.6771 16.2656 89.1562 14.9062 89.1562C13.5885 89.1562 12.5938 88.6615 11.9219 87.6719C11.2552 86.6823 10.9219 85.2214 10.9219 83.2891C10.9219 81.2734 11.2474 79.7891 11.8984 78.8359C12.5495 77.8776 13.5521 77.3984 14.9062 77.3984C16.224 77.3984 17.2188 77.8984 17.8906 78.8984C18.5677 79.8984 18.9062 81.362 18.9062 83.2891ZM13.3203 83.2891C13.3203 84.6901 13.4401 85.6953 13.6797 86.3047C13.9245 86.9089 14.3333 87.2109 14.9062 87.2109C15.4688 87.2109 15.875 86.9036 16.125 86.2891C16.375 85.6745 16.5 84.6745 16.5 83.2891C16.5 81.888 16.3724 80.8828 16.1172 80.2734C15.8672 79.6589 15.4635 79.3516 14.9062 79.3516C14.3385 79.3516 13.9323 79.6589 13.6875 80.2734C13.4427 80.8828 13.3203 81.888 13.3203 83.2891ZM28.1094 89H20.125V87.3203L22.9922 84.4219C23.8411 83.5521 24.3958 82.9505 24.6562 82.6172C24.9167 82.2786 25.1042 81.9661 25.2188 81.6797C25.3333 81.3932 25.3906 81.0964 25.3906 80.7891C25.3906 80.3307 25.263 79.9896 25.0078 79.7656C24.7578 79.5417 24.4219 79.4297 24 79.4297C23.5573 79.4297 23.1276 79.5312 22.7109 79.7344C22.2943 79.9375 21.8594 80.2266 21.4062 80.6016L20.0938 79.0469C20.6562 78.5677 21.1224 78.2292 21.4922 78.0312C21.862 77.8333 22.2656 77.6823 22.7031 77.5781C23.1406 77.4688 23.6302 77.4141 24.1719 77.4141C24.8854 77.4141 25.5156 77.5443 26.0625 77.8047C26.6094 78.0651 27.0339 78.4297 27.3359 78.8984C27.638 79.3672 27.7891 79.9036 27.7891 80.5078C27.7891 81.0339 27.6953 81.5286 27.5078 81.9922C27.3255 82.4505 27.0391 82.9219 26.6484 83.4062C26.263 83.8906 25.5807 84.5807 24.6016 85.4766L23.1328 86.8594V86.9688H28.1094V89ZM33.4219 81.7031C34.526 81.7031 35.4036 82.013 36.0547 82.6328C36.7109 83.2526 37.0391 84.1016 37.0391 85.1797C37.0391 86.4557 36.6458 87.4375 35.8594 88.125C35.0729 88.8125 33.9479 89.1562 32.4844 89.1562C31.2135 89.1562 30.1875 88.9505 29.4062 88.5391V86.4531C29.8177 86.6719 30.2969 86.8516 30.8438 86.9922C31.3906 87.1276 31.9089 87.1953 32.3984 87.1953C33.8724 87.1953 34.6094 86.5911 34.6094 85.3828C34.6094 84.2318 33.8464 83.6562 32.3203 83.6562C32.0443 83.6562 31.7396 83.6849 31.4062 83.7422C31.0729 83.7943 30.8021 83.8516 30.5938 83.9141L29.6328 83.3984L30.0625 77.5781H36.2578V79.625H32.1797L31.9688 81.8672L32.2422 81.8125C32.5599 81.7396 32.9531 81.7031 33.4219 81.7031ZM46.3438 82.4531C46.3438 84.7031 45.8698 86.3828 44.9219 87.4922C43.974 88.6016 42.5391 89.1562 40.6172 89.1562C39.9401 89.1562 39.4271 89.1198 39.0781 89.0469V87.1094C39.5156 87.2188 39.974 87.2734 40.4531 87.2734C41.2604 87.2734 41.9245 87.1562 42.4453 86.9219C42.9661 86.6823 43.3646 86.3099 43.6406 85.8047C43.9167 85.2943 44.0755 84.5938 44.1172 83.7031H44.0234C43.7214 84.1927 43.3724 84.5365 42.9766 84.7344C42.5807 84.9323 42.0859 85.0312 41.4922 85.0312C40.4974 85.0312 39.7135 84.7135 39.1406 84.0781C38.5677 83.4375 38.2812 82.5495 38.2812 81.4141C38.2812 80.1901 38.6276 79.224 39.3203 78.5156C40.0182 77.8021 40.9661 77.4453 42.1641 77.4453C43.0078 77.4453 43.7448 77.6432 44.375 78.0391C45.0104 78.4349 45.4974 79.0104 45.8359 79.7656C46.1745 80.5156 46.3438 81.4115 46.3438 82.4531ZM42.2109 79.3828C41.7109 79.3828 41.3203 79.5547 41.0391 79.8984C40.7578 80.2422 40.6172 80.737 40.6172 81.3828C40.6172 81.9349 40.7448 82.3724 41 82.6953C41.2552 83.0182 41.6432 83.1797 42.1641 83.1797C42.6536 83.1797 43.0729 83.0208 43.4219 82.7031C43.7708 82.3802 43.9453 82.0104 43.9453 81.5938C43.9453 80.974 43.7812 80.4505 43.4531 80.0234C43.1302 79.5964 42.7161 79.3828 42.2109 79.3828ZM55.0859 80.1328C55.0859 80.8464 54.8698 81.4531 54.4375 81.9531C54.0052 82.4531 53.3984 82.7969 52.6172 82.9844V83.0312C53.5391 83.1458 54.237 83.4271 54.7109 83.875C55.1849 84.3177 55.4219 84.9167 55.4219 85.6719C55.4219 86.7708 55.0234 87.6276 54.2266 88.2422C53.4297 88.8516 52.2917 89.1562 50.8125 89.1562C49.5729 89.1562 48.474 88.9505 47.5156 88.5391V86.4844C47.9583 86.7083 48.4453 86.8906 48.9766 87.0312C49.5078 87.1719 50.0339 87.2422 50.5547 87.2422C51.3516 87.2422 51.9401 87.1068 52.3203 86.8359C52.7005 86.5651 52.8906 86.1302 52.8906 85.5312C52.8906 84.9948 52.6719 84.6146 52.2344 84.3906C51.7969 84.1667 51.099 84.0547 50.1406 84.0547H49.2734V82.2031H50.1562C51.0417 82.2031 51.6875 82.0885 52.0938 81.8594C52.5052 81.625 52.7109 81.2266 52.7109 80.6641C52.7109 79.7995 52.1693 79.3672 51.0859 79.3672C50.7109 79.3672 50.3281 79.4297 49.9375 79.5547C49.5521 79.6797 49.1224 79.8958 48.6484 80.2031L47.5312 78.5391C48.5729 77.7891 49.8151 77.4141 51.2578 77.4141C52.4401 77.4141 53.3724 77.6536 54.0547 78.1328C54.7422 78.612 55.0859 79.2786 55.0859 80.1328ZM64.6094 83.2891C64.6094 85.2839 64.2812 86.7604 63.625 87.7188C62.974 88.6771 61.9688 89.1562 60.6094 89.1562C59.2917 89.1562 58.2969 88.6615 57.625 87.6719C56.9583 86.6823 56.625 85.2214 56.625 83.2891C56.625 81.2734 56.9505 79.7891 57.6016 78.8359C58.2526 77.8776 59.2552 77.3984 60.6094 77.3984C61.9271 77.3984 62.9219 77.8984 63.5938 78.8984C64.2708 79.8984 64.6094 81.362 64.6094 83.2891ZM59.0234 83.2891C59.0234 84.6901 59.1432 85.6953 59.3828 86.3047C59.6276 86.9089 60.0365 87.2109 60.6094 87.2109C61.1719 87.2109 61.5781 86.9036 61.8281 86.2891C62.0781 85.6745 62.2031 84.6745 62.2031 83.2891C62.2031 81.888 62.0755 80.8828 61.8203 80.2734C61.5703 79.6589 61.1667 79.3516 60.6094 79.3516C60.0417 79.3516 59.6354 79.6589 59.3906 80.2734C59.1458 80.8828 59.0234 81.888 59.0234 83.2891Z" fill="black"/>
<path d="M106 32C106 14.3269 120.327 0 138 0C155.673 0 170 14.3269 170 32C170 49.6731 155.673 64 138 64C120.327 64 106 49.6731 106 32Z" fill="#024123"/>
<path d="M113.805 82.4062L113.438 84.2188H115.453V85.8281H113.133L112.531 89H110.812L111.422 85.8281H109.906L109.312 89H107.633L108.211 85.8281H106.352V84.2188H108.516L108.883 82.4062H106.914V80.7734H109.172L109.773 77.5938H111.484L110.883 80.7734H112.43L113.039 77.5938H114.719L114.109 80.7734H115.984V82.4062H113.805ZM110.211 84.2188H111.742L112.109 82.4062H110.578L110.211 84.2188ZM124.906 83.2891C124.906 85.2839 124.578 86.7604 123.922 87.7188C123.271 88.6771 122.266 89.1562 120.906 89.1562C119.589 89.1562 118.594 88.6615 117.922 87.6719C117.255 86.6823 116.922 85.2214 116.922 83.2891C116.922 81.2734 117.247 79.7891 117.898 78.8359C118.549 77.8776 119.552 77.3984 120.906 77.3984C122.224 77.3984 123.219 77.8984 123.891 78.8984C124.568 79.8984 124.906 81.362 124.906 83.2891ZM119.32 83.2891C119.32 84.6901 119.44 85.6953 119.68 86.3047C119.924 86.9089 120.333 87.2109 120.906 87.2109C121.469 87.2109 121.875 86.9036 122.125 86.2891C122.375 85.6745 122.5 84.6745 122.5 83.2891C122.5 81.888 122.372 80.8828 122.117 80.2734C121.867 79.6589 121.464 79.3516 120.906 79.3516C120.339 79.3516 119.932 79.6589 119.688 80.2734C119.443 80.8828 119.32 81.888 119.32 83.2891ZM134.109 89H126.125V87.3203L128.992 84.4219C129.841 83.5521 130.396 82.9505 130.656 82.6172C130.917 82.2786 131.104 81.9661 131.219 81.6797C131.333 81.3932 131.391 81.0964 131.391 80.7891C131.391 80.3307 131.263 79.9896 131.008 79.7656C130.758 79.5417 130.422 79.4297 130 79.4297C129.557 79.4297 129.128 79.5312 128.711 79.7344C128.294 79.9375 127.859 80.2266 127.406 80.6016L126.094 79.0469C126.656 78.5677 127.122 78.2292 127.492 78.0312C127.862 77.8333 128.266 77.6823 128.703 77.5781C129.141 77.4688 129.63 77.4141 130.172 77.4141C130.885 77.4141 131.516 77.5443 132.062 77.8047C132.609 78.0651 133.034 78.4297 133.336 78.8984C133.638 79.3672 133.789 79.9036 133.789 80.5078C133.789 81.0339 133.695 81.5286 133.508 81.9922C133.326 82.4505 133.039 82.9219 132.648 83.4062C132.263 83.8906 131.581 84.5807 130.602 85.4766L129.133 86.8594V86.9688H134.109V89ZM143.508 86.6328H142.133V89H139.773V86.6328H134.898V84.9531L139.906 77.5781H142.133V84.7578H143.508V86.6328ZM139.773 84.7578V82.8203C139.773 82.4974 139.786 82.0286 139.812 81.4141C139.839 80.7995 139.859 80.4427 139.875 80.3438H139.812C139.62 80.7708 139.388 81.1875 139.117 81.5938L137.023 84.7578H139.773ZM150.375 89H147.961V82.3906L147.984 81.3047L148.023 80.1172C147.622 80.5182 147.344 80.7812 147.188 80.9062L145.875 81.9609L144.711 80.5078L148.391 77.5781H150.375V89ZM161.531 89H153.547V87.3203L156.414 84.4219C157.263 83.5521 157.818 82.9505 158.078 82.6172C158.339 82.2786 158.526 81.9661 158.641 81.6797C158.755 81.3932 158.812 81.0964 158.812 80.7891C158.812 80.3307 158.685 79.9896 158.43 79.7656C158.18 79.5417 157.844 79.4297 157.422 79.4297C156.979 79.4297 156.549 79.5312 156.133 79.7344C155.716 79.9375 155.281 80.2266 154.828 80.6016L153.516 79.0469C154.078 78.5677 154.544 78.2292 154.914 78.0312C155.284 77.8333 155.688 77.6823 156.125 77.5781C156.562 77.4688 157.052 77.4141 157.594 77.4141C158.307 77.4141 158.938 77.5443 159.484 77.8047C160.031 78.0651 160.456 78.4297 160.758 78.8984C161.06 79.3672 161.211 79.9036 161.211 80.5078C161.211 81.0339 161.117 81.5286 160.93 81.9922C160.747 82.4505 160.461 82.9219 160.07 83.4062C159.685 83.8906 159.003 84.5807 158.023 85.4766L156.555 86.8594V86.9688H161.531V89ZM170.227 80.1328C170.227 80.8464 170.01 81.4531 169.578 81.9531C169.146 82.4531 168.539 82.7969 167.758 82.9844V83.0312C168.68 83.1458 169.378 83.4271 169.852 83.875C170.326 84.3177 170.562 84.9167 170.562 85.6719C170.562 86.7708 170.164 87.6276 169.367 88.2422C168.57 88.8516 167.432 89.1562 165.953 89.1562C164.714 89.1562 163.615 88.9505 162.656 88.5391V86.4844C163.099 86.7083 163.586 86.8906 164.117 87.0312C164.648 87.1719 165.174 87.2422 165.695 87.2422C166.492 87.2422 167.081 87.1068 167.461 86.8359C167.841 86.5651 168.031 86.1302 168.031 85.5312C168.031 84.9948 167.812 84.6146 167.375 84.3906C166.938 84.1667 166.24 84.0547 165.281 84.0547H164.414V82.2031H165.297C166.182 82.2031 166.828 82.0885 167.234 81.8594C167.646 81.625 167.852 81.2266 167.852 80.6641C167.852 79.7995 167.31 79.3672 166.227 79.3672C165.852 79.3672 165.469 79.4297 165.078 79.5547C164.693 79.6797 164.263 79.8958 163.789 80.2031L162.672 78.5391C163.714 77.7891 164.956 77.4141 166.398 77.4141C167.581 77.4141 168.513 77.6536 169.195 78.1328C169.883 78.612 170.227 79.2786 170.227 80.1328Z" fill="black"/>
<path d="M212 32C212 14.3269 226.327 0 244 0C261.673 0 276 14.3269 276 32C276 49.6731 261.673 64 244 64C226.327 64 212 49.6731 212 32Z" fill="#9CCEB7"/>
<path d="M219.805 82.4062L219.438 84.2188H221.453V85.8281H219.133L218.531 89H216.812L217.422 85.8281H215.906L215.312 89H213.633L214.211 85.8281H212.352V84.2188H214.516L214.883 82.4062H212.914V80.7734H215.172L215.773 77.5938H217.484L216.883 80.7734H218.43L219.039 77.5938H220.719L220.109 80.7734H221.984V82.4062H219.805ZM216.211 84.2188H217.742L218.109 82.4062H216.578L216.211 84.2188ZM230.922 82.4531C230.922 84.7031 230.448 86.3828 229.5 87.4922C228.552 88.6016 227.117 89.1562 225.195 89.1562C224.518 89.1562 224.005 89.1198 223.656 89.0469V87.1094C224.094 87.2188 224.552 87.2734 225.031 87.2734C225.839 87.2734 226.503 87.1562 227.023 86.9219C227.544 86.6823 227.943 86.3099 228.219 85.8047C228.495 85.2943 228.654 84.5938 228.695 83.7031H228.602C228.299 84.1927 227.951 84.5365 227.555 84.7344C227.159 84.9323 226.664 85.0312 226.07 85.0312C225.076 85.0312 224.292 84.7135 223.719 84.0781C223.146 83.4375 222.859 82.5495 222.859 81.4141C222.859 80.1901 223.206 79.224 223.898 78.5156C224.596 77.8021 225.544 77.4453 226.742 77.4453C227.586 77.4453 228.323 77.6432 228.953 78.0391C229.589 78.4349 230.076 79.0104 230.414 79.7656C230.753 80.5156 230.922 81.4115 230.922 82.4531ZM226.789 79.3828C226.289 79.3828 225.898 79.5547 225.617 79.8984C225.336 80.2422 225.195 80.737 225.195 81.3828C225.195 81.9349 225.323 82.3724 225.578 82.6953C225.833 83.0182 226.221 83.1797 226.742 83.1797C227.232 83.1797 227.651 83.0208 228 82.7031C228.349 82.3802 228.523 82.0104 228.523 81.5938C228.523 80.974 228.359 80.4505 228.031 80.0234C227.708 79.5964 227.294 79.3828 226.789 79.3828ZM237.773 79.4297C236.862 79.4297 236.156 79.7734 235.656 80.4609C235.156 81.1432 234.906 82.0964 234.906 83.3203C234.906 85.8672 235.862 87.1406 237.773 87.1406C238.576 87.1406 239.547 86.9401 240.688 86.5391V88.5703C239.75 88.9609 238.703 89.1562 237.547 89.1562C235.885 89.1562 234.615 88.6536 233.734 87.6484C232.854 86.638 232.414 85.1901 232.414 83.3047C232.414 82.1172 232.63 81.0781 233.062 80.1875C233.495 79.2917 234.115 78.6068 234.922 78.1328C235.734 77.6536 236.685 77.4141 237.773 77.4141C238.883 77.4141 239.997 77.6823 241.117 78.2188L240.336 80.1875C239.909 79.9844 239.479 79.8073 239.047 79.6562C238.615 79.5052 238.19 79.4297 237.773 79.4297ZM247.977 79.4297C247.065 79.4297 246.359 79.7734 245.859 80.4609C245.359 81.1432 245.109 82.0964 245.109 83.3203C245.109 85.8672 246.065 87.1406 247.977 87.1406C248.779 87.1406 249.75 86.9401 250.891 86.5391V88.5703C249.953 88.9609 248.906 89.1562 247.75 89.1562C246.089 89.1562 244.818 88.6536 243.938 87.6484C243.057 86.638 242.617 85.1901 242.617 83.3047C242.617 82.1172 242.833 81.0781 243.266 80.1875C243.698 79.2917 244.318 78.6068 245.125 78.1328C245.938 77.6536 246.888 77.4141 247.977 77.4141C249.086 77.4141 250.201 77.6823 251.32 78.2188L250.539 80.1875C250.112 79.9844 249.682 79.8073 249.25 79.6562C248.818 79.5052 248.393 79.4297 247.977 79.4297ZM259.906 89H253.328V77.5781H259.906V79.5625H255.75V82.0703H259.617V84.0547H255.75V87H259.906V89ZM262.297 77.5781H265.852C267.471 77.5781 268.646 77.8099 269.375 78.2734C270.109 78.7318 270.477 79.4635 270.477 80.4688C270.477 81.151 270.315 81.7109 269.992 82.1484C269.674 82.5859 269.25 82.849 268.719 82.9375V83.0156C269.443 83.1771 269.964 83.4792 270.281 83.9219C270.604 84.3646 270.766 84.9531 270.766 85.6875C270.766 86.7292 270.388 87.5417 269.633 88.125C268.883 88.7083 267.862 89 266.57 89H262.297V77.5781ZM264.719 82.1016H266.125C266.781 82.1016 267.255 82 267.547 81.7969C267.844 81.5938 267.992 81.2578 267.992 80.7891C267.992 80.3516 267.831 80.0391 267.508 79.8516C267.19 79.6589 266.685 79.5625 265.992 79.5625H264.719V82.1016ZM264.719 84.0234V87H266.297C266.964 87 267.456 86.8724 267.773 86.6172C268.091 86.362 268.25 85.9714 268.25 85.4453C268.25 84.4974 267.573 84.0234 266.219 84.0234H264.719ZM273.383 89L277.672 79.625H272.039V77.5938H280.234V79.1094L275.914 89H273.383Z" fill="black"/>
<path d="M321 32C321 14.3269 335.327 0 353 0C370.673 0 385 14.3269 385 32C385 49.6731 370.673 64 353 64C335.327 64 321 49.6731 321 32Z" fill="#F2A057"/>
<path d="M328.805 82.4062L328.438 84.2188H330.453V85.8281H328.133L327.531 89H325.812L326.422 85.8281H324.906L324.312 89H322.633L323.211 85.8281H321.352V84.2188H323.516L323.883 82.4062H321.914V80.7734H324.172L324.773 77.5938H326.484L325.883 80.7734H327.43L328.039 77.5938H329.719L329.109 80.7734H330.984V82.4062H328.805ZM325.211 84.2188H326.742L327.109 82.4062H325.578L325.211 84.2188ZM335.164 89H332.781V77.5781H339.328V79.5625H335.164V82.5078H339.039V84.4844H335.164V89ZM348.75 89H340.766V87.3203L343.633 84.4219C344.482 83.5521 345.036 82.9505 345.297 82.6172C345.557 82.2786 345.745 81.9661 345.859 81.6797C345.974 81.3932 346.031 81.0964 346.031 80.7891C346.031 80.3307 345.904 79.9896 345.648 79.7656C345.398 79.5417 345.062 79.4297 344.641 79.4297C344.198 79.4297 343.768 79.5312 343.352 79.7344C342.935 79.9375 342.5 80.2266 342.047 80.6016L340.734 79.0469C341.297 78.5677 341.763 78.2292 342.133 78.0312C342.503 77.8333 342.906 77.6823 343.344 77.5781C343.781 77.4688 344.271 77.4141 344.812 77.4141C345.526 77.4141 346.156 77.5443 346.703 77.8047C347.25 78.0651 347.674 78.4297 347.977 78.8984C348.279 79.3672 348.43 79.9036 348.43 80.5078C348.43 81.0339 348.336 81.5286 348.148 81.9922C347.966 82.4505 347.68 82.9219 347.289 83.4062C346.904 83.8906 346.221 84.5807 345.242 85.4766L343.773 86.8594V86.9688H348.75V89ZM357.695 89L356.867 86.2812H352.703L351.875 89H349.266L353.297 77.5312H356.258L360.305 89H357.695ZM356.289 84.25C355.523 81.7865 355.091 80.3932 354.992 80.0703C354.898 79.7474 354.831 79.4922 354.789 79.3047C354.617 79.9714 354.125 81.6198 353.312 84.25H356.289ZM368.875 83.2891C368.875 85.2839 368.547 86.7604 367.891 87.7188C367.24 88.6771 366.234 89.1562 364.875 89.1562C363.557 89.1562 362.562 88.6615 361.891 87.6719C361.224 86.6823 360.891 85.2214 360.891 83.2891C360.891 81.2734 361.216 79.7891 361.867 78.8359C362.518 77.8776 363.521 77.3984 364.875 77.3984C366.193 77.3984 367.188 77.8984 367.859 78.8984C368.536 79.8984 368.875 81.362 368.875 83.2891ZM363.289 83.2891C363.289 84.6901 363.409 85.6953 363.648 86.3047C363.893 86.9089 364.302 87.2109 364.875 87.2109C365.438 87.2109 365.844 86.9036 366.094 86.2891C366.344 85.6745 366.469 84.6745 366.469 83.2891C366.469 81.888 366.341 80.8828 366.086 80.2734C365.836 79.6589 365.432 79.3516 364.875 79.3516C364.307 79.3516 363.901 79.6589 363.656 80.2734C363.411 80.8828 363.289 81.888 363.289 83.2891ZM374.25 81.7031C375.354 81.7031 376.232 82.013 376.883 82.6328C377.539 83.2526 377.867 84.1016 377.867 85.1797C377.867 86.4557 377.474 87.4375 376.688 88.125C375.901 88.8125 374.776 89.1562 373.312 89.1562C372.042 89.1562 371.016 88.9505 370.234 88.5391V86.4531C370.646 86.6719 371.125 86.8516 371.672 86.9922C372.219 87.1276 372.737 87.1953 373.227 87.1953C374.701 87.1953 375.438 86.5911 375.438 85.3828C375.438 84.2318 374.674 83.6562 373.148 83.6562C372.872 83.6562 372.568 83.6849 372.234 83.7422C371.901 83.7943 371.63 83.8516 371.422 83.9141L370.461 83.3984L370.891 77.5781H377.086V79.625H373.008L372.797 81.8672L373.07 81.8125C373.388 81.7396 373.781 81.7031 374.25 81.7031ZM380.367 89L384.656 79.625H379.023V77.5938H387.219V79.1094L382.898 89H380.367Z" fill="black"/>
<path d="M428 32C428 14.3269 442.327 0 460 0C477.673 0 492 14.3269 492 32C492 49.6731 477.673 64 460 64C442.327 64 428 49.6731 428 32Z" fill="#E88E3F"/>
<path d="M435.805 82.4062L435.438 84.2188H437.453V85.8281H435.133L434.531 89H432.812L433.422 85.8281H431.906L431.312 89H429.633L430.211 85.8281H428.352V84.2188H430.516L430.883 82.4062H428.914V80.7734H431.172L431.773 77.5938H433.484L432.883 80.7734H434.43L435.039 77.5938H436.719L436.109 80.7734H437.984V82.4062H435.805ZM432.211 84.2188H433.742L434.109 82.4062H432.578L432.211 84.2188ZM446.359 89H439.781V77.5781H446.359V79.5625H442.203V82.0703H446.07V84.0547H442.203V87H446.359V89ZM451.891 77.4297C452.984 77.4297 453.865 77.6797 454.531 78.1797C455.203 78.6745 455.539 79.3438 455.539 80.1875C455.539 80.7708 455.378 81.2917 455.055 81.75C454.732 82.2031 454.211 82.6094 453.492 82.9688C454.346 83.4271 454.958 83.9062 455.328 84.4062C455.703 84.901 455.891 85.4453 455.891 86.0391C455.891 86.9766 455.523 87.7318 454.789 88.3047C454.055 88.8724 453.089 89.1562 451.891 89.1562C450.641 89.1562 449.659 88.8906 448.945 88.3594C448.232 87.8281 447.875 87.0755 447.875 86.1016C447.875 85.4505 448.047 84.8724 448.391 84.3672C448.74 83.862 449.297 83.4167 450.062 83.0312C449.411 82.6198 448.943 82.1797 448.656 81.7109C448.37 81.2422 448.227 80.7292 448.227 80.1719C448.227 79.3542 448.565 78.6927 449.242 78.1875C449.919 77.6823 450.802 77.4297 451.891 77.4297ZM450.109 85.9609C450.109 86.4089 450.266 86.7578 450.578 87.0078C450.891 87.2578 451.318 87.3828 451.859 87.3828C452.458 87.3828 452.906 87.2552 453.203 87C453.5 86.7396 453.648 86.3984 453.648 85.9766C453.648 85.6276 453.5 85.3021 453.203 85C452.911 84.6927 452.435 84.3672 451.773 84.0234C450.664 84.5339 450.109 85.1797 450.109 85.9609ZM451.875 79.1953C451.464 79.1953 451.13 79.3021 450.875 79.5156C450.625 79.724 450.5 80.0052 450.5 80.3594C450.5 80.6719 450.599 80.9531 450.797 81.2031C451 81.4479 451.365 81.7005 451.891 81.9609C452.401 81.7214 452.758 81.4766 452.961 81.2266C453.164 80.9766 453.266 80.6875 453.266 80.3594C453.266 80 453.135 79.7161 452.875 79.5078C452.615 79.2995 452.281 79.1953 451.875 79.1953ZM461.031 77.4297C462.125 77.4297 463.005 77.6797 463.672 78.1797C464.344 78.6745 464.68 79.3438 464.68 80.1875C464.68 80.7708 464.518 81.2917 464.195 81.75C463.872 82.2031 463.352 82.6094 462.633 82.9688C463.487 83.4271 464.099 83.9062 464.469 84.4062C464.844 84.901 465.031 85.4453 465.031 86.0391C465.031 86.9766 464.664 87.7318 463.93 88.3047C463.195 88.8724 462.229 89.1562 461.031 89.1562C459.781 89.1562 458.799 88.8906 458.086 88.3594C457.372 87.8281 457.016 87.0755 457.016 86.1016C457.016 85.4505 457.188 84.8724 457.531 84.3672C457.88 83.862 458.438 83.4167 459.203 83.0312C458.552 82.6198 458.083 82.1797 457.797 81.7109C457.51 81.2422 457.367 80.7292 457.367 80.1719C457.367 79.3542 457.706 78.6927 458.383 78.1875C459.06 77.6823 459.943 77.4297 461.031 77.4297ZM459.25 85.9609C459.25 86.4089 459.406 86.7578 459.719 87.0078C460.031 87.2578 460.458 87.3828 461 87.3828C461.599 87.3828 462.047 87.2552 462.344 87C462.641 86.7396 462.789 86.3984 462.789 85.9766C462.789 85.6276 462.641 85.3021 462.344 85C462.052 84.6927 461.576 84.3672 460.914 84.0234C459.805 84.5339 459.25 85.1797 459.25 85.9609ZM461.016 79.1953C460.604 79.1953 460.271 79.3021 460.016 79.5156C459.766 79.724 459.641 80.0052 459.641 80.3594C459.641 80.6719 459.74 80.9531 459.938 81.2031C460.141 81.4479 460.505 81.7005 461.031 81.9609C461.542 81.7214 461.898 81.4766 462.102 81.2266C462.305 80.9766 462.406 80.6875 462.406 80.3594C462.406 80 462.276 79.7161 462.016 79.5078C461.755 79.2995 461.422 79.1953 461.016 79.1953ZM473.609 89H467.031V77.5781H473.609V79.5625H469.453V82.0703H473.32V84.0547H469.453V87H473.609V89ZM482.742 80.1328C482.742 80.8464 482.526 81.4531 482.094 81.9531C481.661 82.4531 481.055 82.7969 480.273 82.9844V83.0312C481.195 83.1458 481.893 83.4271 482.367 83.875C482.841 84.3177 483.078 84.9167 483.078 85.6719C483.078 86.7708 482.68 87.6276 481.883 88.2422C481.086 88.8516 479.948 89.1562 478.469 89.1562C477.229 89.1562 476.13 88.9505 475.172 88.5391V86.4844C475.615 86.7083 476.102 86.8906 476.633 87.0312C477.164 87.1719 477.69 87.2422 478.211 87.2422C479.008 87.2422 479.596 87.1068 479.977 86.8359C480.357 86.5651 480.547 86.1302 480.547 85.5312C480.547 84.9948 480.328 84.6146 479.891 84.3906C479.453 84.1667 478.755 84.0547 477.797 84.0547H476.93V82.2031H477.812C478.698 82.2031 479.344 82.0885 479.75 81.8594C480.161 81.625 480.367 81.2266 480.367 80.6641C480.367 79.7995 479.826 79.3672 478.742 79.3672C478.367 79.3672 477.984 79.4297 477.594 79.5547C477.208 79.6797 476.779 79.8958 476.305 80.2031L475.188 78.5391C476.229 77.7891 477.471 77.4141 478.914 77.4141C480.096 77.4141 481.029 77.6536 481.711 78.1328C482.398 78.612 482.742 79.2786 482.742 80.1328ZM487.523 89H485.141V77.5781H491.688V79.5625H487.523V82.5078H491.398V84.4844H487.523V89Z" fill="black"/>
<path d="M533 32C533 14.3269 547.327 0 565 0C582.673 0 597 14.3269 597 32C597 49.6731 582.673 64 565 64C547.327 64 533 49.6731 533 32Z" fill="#F4C397"/>
<path d="M540.805 82.4062L540.438 84.2188H542.453V85.8281H540.133L539.531 89H537.812L538.422 85.8281H536.906L536.312 89H534.633L535.211 85.8281H533.352V84.2188H535.516L535.883 82.4062H533.914V80.7734H536.172L536.773 77.5938H538.484L537.883 80.7734H539.43L540.039 77.5938H541.719L541.109 80.7734H542.984V82.4062H540.805ZM537.211 84.2188H538.742L539.109 82.4062H537.578L537.211 84.2188ZM547.164 89H544.781V77.5781H551.328V79.5625H547.164V82.5078H551.039V84.4844H547.164V89ZM561.008 86.6328H559.633V89H557.273V86.6328H552.398V84.9531L557.406 77.5781H559.633V84.7578H561.008V86.6328ZM557.273 84.7578V82.8203C557.273 82.4974 557.286 82.0286 557.312 81.4141C557.339 80.7995 557.359 80.4427 557.375 80.3438H557.312C557.12 80.7708 556.888 81.1875 556.617 81.5938L554.523 84.7578H557.273ZM567.555 79.4297C566.643 79.4297 565.938 79.7734 565.438 80.4609C564.938 81.1432 564.688 82.0964 564.688 83.3203C564.688 85.8672 565.643 87.1406 567.555 87.1406C568.357 87.1406 569.328 86.9401 570.469 86.5391V88.5703C569.531 88.9609 568.484 89.1562 567.328 89.1562C565.667 89.1562 564.396 88.6536 563.516 87.6484C562.635 86.638 562.195 85.1901 562.195 83.3047C562.195 82.1172 562.411 81.0781 562.844 80.1875C563.276 79.2917 563.896 78.6068 564.703 78.1328C565.516 77.6536 566.466 77.4141 567.555 77.4141C568.664 77.4141 569.779 77.6823 570.898 78.2188L570.117 80.1875C569.69 79.9844 569.26 79.8073 568.828 79.6562C568.396 79.5052 567.971 79.4297 567.555 79.4297ZM579.648 80.1328C579.648 80.8464 579.432 81.4531 579 81.9531C578.568 82.4531 577.961 82.7969 577.18 82.9844V83.0312C578.102 83.1458 578.799 83.4271 579.273 83.875C579.747 84.3177 579.984 84.9167 579.984 85.6719C579.984 86.7708 579.586 87.6276 578.789 88.2422C577.992 88.8516 576.854 89.1562 575.375 89.1562C574.135 89.1562 573.036 88.9505 572.078 88.5391V86.4844C572.521 86.7083 573.008 86.8906 573.539 87.0312C574.07 87.1719 574.596 87.2422 575.117 87.2422C575.914 87.2422 576.503 87.1068 576.883 86.8359C577.263 86.5651 577.453 86.1302 577.453 85.5312C577.453 84.9948 577.234 84.6146 576.797 84.3906C576.359 84.1667 575.661 84.0547 574.703 84.0547H573.836V82.2031H574.719C575.604 82.2031 576.25 82.0885 576.656 81.8594C577.068 81.625 577.273 81.2266 577.273 80.6641C577.273 79.7995 576.732 79.3672 575.648 79.3672C575.273 79.3672 574.891 79.4297 574.5 79.5547C574.115 79.6797 573.685 79.8958 573.211 80.2031L572.094 78.5391C573.135 77.7891 574.378 77.4141 575.82 77.4141C577.003 77.4141 577.935 77.6536 578.617 78.1328C579.305 78.612 579.648 79.2786 579.648 80.1328ZM589.188 82.4531C589.188 84.7031 588.714 86.3828 587.766 87.4922C586.818 88.6016 585.383 89.1562 583.461 89.1562C582.784 89.1562 582.271 89.1198 581.922 89.0469V87.1094C582.359 87.2188 582.818 87.2734 583.297 87.2734C584.104 87.2734 584.768 87.1562 585.289 86.9219C585.81 86.6823 586.208 86.3099 586.484 85.8047C586.76 85.2943 586.919 84.5938 586.961 83.7031H586.867C586.565 84.1927 586.216 84.5365 585.82 84.7344C585.424 84.9323 584.93 85.0312 584.336 85.0312C583.341 85.0312 582.557 84.7135 581.984 84.0781C581.411 83.4375 581.125 82.5495 581.125 81.4141C581.125 80.1901 581.471 79.224 582.164 78.5156C582.862 77.8021 583.81 77.4453 585.008 77.4453C585.852 77.4453 586.589 77.6432 587.219 78.0391C587.854 78.4349 588.341 79.0104 588.68 79.7656C589.018 80.5156 589.188 81.4115 589.188 82.4531ZM585.055 79.3828C584.555 79.3828 584.164 79.5547 583.883 79.8984C583.602 80.2422 583.461 80.737 583.461 81.3828C583.461 81.9349 583.589 82.3724 583.844 82.6953C584.099 83.0182 584.487 83.1797 585.008 83.1797C585.497 83.1797 585.917 83.0208 586.266 82.7031C586.615 82.3802 586.789 82.0104 586.789 81.5938C586.789 80.974 586.625 80.4505 586.297 80.0234C585.974 79.5964 585.56 79.3828 585.055 79.3828ZM591.523 89L595.812 79.625H590.18V77.5938H598.375V79.1094L594.055 89H591.523Z" fill="black"/>
<path d="M0 158C0 140.327 14.3269 126 32 126C49.6731 126 64 140.327 64 158C64 175.673 49.6731 190 32 190C14.3269 190 0 175.673 0 158Z" fill="black"/>
<path d="M7.80469 208.406L7.4375 210.219H9.45312V211.828H7.13281L6.53125 215H4.8125L5.42188 211.828H3.90625L3.3125 215H1.63281L2.21094 211.828H0.351562V210.219H2.51562L2.88281 208.406H0.914062V206.773H3.17188L3.77344 203.594H5.48438L4.88281 206.773H6.42969L7.03906 203.594H8.71875L8.10938 206.773H9.98438V208.406H7.80469ZM4.21094 210.219H5.74219L6.10938 208.406H4.57812L4.21094 210.219ZM18.9062 209.289C18.9062 211.284 18.5781 212.76 17.9219 213.719C17.2708 214.677 16.2656 215.156 14.9062 215.156C13.5885 215.156 12.5938 214.661 11.9219 213.672C11.2552 212.682 10.9219 211.221 10.9219 209.289C10.9219 207.273 11.2474 205.789 11.8984 204.836C12.5495 203.878 13.5521 203.398 14.9062 203.398C16.224 203.398 17.2188 203.898 17.8906 204.898C18.5677 205.898 18.9062 207.362 18.9062 209.289ZM13.3203 209.289C13.3203 210.69 13.4401 211.695 13.6797 212.305C13.9245 212.909 14.3333 213.211 14.9062 213.211C15.4688 213.211 15.875 212.904 16.125 212.289C16.375 211.674 16.5 210.674 16.5 209.289C16.5 207.888 16.3724 206.883 16.1172 206.273C15.8672 205.659 15.4635 205.352 14.9062 205.352C14.3385 205.352 13.9323 205.659 13.6875 206.273C13.4427 206.883 13.3203 207.888 13.3203 209.289ZM28.0469 209.289C28.0469 211.284 27.7188 212.76 27.0625 213.719C26.4115 214.677 25.4062 215.156 24.0469 215.156C22.7292 215.156 21.7344 214.661 21.0625 213.672C20.3958 212.682 20.0625 211.221 20.0625 209.289C20.0625 207.273 20.388 205.789 21.0391 204.836C21.6901 203.878 22.6927 203.398 24.0469 203.398C25.3646 203.398 26.3594 203.898 27.0312 204.898C27.7083 205.898 28.0469 207.362 28.0469 209.289ZM22.4609 209.289C22.4609 210.69 22.5807 211.695 22.8203 212.305C23.0651 212.909 23.474 213.211 24.0469 213.211C24.6094 213.211 25.0156 212.904 25.2656 212.289C25.5156 211.674 25.6406 210.674 25.6406 209.289C25.6406 207.888 25.513 206.883 25.2578 206.273C25.0078 205.659 24.6042 205.352 24.0469 205.352C23.4792 205.352 23.0729 205.659 22.8281 206.273C22.5833 206.883 22.4609 207.888 22.4609 209.289ZM37.1875 209.289C37.1875 211.284 36.8594 212.76 36.2031 213.719C35.5521 214.677 34.5469 215.156 33.1875 215.156C31.8698 215.156 30.875 214.661 30.2031 213.672C29.5365 212.682 29.2031 211.221 29.2031 209.289C29.2031 207.273 29.5286 205.789 30.1797 204.836C30.8307 203.878 31.8333 203.398 33.1875 203.398C34.5052 203.398 35.5 203.898 36.1719 204.898C36.849 205.898 37.1875 207.362 37.1875 209.289ZM31.6016 209.289C31.6016 210.69 31.7214 211.695 31.9609 212.305C32.2057 212.909 32.6146 213.211 33.1875 213.211C33.75 213.211 34.1562 212.904 34.4062 212.289C34.6562 211.674 34.7812 210.674 34.7812 209.289C34.7812 207.888 34.6536 206.883 34.3984 206.273C34.1484 205.659 33.7448 205.352 33.1875 205.352C32.6198 205.352 32.2135 205.659 31.9688 206.273C31.724 206.883 31.6016 207.888 31.6016 209.289ZM46.3281 209.289C46.3281 211.284 46 212.76 45.3438 213.719C44.6927 214.677 43.6875 215.156 42.3281 215.156C41.0104 215.156 40.0156 214.661 39.3438 213.672C38.6771 212.682 38.3438 211.221 38.3438 209.289C38.3438 207.273 38.6693 205.789 39.3203 204.836C39.9714 203.878 40.974 203.398 42.3281 203.398C43.6458 203.398 44.6406 203.898 45.3125 204.898C45.9896 205.898 46.3281 207.362 46.3281 209.289ZM40.7422 209.289C40.7422 210.69 40.862 211.695 41.1016 212.305C41.3464 212.909 41.7552 213.211 42.3281 213.211C42.8906 213.211 43.2969 212.904 43.5469 212.289C43.7969 211.674 43.9219 210.674 43.9219 209.289C43.9219 207.888 43.7943 206.883 43.5391 206.273C43.2891 205.659 42.8854 205.352 42.3281 205.352C41.7604 205.352 41.3542 205.659 41.1094 206.273C40.8646 206.883 40.7422 207.888 40.7422 209.289ZM55.4688 209.289C55.4688 211.284 55.1406 212.76 54.4844 213.719C53.8333 214.677 52.8281 215.156 51.4688 215.156C50.151 215.156 49.1562 214.661 48.4844 213.672C47.8177 212.682 47.4844 211.221 47.4844 209.289C47.4844 207.273 47.8099 205.789 48.4609 204.836C49.112 203.878 50.1146 203.398 51.4688 203.398C52.7865 203.398 53.7812 203.898 54.4531 204.898C55.1302 205.898 55.4688 207.362 55.4688 209.289ZM49.8828 209.289C49.8828 210.69 50.0026 211.695 50.2422 212.305C50.487 212.909 50.8958 213.211 51.4688 213.211C52.0312 213.211 52.4375 212.904 52.6875 212.289C52.9375 211.674 53.0625 210.674 53.0625 209.289C53.0625 207.888 52.9349 206.883 52.6797 206.273C52.4297 205.659 52.026 205.352 51.4688 205.352C50.901 205.352 50.4948 205.659 50.25 206.273C50.0052 206.883 49.8828 207.888 49.8828 209.289ZM64.6094 209.289C64.6094 211.284 64.2812 212.76 63.625 213.719C62.974 214.677 61.9688 215.156 60.6094 215.156C59.2917 215.156 58.2969 214.661 57.625 213.672C56.9583 212.682 56.625 211.221 56.625 209.289C56.625 207.273 56.9505 205.789 57.6016 204.836C58.2526 203.878 59.2552 203.398 60.6094 203.398C61.9271 203.398 62.9219 203.898 63.5938 204.898C64.2708 205.898 64.6094 207.362 64.6094 209.289ZM59.0234 209.289C59.0234 210.69 59.1432 211.695 59.3828 212.305C59.6276 212.909 60.0365 213.211 60.6094 213.211C61.1719 213.211 61.5781 212.904 61.8281 212.289C62.0781 211.674 62.2031 210.674 62.2031 209.289C62.2031 207.888 62.0755 206.883 61.8203 206.273C61.5703 205.659 61.1667 205.352 60.6094 205.352C60.0417 205.352 59.6354 205.659 59.3906 206.273C59.1458 206.883 59.0234 207.888 59.0234 209.289Z" fill="black"/>
<path d="M106 158C106 140.327 120.327 126 138 126C155.673 126 170 140.327 170 158C170 175.673 155.673 190 138 190C120.327 190 106 175.673 106 158Z" fill="#808080"/>
<path d="M113.805 208.406L113.438 210.219H115.453V211.828H113.133L112.531 215H110.812L111.422 211.828H109.906L109.312 215H107.633L108.211 211.828H106.352V210.219H108.516L108.883 208.406H106.914V206.773H109.172L109.773 203.594H111.484L110.883 206.773H112.43L113.039 203.594H114.719L114.109 206.773H115.984V208.406H113.805ZM110.211 210.219H111.742L112.109 208.406H110.578L110.211 210.219ZM120.922 203.43C122.016 203.43 122.896 203.68 123.562 204.18C124.234 204.674 124.57 205.344 124.57 206.188C124.57 206.771 124.409 207.292 124.086 207.75C123.763 208.203 123.242 208.609 122.523 208.969C123.378 209.427 123.99 209.906 124.359 210.406C124.734 210.901 124.922 211.445 124.922 212.039C124.922 212.977 124.555 213.732 123.82 214.305C123.086 214.872 122.12 215.156 120.922 215.156C119.672 215.156 118.69 214.891 117.977 214.359C117.263 213.828 116.906 213.076 116.906 212.102C116.906 211.451 117.078 210.872 117.422 210.367C117.771 209.862 118.328 209.417 119.094 209.031C118.443 208.62 117.974 208.18 117.688 207.711C117.401 207.242 117.258 206.729 117.258 206.172C117.258 205.354 117.596 204.693 118.273 204.188C118.951 203.682 119.833 203.43 120.922 203.43ZM119.141 211.961C119.141 212.409 119.297 212.758 119.609 213.008C119.922 213.258 120.349 213.383 120.891 213.383C121.49 213.383 121.938 213.255 122.234 213C122.531 212.74 122.68 212.398 122.68 211.977C122.68 211.628 122.531 211.302 122.234 211C121.943 210.693 121.466 210.367 120.805 210.023C119.695 210.534 119.141 211.18 119.141 211.961ZM120.906 205.195C120.495 205.195 120.161 205.302 119.906 205.516C119.656 205.724 119.531 206.005 119.531 206.359C119.531 206.672 119.63 206.953 119.828 207.203C120.031 207.448 120.396 207.701 120.922 207.961C121.432 207.721 121.789 207.477 121.992 207.227C122.195 206.977 122.297 206.688 122.297 206.359C122.297 206 122.167 205.716 121.906 205.508C121.646 205.299 121.312 205.195 120.906 205.195ZM134.047 209.289C134.047 211.284 133.719 212.76 133.062 213.719C132.411 214.677 131.406 215.156 130.047 215.156C128.729 215.156 127.734 214.661 127.062 213.672C126.396 212.682 126.062 211.221 126.062 209.289C126.062 207.273 126.388 205.789 127.039 204.836C127.69 203.878 128.693 203.398 130.047 203.398C131.365 203.398 132.359 203.898 133.031 204.898C133.708 205.898 134.047 207.362 134.047 209.289ZM128.461 209.289C128.461 210.69 128.581 211.695 128.82 212.305C129.065 212.909 129.474 213.211 130.047 213.211C130.609 213.211 131.016 212.904 131.266 212.289C131.516 211.674 131.641 210.674 131.641 209.289C131.641 207.888 131.513 206.883 131.258 206.273C131.008 205.659 130.604 205.352 130.047 205.352C129.479 205.352 129.073 205.659 128.828 206.273C128.583 206.883 128.461 207.888 128.461 209.289ZM139.203 203.43C140.297 203.43 141.177 203.68 141.844 204.18C142.516 204.674 142.852 205.344 142.852 206.188C142.852 206.771 142.69 207.292 142.367 207.75C142.044 208.203 141.523 208.609 140.805 208.969C141.659 209.427 142.271 209.906 142.641 210.406C143.016 210.901 143.203 211.445 143.203 212.039C143.203 212.977 142.836 213.732 142.102 214.305C141.367 214.872 140.401 215.156 139.203 215.156C137.953 215.156 136.971 214.891 136.258 214.359C135.544 213.828 135.188 213.076 135.188 212.102C135.188 211.451 135.359 210.872 135.703 210.367C136.052 209.862 136.609 209.417 137.375 209.031C136.724 208.62 136.255 208.18 135.969 207.711C135.682 207.242 135.539 206.729 135.539 206.172C135.539 205.354 135.878 204.693 136.555 204.188C137.232 203.682 138.115 203.43 139.203 203.43ZM137.422 211.961C137.422 212.409 137.578 212.758 137.891 213.008C138.203 213.258 138.63 213.383 139.172 213.383C139.771 213.383 140.219 213.255 140.516 213C140.812 212.74 140.961 212.398 140.961 211.977C140.961 211.628 140.812 211.302 140.516 211C140.224 210.693 139.747 210.367 139.086 210.023C137.977 210.534 137.422 211.18 137.422 211.961ZM139.188 205.195C138.776 205.195 138.443 205.302 138.188 205.516C137.938 205.724 137.812 206.005 137.812 206.359C137.812 206.672 137.911 206.953 138.109 207.203C138.312 207.448 138.677 207.701 139.203 207.961C139.714 207.721 140.07 207.477 140.273 207.227C140.477 206.977 140.578 206.688 140.578 206.359C140.578 206 140.448 205.716 140.188 205.508C139.927 205.299 139.594 205.195 139.188 205.195ZM152.328 209.289C152.328 211.284 152 212.76 151.344 213.719C150.693 214.677 149.688 215.156 148.328 215.156C147.01 215.156 146.016 214.661 145.344 213.672C144.677 212.682 144.344 211.221 144.344 209.289C144.344 207.273 144.669 205.789 145.32 204.836C145.971 203.878 146.974 203.398 148.328 203.398C149.646 203.398 150.641 203.898 151.312 204.898C151.99 205.898 152.328 207.362 152.328 209.289ZM146.742 209.289C146.742 210.69 146.862 211.695 147.102 212.305C147.346 212.909 147.755 213.211 148.328 213.211C148.891 213.211 149.297 212.904 149.547 212.289C149.797 211.674 149.922 210.674 149.922 209.289C149.922 207.888 149.794 206.883 149.539 206.273C149.289 205.659 148.885 205.352 148.328 205.352C147.76 205.352 147.354 205.659 147.109 206.273C146.865 206.883 146.742 207.888 146.742 209.289ZM157.484 203.43C158.578 203.43 159.458 203.68 160.125 204.18C160.797 204.674 161.133 205.344 161.133 206.188C161.133 206.771 160.971 207.292 160.648 207.75C160.326 208.203 159.805 208.609 159.086 208.969C159.94 209.427 160.552 209.906 160.922 210.406C161.297 210.901 161.484 211.445 161.484 212.039C161.484 212.977 161.117 213.732 160.383 214.305C159.648 214.872 158.682 215.156 157.484 215.156C156.234 215.156 155.253 214.891 154.539 214.359C153.826 213.828 153.469 213.076 153.469 212.102C153.469 211.451 153.641 210.872 153.984 210.367C154.333 209.862 154.891 209.417 155.656 209.031C155.005 208.62 154.536 208.18 154.25 207.711C153.964 207.242 153.82 206.729 153.82 206.172C153.82 205.354 154.159 204.693 154.836 204.188C155.513 203.682 156.396 203.43 157.484 203.43ZM155.703 211.961C155.703 212.409 155.859 212.758 156.172 213.008C156.484 213.258 156.911 213.383 157.453 213.383C158.052 213.383 158.5 213.255 158.797 213C159.094 212.74 159.242 212.398 159.242 211.977C159.242 211.628 159.094 211.302 158.797 211C158.505 210.693 158.029 210.367 157.367 210.023C156.258 210.534 155.703 211.18 155.703 211.961ZM157.469 205.195C157.057 205.195 156.724 205.302 156.469 205.516C156.219 205.724 156.094 206.005 156.094 206.359C156.094 206.672 156.193 206.953 156.391 207.203C156.594 207.448 156.958 207.701 157.484 207.961C157.995 207.721 158.352 207.477 158.555 207.227C158.758 206.977 158.859 206.688 158.859 206.359C158.859 206 158.729 205.716 158.469 205.508C158.208 205.299 157.875 205.195 157.469 205.195ZM170.609 209.289C170.609 211.284 170.281 212.76 169.625 213.719C168.974 214.677 167.969 215.156 166.609 215.156C165.292 215.156 164.297 214.661 163.625 213.672C162.958 212.682 162.625 211.221 162.625 209.289C162.625 207.273 162.951 205.789 163.602 204.836C164.253 203.878 165.255 203.398 166.609 203.398C167.927 203.398 168.922 203.898 169.594 204.898C170.271 205.898 170.609 207.362 170.609 209.289ZM165.023 209.289C165.023 210.69 165.143 211.695 165.383 212.305C165.628 212.909 166.036 213.211 166.609 213.211C167.172 213.211 167.578 212.904 167.828 212.289C168.078 211.674 168.203 210.674 168.203 209.289C168.203 207.888 168.076 206.883 167.82 206.273C167.57 205.659 167.167 205.352 166.609 205.352C166.042 205.352 165.635 205.659 165.391 206.273C165.146 206.883 165.023 207.888 165.023 209.289Z" fill="black"/>
<path d="M212 158C212 140.327 226.327 126 244 126C261.673 126 276 140.327 276 158C276 175.673 261.673 190 244 190C226.327 190 212 175.673 212 158Z" fill="#999999"/>
<path d="M219.805 208.406L219.438 210.219H221.453V211.828H219.133L218.531 215H216.812L217.422 211.828H215.906L215.312 215H213.633L214.211 211.828H212.352V210.219H214.516L214.883 208.406H212.914V206.773H215.172L215.773 203.594H217.484L216.883 206.773H218.43L219.039 203.594H220.719L220.109 206.773H221.984V208.406H219.805ZM216.211 210.219H217.742L218.109 208.406H216.578L216.211 210.219ZM230.922 208.453C230.922 210.703 230.448 212.383 229.5 213.492C228.552 214.602 227.117 215.156 225.195 215.156C224.518 215.156 224.005 215.12 223.656 215.047V213.109C224.094 213.219 224.552 213.273 225.031 213.273C225.839 213.273 226.503 213.156 227.023 212.922C227.544 212.682 227.943 212.31 228.219 211.805C228.495 211.294 228.654 210.594 228.695 209.703H228.602C228.299 210.193 227.951 210.536 227.555 210.734C227.159 210.932 226.664 211.031 226.07 211.031C225.076 211.031 224.292 210.714 223.719 210.078C223.146 209.438 222.859 208.549 222.859 207.414C222.859 206.19 223.206 205.224 223.898 204.516C224.596 203.802 225.544 203.445 226.742 203.445C227.586 203.445 228.323 203.643 228.953 204.039C229.589 204.435 230.076 205.01 230.414 205.766C230.753 206.516 230.922 207.411 230.922 208.453ZM226.789 205.383C226.289 205.383 225.898 205.555 225.617 205.898C225.336 206.242 225.195 206.737 225.195 207.383C225.195 207.935 225.323 208.372 225.578 208.695C225.833 209.018 226.221 209.18 226.742 209.18C227.232 209.18 227.651 209.021 228 208.703C228.349 208.38 228.523 208.01 228.523 207.594C228.523 206.974 228.359 206.451 228.031 206.023C227.708 205.596 227.294 205.383 226.789 205.383ZM240.062 208.453C240.062 210.703 239.589 212.383 238.641 213.492C237.693 214.602 236.258 215.156 234.336 215.156C233.659 215.156 233.146 215.12 232.797 215.047V213.109C233.234 213.219 233.693 213.273 234.172 213.273C234.979 213.273 235.643 213.156 236.164 212.922C236.685 212.682 237.083 212.31 237.359 211.805C237.635 211.294 237.794 210.594 237.836 209.703H237.742C237.44 210.193 237.091 210.536 236.695 210.734C236.299 210.932 235.805 211.031 235.211 211.031C234.216 211.031 233.432 210.714 232.859 210.078C232.286 209.438 232 208.549 232 207.414C232 206.19 232.346 205.224 233.039 204.516C233.737 203.802 234.685 203.445 235.883 203.445C236.727 203.445 237.464 203.643 238.094 204.039C238.729 204.435 239.216 205.01 239.555 205.766C239.893 206.516 240.062 207.411 240.062 208.453ZM235.93 205.383C235.43 205.383 235.039 205.555 234.758 205.898C234.477 206.242 234.336 206.737 234.336 207.383C234.336 207.935 234.464 208.372 234.719 208.695C234.974 209.018 235.362 209.18 235.883 209.18C236.372 209.18 236.792 209.021 237.141 208.703C237.49 208.38 237.664 208.01 237.664 207.594C237.664 206.974 237.5 206.451 237.172 206.023C236.849 205.596 236.435 205.383 235.93 205.383ZM249.203 208.453C249.203 210.703 248.729 212.383 247.781 213.492C246.833 214.602 245.398 215.156 243.477 215.156C242.799 215.156 242.286 215.12 241.938 215.047V213.109C242.375 213.219 242.833 213.273 243.312 213.273C244.12 213.273 244.784 213.156 245.305 212.922C245.826 212.682 246.224 212.31 246.5 211.805C246.776 211.294 246.935 210.594 246.977 209.703H246.883C246.581 210.193 246.232 210.536 245.836 210.734C245.44 210.932 244.945 211.031 244.352 211.031C243.357 211.031 242.573 210.714 242 210.078C241.427 209.438 241.141 208.549 241.141 207.414C241.141 206.19 241.487 205.224 242.18 204.516C242.878 203.802 243.826 203.445 245.023 203.445C245.867 203.445 246.604 203.643 247.234 204.039C247.87 204.435 248.357 205.01 248.695 205.766C249.034 206.516 249.203 207.411 249.203 208.453ZM245.07 205.383C244.57 205.383 244.18 205.555 243.898 205.898C243.617 206.242 243.477 206.737 243.477 207.383C243.477 207.935 243.604 208.372 243.859 208.695C244.115 209.018 244.503 209.18 245.023 209.18C245.513 209.18 245.932 209.021 246.281 208.703C246.63 208.38 246.805 208.01 246.805 207.594C246.805 206.974 246.641 206.451 246.312 206.023C245.99 205.596 245.576 205.383 245.07 205.383ZM258.344 208.453C258.344 210.703 257.87 212.383 256.922 213.492C255.974 214.602 254.539 215.156 252.617 215.156C251.94 215.156 251.427 215.12 251.078 215.047V213.109C251.516 213.219 251.974 213.273 252.453 213.273C253.26 213.273 253.924 213.156 254.445 212.922C254.966 212.682 255.365 212.31 255.641 211.805C255.917 211.294 256.076 210.594 256.117 209.703H256.023C255.721 210.193 255.372 210.536 254.977 210.734C254.581 210.932 254.086 211.031 253.492 211.031C252.497 211.031 251.714 210.714 251.141 210.078C250.568 209.438 250.281 208.549 250.281 207.414C250.281 206.19 250.628 205.224 251.32 204.516C252.018 203.802 252.966 203.445 254.164 203.445C255.008 203.445 255.745 203.643 256.375 204.039C257.01 204.435 257.497 205.01 257.836 205.766C258.174 206.516 258.344 207.411 258.344 208.453ZM254.211 205.383C253.711 205.383 253.32 205.555 253.039 205.898C252.758 206.242 252.617 206.737 252.617 207.383C252.617 207.935 252.745 208.372 253 208.695C253.255 209.018 253.643 209.18 254.164 209.18C254.654 209.18 255.073 209.021 255.422 208.703C255.771 208.38 255.945 208.01 255.945 207.594C255.945 206.974 255.781 206.451 255.453 206.023C255.13 205.596 254.716 205.383 254.211 205.383ZM267.484 208.453C267.484 210.703 267.01 212.383 266.062 213.492C265.115 214.602 263.68 215.156 261.758 215.156C261.081 215.156 260.568 215.12 260.219 215.047V213.109C260.656 213.219 261.115 213.273 261.594 213.273C262.401 213.273 263.065 213.156 263.586 212.922C264.107 212.682 264.505 212.31 264.781 211.805C265.057 211.294 265.216 210.594 265.258 209.703H265.164C264.862 210.193 264.513 210.536 264.117 210.734C263.721 210.932 263.227 211.031 262.633 211.031C261.638 211.031 260.854 210.714 260.281 210.078C259.708 209.438 259.422 208.549 259.422 207.414C259.422 206.19 259.768 205.224 260.461 204.516C261.159 203.802 262.107 203.445 263.305 203.445C264.148 203.445 264.885 203.643 265.516 204.039C266.151 204.435 266.638 205.01 266.977 205.766C267.315 206.516 267.484 207.411 267.484 208.453ZM263.352 205.383C262.852 205.383 262.461 205.555 262.18 205.898C261.898 206.242 261.758 206.737 261.758 207.383C261.758 207.935 261.885 208.372 262.141 208.695C262.396 209.018 262.784 209.18 263.305 209.18C263.794 209.18 264.214 209.021 264.562 208.703C264.911 208.38 265.086 208.01 265.086 207.594C265.086 206.974 264.922 206.451 264.594 206.023C264.271 205.596 263.857 205.383 263.352 205.383ZM276.625 208.453C276.625 210.703 276.151 212.383 275.203 213.492C274.255 214.602 272.82 215.156 270.898 215.156C270.221 215.156 269.708 215.12 269.359 215.047V213.109C269.797 213.219 270.255 213.273 270.734 213.273C271.542 213.273 272.206 213.156 272.727 212.922C273.247 212.682 273.646 212.31 273.922 211.805C274.198 211.294 274.357 210.594 274.398 209.703H274.305C274.003 210.193 273.654 210.536 273.258 210.734C272.862 210.932 272.367 211.031 271.773 211.031C270.779 211.031 269.995 210.714 269.422 210.078C268.849 209.438 268.562 208.549 268.562 207.414C268.562 206.19 268.909 205.224 269.602 204.516C270.299 203.802 271.247 203.445 272.445 203.445C273.289 203.445 274.026 203.643 274.656 204.039C275.292 204.435 275.779 205.01 276.117 205.766C276.456 206.516 276.625 207.411 276.625 208.453ZM272.492 205.383C271.992 205.383 271.602 205.555 271.32 205.898C271.039 206.242 270.898 206.737 270.898 207.383C270.898 207.935 271.026 208.372 271.281 208.695C271.536 209.018 271.924 209.18 272.445 209.18C272.935 209.18 273.354 209.021 273.703 208.703C274.052 208.38 274.227 208.01 274.227 207.594C274.227 206.974 274.062 206.451 273.734 206.023C273.411 205.596 272.997 205.383 272.492 205.383Z" fill="black"/>
<path d="M318 158C318 140.327 332.327 126 350 126C367.673 126 382 140.327 382 158C382 175.673 367.673 190 350 190C332.327 190 318 175.673 318 158Z" fill="#B3B3B3"/>
<path d="M325.805 208.406L325.438 210.219H327.453V211.828H325.133L324.531 215H322.812L323.422 211.828H321.906L321.312 215H319.633L320.211 211.828H318.352V210.219H320.516L320.883 208.406H318.914V206.773H321.172L321.773 203.594H323.484L322.883 206.773H324.43L325.039 203.594H326.719L326.109 206.773H327.984V208.406H325.805ZM322.211 210.219H323.742L324.109 208.406H322.578L322.211 210.219ZM329.781 203.578H333.336C334.956 203.578 336.13 203.81 336.859 204.273C337.594 204.732 337.961 205.464 337.961 206.469C337.961 207.151 337.799 207.711 337.477 208.148C337.159 208.586 336.734 208.849 336.203 208.938V209.016C336.927 209.177 337.448 209.479 337.766 209.922C338.089 210.365 338.25 210.953 338.25 211.688C338.25 212.729 337.872 213.542 337.117 214.125C336.367 214.708 335.346 215 334.055 215H329.781V203.578ZM332.203 208.102H333.609C334.266 208.102 334.74 208 335.031 207.797C335.328 207.594 335.477 207.258 335.477 206.789C335.477 206.352 335.315 206.039 334.992 205.852C334.674 205.659 334.169 205.562 333.477 205.562H332.203V208.102ZM332.203 210.023V213H333.781C334.448 213 334.94 212.872 335.258 212.617C335.576 212.362 335.734 211.971 335.734 211.445C335.734 210.497 335.057 210.023 333.703 210.023H332.203ZM347.273 206.133C347.273 206.846 347.057 207.453 346.625 207.953C346.193 208.453 345.586 208.797 344.805 208.984V209.031C345.727 209.146 346.424 209.427 346.898 209.875C347.372 210.318 347.609 210.917 347.609 211.672C347.609 212.771 347.211 213.628 346.414 214.242C345.617 214.852 344.479 215.156 343 215.156C341.76 215.156 340.661 214.951 339.703 214.539V212.484C340.146 212.708 340.633 212.891 341.164 213.031C341.695 213.172 342.221 213.242 342.742 213.242C343.539 213.242 344.128 213.107 344.508 212.836C344.888 212.565 345.078 212.13 345.078 211.531C345.078 210.995 344.859 210.615 344.422 210.391C343.984 210.167 343.286 210.055 342.328 210.055H341.461V208.203H342.344C343.229 208.203 343.875 208.089 344.281 207.859C344.693 207.625 344.898 207.227 344.898 206.664C344.898 205.799 344.357 205.367 343.273 205.367C342.898 205.367 342.516 205.43 342.125 205.555C341.74 205.68 341.31 205.896 340.836 206.203L339.719 204.539C340.76 203.789 342.003 203.414 343.445 203.414C344.628 203.414 345.56 203.654 346.242 204.133C346.93 204.612 347.273 205.279 347.273 206.133ZM349.672 203.578H353.227C354.846 203.578 356.021 203.81 356.75 204.273C357.484 204.732 357.852 205.464 357.852 206.469C357.852 207.151 357.69 207.711 357.367 208.148C357.049 208.586 356.625 208.849 356.094 208.938V209.016C356.818 209.177 357.339 209.479 357.656 209.922C357.979 210.365 358.141 210.953 358.141 211.688C358.141 212.729 357.763 213.542 357.008 214.125C356.258 214.708 355.237 215 353.945 215H349.672V203.578ZM352.094 208.102H353.5C354.156 208.102 354.63 208 354.922 207.797C355.219 207.594 355.367 207.258 355.367 206.789C355.367 206.352 355.206 206.039 354.883 205.852C354.565 205.659 354.06 205.562 353.367 205.562H352.094V208.102ZM352.094 210.023V213H353.672C354.339 213 354.831 212.872 355.148 212.617C355.466 212.362 355.625 211.971 355.625 211.445C355.625 210.497 354.948 210.023 353.594 210.023H352.094ZM367.164 206.133C367.164 206.846 366.948 207.453 366.516 207.953C366.083 208.453 365.477 208.797 364.695 208.984V209.031C365.617 209.146 366.315 209.427 366.789 209.875C367.263 210.318 367.5 210.917 367.5 211.672C367.5 212.771 367.102 213.628 366.305 214.242C365.508 214.852 364.37 215.156 362.891 215.156C361.651 215.156 360.552 214.951 359.594 214.539V212.484C360.036 212.708 360.523 212.891 361.055 213.031C361.586 213.172 362.112 213.242 362.633 213.242C363.43 213.242 364.018 213.107 364.398 212.836C364.779 212.565 364.969 212.13 364.969 211.531C364.969 210.995 364.75 210.615 364.312 210.391C363.875 210.167 363.177 210.055 362.219 210.055H361.352V208.203H362.234C363.12 208.203 363.766 208.089 364.172 207.859C364.583 207.625 364.789 207.227 364.789 206.664C364.789 205.799 364.247 205.367 363.164 205.367C362.789 205.367 362.406 205.43 362.016 205.555C361.63 205.68 361.201 205.896 360.727 206.203L359.609 204.539C360.651 203.789 361.893 203.414 363.336 203.414C364.518 203.414 365.451 203.654 366.133 204.133C366.82 204.612 367.164 205.279 367.164 206.133ZM369.562 203.578H373.117C374.737 203.578 375.911 203.81 376.641 204.273C377.375 204.732 377.742 205.464 377.742 206.469C377.742 207.151 377.581 207.711 377.258 208.148C376.94 208.586 376.516 208.849 375.984 208.938V209.016C376.708 209.177 377.229 209.479 377.547 209.922C377.87 210.365 378.031 210.953 378.031 211.688C378.031 212.729 377.654 213.542 376.898 214.125C376.148 214.708 375.128 215 373.836 215H369.562V203.578ZM371.984 208.102H373.391C374.047 208.102 374.521 208 374.812 207.797C375.109 207.594 375.258 207.258 375.258 206.789C375.258 206.352 375.096 206.039 374.773 205.852C374.456 205.659 373.951 205.562 373.258 205.562H371.984V208.102ZM371.984 210.023V213H373.562C374.229 213 374.721 212.872 375.039 212.617C375.357 212.362 375.516 211.971 375.516 211.445C375.516 210.497 374.839 210.023 373.484 210.023H371.984ZM387.055 206.133C387.055 206.846 386.839 207.453 386.406 207.953C385.974 208.453 385.367 208.797 384.586 208.984V209.031C385.508 209.146 386.206 209.427 386.68 209.875C387.154 210.318 387.391 210.917 387.391 211.672C387.391 212.771 386.992 213.628 386.195 214.242C385.398 214.852 384.26 215.156 382.781 215.156C381.542 215.156 380.443 214.951 379.484 214.539V212.484C379.927 212.708 380.414 212.891 380.945 213.031C381.477 213.172 382.003 213.242 382.523 213.242C383.32 213.242 383.909 213.107 384.289 212.836C384.669 212.565 384.859 212.13 384.859 211.531C384.859 210.995 384.641 210.615 384.203 210.391C383.766 210.167 383.068 210.055 382.109 210.055H381.242V208.203H382.125C383.01 208.203 383.656 208.089 384.062 207.859C384.474 207.625 384.68 207.227 384.68 206.664C384.68 205.799 384.138 205.367 383.055 205.367C382.68 205.367 382.297 205.43 381.906 205.555C381.521 205.68 381.091 205.896 380.617 206.203L379.5 204.539C380.542 203.789 381.784 203.414 383.227 203.414C384.409 203.414 385.341 203.654 386.023 204.133C386.711 204.612 387.055 205.279 387.055 206.133Z" fill="black"/>
<g filter="url(#filter0_d_813_2297)">
<rect x="429" y="126" width="64" height="64" rx="32" fill="#FFFCFC" fill-opacity="0.9" shape-rendering="crispEdges"/>
</g>
<path d="M436.805 208.406L436.438 210.219H438.453V211.828H436.133L435.531 215H433.812L434.422 211.828H432.906L432.312 215H430.633L431.211 211.828H429.352V210.219H431.516L431.883 208.406H429.914V206.773H432.172L432.773 203.594H434.484L433.883 206.773H435.43L436.039 203.594H437.719L437.109 206.773H438.984V208.406H436.805ZM433.211 210.219H434.742L435.109 208.406H433.578L433.211 210.219ZM443.164 215H440.781V203.578H447.328V205.562H443.164V208.508H447.039V210.484H443.164V215ZM451.945 215H449.562V203.578H456.109V205.562H451.945V208.508H455.82V210.484H451.945V215ZM460.727 215H458.344V203.578H464.891V205.562H460.727V208.508H464.602V210.484H460.727V215ZM471.977 205.43C471.065 205.43 470.359 205.773 469.859 206.461C469.359 207.143 469.109 208.096 469.109 209.32C469.109 211.867 470.065 213.141 471.977 213.141C472.779 213.141 473.75 212.94 474.891 212.539V214.57C473.953 214.961 472.906 215.156 471.75 215.156C470.089 215.156 468.818 214.654 467.938 213.648C467.057 212.638 466.617 211.19 466.617 209.305C466.617 208.117 466.833 207.078 467.266 206.188C467.698 205.292 468.318 204.607 469.125 204.133C469.938 203.654 470.888 203.414 471.977 203.414C473.086 203.414 474.201 203.682 475.32 204.219L474.539 206.188C474.112 205.984 473.682 205.807 473.25 205.656C472.818 205.505 472.393 205.43 471.977 205.43ZM479.711 215H477.328V203.578H483.875V205.562H479.711V208.508H483.586V210.484H479.711V215ZM490.961 205.43C490.049 205.43 489.344 205.773 488.844 206.461C488.344 207.143 488.094 208.096 488.094 209.32C488.094 211.867 489.049 213.141 490.961 213.141C491.763 213.141 492.734 212.94 493.875 212.539V214.57C492.938 214.961 491.891 215.156 490.734 215.156C489.073 215.156 487.802 214.654 486.922 213.648C486.042 212.638 485.602 211.19 485.602 209.305C485.602 208.117 485.818 207.078 486.25 206.188C486.682 205.292 487.302 204.607 488.109 204.133C488.922 203.654 489.872 203.414 490.961 203.414C492.07 203.414 493.185 203.682 494.305 204.219L493.523 206.188C493.096 205.984 492.667 205.807 492.234 205.656C491.802 205.505 491.378 205.43 490.961 205.43Z" fill="black"/>
<defs>
<filter id="filter0_d_813_2297" x="429" y="126" width="72" height="72" filterUnits="userSpaceOnUse" color-interpolation-filters="sRGB">
<feFlood flood-opacity="0" result="BackgroundImageFix"/>
<feColorMatrix in="SourceAlpha" type="matrix" values="0 0 0 0 0 0 0 0 0 0 0 0 0 0 0 0 0 0 127 0" result="hardAlpha"/>
<feOffset dx="4" dy="4"/>
<feGaussianBlur stdDeviation="2"/>
<feComposite in2="hardAlpha" operator="out"/>
<feColorMatrix type="matrix" values="0 0 0 0 0 0 0 0 0 0 0 0 0 0 0 0 0 0 0.25 0"/>
<feBlend mode="normal" in2="BackgroundImageFix" result="effect1_dropShadow_813_2297"/>
<feBlend mode="normal" in="SourceGraphic" in2="effect1_dropShadow_813_2297" result="shape"/>
</filter>
</defs>
</svg>
