<svg width="488" height="531" viewBox="0 0 488 531" fill="none" xmlns="http://www.w3.org/2000/svg">
<path d="M1.638 20H4.302V14.6H9.036V12.386H4.302V8.894H9.846V6.68H1.638V20ZM15.7238 20.252C18.2438 20.252 20.5478 18.308 20.5478 14.978C20.5478 11.63 18.2438 9.686 15.7238 9.686C13.1858 9.686 10.8818 11.63 10.8818 14.978C10.8818 18.308 13.1858 20.252 15.7238 20.252ZM15.7238 18.11C14.3378 18.11 13.5818 16.868 13.5818 14.978C13.5818 13.07 14.3378 11.846 15.7238 11.846C17.0918 11.846 17.8478 13.07 17.8478 14.978C17.8478 16.868 17.0918 18.11 15.7238 18.11ZM22.7794 20H25.4254V13.07C26.1634 12.35 26.6854 11.954 27.5134 11.954C28.4854 11.954 28.9354 12.476 28.9354 14.06V20H31.5814V13.718C31.5814 11.198 30.6274 9.686 28.4674 9.686C27.0994 9.686 26.0554 10.406 25.1914 11.27H25.1374L24.9214 9.938H22.7794V20ZM37.9827 20.252C38.8827 20.252 39.5847 20.054 40.1247 19.874L39.6927 17.948C39.4047 18.056 39.0267 18.182 38.6847 18.182C37.8027 18.182 37.3167 17.642 37.3167 16.49V12.008H39.8187V9.938H37.3167V7.202H35.1207L34.8327 9.938L33.2667 10.046V12.008H34.6707V16.49C34.6707 18.74 35.5887 20.252 37.9827 20.252ZM40.5554 15.806H45.4874V13.916H40.5554V15.806ZM48.2075 20H50.8535V9.074C50.8535 7.958 51.2855 7.472 52.0775 7.472C52.4195 7.472 52.7975 7.562 53.1395 7.706L53.6435 5.726C53.1935 5.564 52.5095 5.402 51.7175 5.402C49.1975 5.402 48.2075 7.022 48.2075 9.11V20ZM46.8575 12.008H52.7615V9.938H48.3695L46.8575 10.046V12.008ZM56.429 20.252C57.581 20.252 58.589 19.694 59.471 18.938H59.543L59.741 20H61.901V14.132C61.901 11.198 60.587 9.686 58.031 9.686C56.429 9.686 55.007 10.28 53.819 11L54.773 12.764C55.691 12.206 56.609 11.81 57.545 11.81C58.787 11.81 59.201 12.548 59.255 13.538C55.205 13.988 53.459 15.122 53.459 17.264C53.459 18.992 54.629 20.252 56.429 20.252ZM57.293 18.182C56.519 18.182 55.979 17.84 55.979 17.066C55.979 16.148 56.789 15.482 59.255 15.176V17.21C58.607 17.84 58.049 18.182 57.293 18.182ZM64.5978 20H67.2438V13.07C67.9278 12.314 68.5938 11.954 69.1518 11.954C70.1238 11.954 70.5738 12.476 70.5738 14.06V20H73.2198V13.07C73.9398 12.314 74.5698 11.954 75.1458 11.954C76.1178 11.954 76.5498 12.476 76.5498 14.06V20H79.1958V13.718C79.1958 11.198 78.2238 9.686 76.0818 9.686C74.7678 9.686 73.7958 10.478 72.8598 11.432C72.3918 10.316 71.5458 9.686 70.0878 9.686C68.7918 9.686 67.8558 10.406 67.0098 11.27H66.9558L66.7398 9.938H64.5978V20ZM81.9474 20H84.5934V9.938H81.9474V20ZM83.2614 8.3C84.1794 8.3 84.8094 7.724 84.8094 6.842C84.8094 5.978 84.1794 5.42 83.2614 5.42C82.3434 5.42 81.7314 5.978 81.7314 6.842C81.7314 7.724 82.3434 8.3 83.2614 8.3ZM89.8982 20.252C90.5282 20.252 90.9422 20.144 91.2482 20.036L90.9242 18.074C90.7442 18.11 90.6722 18.11 90.5822 18.11C90.3302 18.11 90.0602 17.912 90.0602 17.282V5.654H87.4142V17.174C87.4142 19.046 88.0442 20.252 89.8982 20.252ZM93.9559 24.05C96.2239 24.05 97.3039 22.682 98.1859 20.324L101.768 9.938H99.2299L97.8259 14.6C97.5919 15.554 97.3399 16.508 97.1239 17.462H97.0339C96.7279 16.49 96.4759 15.518 96.1699 14.6L94.5859 9.938H91.9039L95.8279 19.82L95.6659 20.414C95.3599 21.314 94.7839 21.962 93.7759 21.962C93.5239 21.962 93.2539 21.872 93.0739 21.818L92.5879 23.852C92.9659 23.978 93.3799 24.05 93.9559 24.05Z" fill="#333333"/>
<path d="M2.184 62H5.544V54.896C5.544 52.832 5.256 50.6 5.088 48.704H5.208L7.008 52.496L12.144 62H15.768V44.24H12.384V51.32C12.384 53.336 12.672 55.712 12.864 57.56H12.744L10.944 53.72L5.784 44.24H2.184V62ZM25.4886 62.336C28.8486 62.336 31.9206 59.744 31.9206 55.304C31.9206 50.84 28.8486 48.248 25.4886 48.248C22.1046 48.248 19.0326 50.84 19.0326 55.304C19.0326 59.744 22.1046 62.336 25.4886 62.336ZM25.4886 59.48C23.6406 59.48 22.6326 57.824 22.6326 55.304C22.6326 52.76 23.6406 51.128 25.4886 51.128C27.3126 51.128 28.3206 52.76 28.3206 55.304C28.3206 57.824 27.3126 59.48 25.4886 59.48ZM39.0186 62.336C40.2186 62.336 41.1546 62.072 41.8746 61.832L41.2986 59.264C40.9146 59.408 40.4106 59.576 39.9546 59.576C38.7786 59.576 38.1306 58.856 38.1306 57.32V51.344H41.4666V48.584H38.1306V44.936H35.2026L34.8186 48.584L32.7306 48.728V51.344H34.6026V57.32C34.6026 60.32 35.8266 62.336 39.0186 62.336ZM49.2542 62.336C52.6142 62.336 55.6862 59.744 55.6862 55.304C55.6862 50.84 52.6142 48.248 49.2542 48.248C45.8702 48.248 42.7982 50.84 42.7982 55.304C42.7982 59.744 45.8702 62.336 49.2542 62.336ZM49.2542 59.48C47.4062 59.48 46.3982 57.824 46.3982 55.304C46.3982 52.76 47.4062 51.128 49.2542 51.128C51.0782 51.128 52.0862 52.76 52.0862 55.304C52.0862 57.824 51.0782 59.48 49.2542 59.48ZM69.6911 62.336C73.7711 62.336 76.1951 59.864 76.1951 56.96C76.1951 54.416 74.7791 53.024 72.6431 52.136L70.3151 51.176C68.8031 50.576 67.5311 50.096 67.5311 48.824C67.5311 47.672 68.5151 46.976 70.0751 46.976C71.5391 46.976 72.7151 47.504 73.8671 48.44L75.6431 46.208C74.2031 44.744 72.1391 43.928 70.0751 43.928C66.4991 43.928 63.9311 46.16 63.9311 49.064C63.9311 51.632 65.7551 53.096 67.5311 53.816L69.9071 54.824C71.4911 55.496 72.5711 55.928 72.5711 57.248C72.5711 58.472 71.6111 59.264 69.7631 59.264C68.2031 59.264 66.4991 58.496 65.2511 57.32L63.2111 59.768C64.9391 61.424 67.2911 62.336 69.6911 62.336ZM82.3637 62.336C83.8997 62.336 85.2437 61.592 86.4197 60.584H86.5157L86.7797 62H89.6597V54.176C89.6597 50.264 87.9077 48.248 84.4997 48.248C82.3637 48.248 80.4677 49.04 78.8837 50L80.1557 52.352C81.3797 51.608 82.6037 51.08 83.8517 51.08C85.5077 51.08 86.0597 52.064 86.1317 53.384C80.7317 53.984 78.4037 55.496 78.4037 58.352C78.4037 60.656 79.9637 62.336 82.3637 62.336ZM83.5157 59.576C82.4837 59.576 81.7637 59.12 81.7637 58.088C81.7637 56.864 82.8437 55.976 86.1317 55.568V58.28C85.2677 59.12 84.5237 59.576 83.5157 59.576ZM93.2554 62H96.7834V52.76C97.7674 51.8 98.4634 51.272 99.5674 51.272C100.863 51.272 101.463 51.968 101.463 54.08V62H104.991V53.624C104.991 50.264 103.719 48.248 100.839 48.248C99.0154 48.248 97.6234 49.208 96.4714 50.36H96.3994L96.1114 48.584H93.2554V62ZM112.47 62.336C115.95 62.336 117.798 60.464 117.798 58.088C117.798 55.616 115.854 54.704 114.078 54.032C112.638 53.528 111.414 53.144 111.414 52.184C111.414 51.392 111.966 50.864 113.19 50.864C114.174 50.864 115.134 51.344 116.07 52.016L117.678 49.904C116.574 49.04 115.038 48.248 113.094 48.248C110.022 48.248 108.102 49.952 108.102 52.328C108.102 54.608 109.998 55.616 111.702 56.288C113.094 56.816 114.51 57.296 114.51 58.28C114.51 59.12 113.886 59.72 112.542 59.72C111.294 59.72 110.166 59.168 108.942 58.232L107.358 60.464C108.678 61.568 110.67 62.336 112.47 62.336ZM129.767 62H133.319V47.192H138.335V44.24H124.751V47.192H129.767V62ZM147.596 62.336C149.9 62.336 151.796 61.448 153.26 59.744L151.388 57.512C150.452 58.544 149.252 59.264 147.74 59.264C144.908 59.264 143.108 56.96 143.108 53.072C143.108 49.28 145.124 46.976 147.788 46.976C149.156 46.976 150.164 47.576 151.076 48.464L152.948 46.184C151.796 44.984 149.996 43.928 147.74 43.928C143.228 43.928 139.484 47.336 139.484 53.192C139.484 59.12 143.108 62.336 147.596 62.336Z" fill="black"/>
<path d="M168.768 56.384V60.32C168.768 62.888 169.536 63.704 172.728 63.704C173.352 63.704 176.064 63.704 176.736 63.704C179.28 63.704 180.096 62.84 180.432 59.408C179.64 59.24 178.416 58.784 177.816 58.352C177.672 60.752 177.504 61.088 176.496 61.088C175.8 61.088 173.592 61.088 173.064 61.088C171.888 61.088 171.672 61.016 171.672 60.296V56.384H168.768ZM171.144 55.64C172.848 56.576 174.888 58.04 175.824 59.096L177.888 57.128C176.856 56.048 174.744 54.704 173.04 53.864L171.144 55.64ZM179.496 56.672C180.768 58.544 182.016 61.016 182.424 62.624L185.232 61.448C184.752 59.744 183.384 57.392 182.064 55.616L179.496 56.672ZM165.384 55.76C164.88 57.728 163.968 59.912 162.864 61.352L165.432 62.792C166.584 61.184 167.424 58.76 167.976 56.696L165.384 55.76ZM167.976 49.496H179.688V51.56H167.976V49.496ZM167.976 45.128H179.688V47.168H167.976V45.128ZM165.264 42.632V54.056H182.544V42.632H165.264ZM172.488 43.736V53.024H175.296V43.736H172.488ZM194.784 42.872V45.464H208.992V42.872H194.784ZM193.92 42.872V49.52C193.92 53.432 193.68 58.904 190.992 62.648C191.664 62.936 192.888 63.704 193.416 64.184C196.272 60.176 196.704 53.792 196.704 49.52V42.872H193.92ZM200.112 52.832H205.656V54.152H200.112V52.832ZM200.112 49.592H205.656V50.888H200.112V49.592ZM197.544 47.528V56.216H208.32V47.528H197.544ZM197.952 57.176C197.352 58.664 196.416 60.344 195.48 61.472C196.104 61.808 197.184 62.456 197.736 62.864C198.624 61.616 199.776 59.624 200.496 57.896L197.952 57.176ZM204.768 57.848C205.56 59.384 206.52 61.424 206.952 62.648L209.592 61.496C209.112 60.32 208.056 58.352 207.264 56.888L204.768 57.848ZM201.384 45.368C201.216 46.184 200.856 47.36 200.52 48.2L202.824 48.824C203.352 48.128 204 47.048 204.648 45.944L201.384 45.368ZM201.36 55.352V61.376C201.36 61.616 201.264 61.688 201 61.712C200.712 61.712 199.728 61.712 198.888 61.688C199.2 62.384 199.536 63.416 199.632 64.136C201.12 64.16 202.248 64.136 203.064 63.752C203.928 63.368 204.096 62.672 204.096 61.448V55.352H201.36ZM187.8 43.856C189.048 44.624 190.872 45.752 191.736 46.448L193.464 44.144C192.528 43.496 190.68 42.464 189.48 41.816L187.8 43.856ZM186.648 50.36C187.896 51.08 189.696 52.16 190.584 52.808L192.288 50.48C191.352 49.88 189.504 48.896 188.304 48.272L186.648 50.36ZM186.96 62.312L189.576 63.848C190.656 61.472 191.76 58.712 192.672 56.12L190.32 54.536C189.312 57.368 187.944 60.416 186.96 62.312ZM216.216 44.744H227.616V49.328H216.216V44.744ZM213.48 42.416V51.656H230.52V42.416H213.48ZM216.768 45.728C217.32 46.784 217.824 48.176 217.968 49.064L219.864 48.344C219.696 47.432 219.144 46.112 218.544 45.104L216.768 45.728ZM213.12 52.808V55.064H230.856V52.808H213.12ZM211.224 56.264V58.784H232.776V56.264H211.224ZM220.512 43.376V57.584H223.416V43.376H220.512ZM225.216 45.032C224.928 46.064 224.352 47.552 223.872 48.488L225.648 49.16C226.152 48.296 226.752 47 227.352 45.776L225.216 45.032ZM217.8 59.96C218.016 61.28 218.112 62.984 218.112 64.016L220.944 63.68C220.944 62.672 220.752 60.992 220.488 59.696L217.8 59.96ZM222.624 60.056C223.104 61.328 223.584 63.008 223.728 64.04L226.632 63.368C226.44 62.336 225.888 60.728 225.36 59.504L222.624 60.056ZM227.376 59.912C228.408 61.256 229.656 63.104 230.16 64.256L233.064 63.248C232.464 62.048 231.12 60.296 230.064 59.024L227.376 59.912ZM213.576 59.048C213.024 60.56 212.04 62.168 211.032 63.056L213.792 64.256C214.896 63.128 215.88 61.376 216.408 59.744L213.576 59.048ZM244.8 51.944V53.984H257.064V51.944H244.8ZM244.536 61.712V63.8H257.28V61.712H244.536ZM247.992 41.648V44.792H250.224V41.648H247.992ZM251.256 41.648V44.792H253.512V41.648H251.256ZM247.272 48.08H254.4V49.208H247.272V48.08ZM247.272 45.248H254.4V46.352H247.272V45.248ZM245.16 43.352V51.08H256.608V43.352H245.16ZM248.208 56.528H253.44V57.776H248.208V56.528ZM245.712 54.776V59.504H256.104V54.776H245.712ZM252.648 59.288C252.408 60.152 251.928 61.376 251.52 62.216L253.368 62.864C253.872 62.168 254.52 61.064 255.216 59.984L252.648 59.288ZM246.744 59.96C247.104 60.824 247.512 62.024 247.68 62.768L249.936 62C249.72 61.28 249.288 60.152 248.904 59.288L246.744 59.96ZM248.496 44.408V50.336H250.248V44.408H248.496ZM251.4 44.408V50.336H253.152V44.408H251.4ZM237.192 52.16V54.032H242.52V52.16H237.192ZM241.248 52.16V61.64C241.248 61.88 241.176 61.952 240.936 61.952C240.72 61.952 240 61.952 239.304 61.928C239.592 62.528 239.904 63.44 240 64.064C241.248 64.064 242.136 64.016 242.784 63.68C243.456 63.32 243.624 62.72 243.624 61.688V52.16H241.248ZM235.872 42.368V50.12H238.08V44.408H241.344V50.12H243.696V42.368H235.872ZM234.936 49.232V53H237V51.176H242.544V53H244.704V49.232H234.936ZM238.992 45.392V49.88H240.456V47H242.904V45.392H238.992ZM236.112 52.16V56.696C236.112 58.592 236.016 61.064 234.84 62.84C235.392 63.104 236.424 63.824 236.856 64.232C238.224 62.192 238.44 59.024 238.44 56.72V52.16H236.112ZM238.056 59.072L238.92 60.968C240.12 60.2 241.392 59.384 242.736 58.52L242.304 57.128C240.696 57.896 239.16 58.64 238.056 59.072ZM238.08 55.76C238.848 56.288 239.832 57.128 240.288 57.632L241.536 56.24C241.032 55.76 240.072 55.088 239.256 54.56L238.08 55.76Z" fill="black"/>
<path d="M1.638 123H4.302V117.6H9.036V115.386H4.302V111.894H9.846V109.68H1.638V123ZM15.7238 123.252C18.2438 123.252 20.5478 121.308 20.5478 117.978C20.5478 114.63 18.2438 112.686 15.7238 112.686C13.1858 112.686 10.8818 114.63 10.8818 117.978C10.8818 121.308 13.1858 123.252 15.7238 123.252ZM15.7238 121.11C14.3378 121.11 13.5818 119.868 13.5818 117.978C13.5818 116.07 14.3378 114.846 15.7238 114.846C17.0918 114.846 17.8478 116.07 17.8478 117.978C17.8478 119.868 17.0918 121.11 15.7238 121.11ZM22.7794 123H25.4254V116.07C26.1634 115.35 26.6854 114.954 27.5134 114.954C28.4854 114.954 28.9354 115.476 28.9354 117.06V123H31.5814V116.718C31.5814 114.198 30.6274 112.686 28.4674 112.686C27.0994 112.686 26.0554 113.406 25.1914 114.27H25.1374L24.9214 112.938H22.7794V123ZM37.9827 123.252C38.8827 123.252 39.5847 123.054 40.1247 122.874L39.6927 120.948C39.4047 121.056 39.0267 121.182 38.6847 121.182C37.8027 121.182 37.3167 120.642 37.3167 119.49V115.008H39.8187V112.938H37.3167V110.202H35.1207L34.8327 112.938L33.2667 113.046V115.008H34.6707V119.49C34.6707 121.74 35.5887 123.252 37.9827 123.252ZM50.159 123.252C53.219 123.252 55.037 121.398 55.037 119.22C55.037 117.312 53.975 116.268 52.373 115.602L50.627 114.882C49.493 114.432 48.539 114.072 48.539 113.118C48.539 112.254 49.277 111.732 50.447 111.732C51.545 111.732 52.427 112.128 53.291 112.83L54.623 111.156C53.543 110.058 51.995 109.446 50.447 109.446C47.765 109.446 45.839 111.12 45.839 113.298C45.839 115.224 47.207 116.322 48.539 116.862L50.321 117.618C51.509 118.122 52.319 118.446 52.319 119.436C52.319 120.354 51.599 120.948 50.213 120.948C49.043 120.948 47.765 120.372 46.829 119.49L45.299 121.326C46.595 122.568 48.359 123.252 50.159 123.252ZM61.4634 123.252C62.5794 123.252 63.8214 122.874 64.7754 122.046L63.7314 120.3C63.1734 120.75 62.4894 121.11 61.7514 121.11C60.3114 121.11 59.2674 119.868 59.2674 117.978C59.2674 116.07 60.2934 114.846 61.8594 114.846C62.3994 114.846 62.8854 115.062 63.3894 115.494L64.6314 113.802C63.8934 113.154 62.9574 112.686 61.6974 112.686C58.9614 112.686 56.5674 114.63 56.5674 117.978C56.5674 121.308 58.6914 123.252 61.4634 123.252ZM68.8568 123.252C70.0088 123.252 71.0168 122.694 71.8988 121.938H71.9708L72.1688 123H74.3288V117.132C74.3288 114.198 73.0148 112.686 70.4588 112.686C68.8568 112.686 67.4348 113.28 66.2468 114L67.2008 115.764C68.1188 115.206 69.0368 114.81 69.9728 114.81C71.2148 114.81 71.6288 115.548 71.6828 116.538C67.6328 116.988 65.8868 118.122 65.8868 120.264C65.8868 121.992 67.0568 123.252 68.8568 123.252ZM69.7207 121.182C68.9468 121.182 68.4068 120.84 68.4068 120.066C68.4068 119.148 69.2168 118.482 71.6828 118.176V120.21C71.0348 120.84 70.4768 121.182 69.7207 121.182ZM79.5095 123.252C80.1395 123.252 80.5535 123.144 80.8595 123.036L80.5355 121.074C80.3555 121.11 80.2835 121.11 80.1935 121.11C79.9415 121.11 79.6715 120.912 79.6715 120.282V108.654H77.0255V120.174C77.0255 122.046 77.6555 123.252 79.5095 123.252ZM87.0953 123.252C88.3373 123.252 89.5973 122.838 90.5873 122.154L89.7053 120.516C88.9673 120.966 88.2473 121.218 87.4373 121.218C85.9433 121.218 84.8633 120.372 84.6293 118.716H90.8573C90.9113 118.464 90.9653 117.996 90.9653 117.492C90.9653 114.702 89.5433 112.686 86.7533 112.686C84.3773 112.686 82.0733 114.702 82.0733 117.978C82.0733 121.308 84.2693 123.252 87.0953 123.252ZM84.5933 116.952C84.8093 115.476 85.7453 114.72 86.8073 114.72C88.1033 114.72 88.7153 115.584 88.7153 116.952H84.5933Z" fill="#333333"/>
<path d="M1.456 158H3.824V152.88H8.304V158H10.656V146.16H8.304V150.832H3.824V146.16H1.456V158ZM13.4054 158H20.5414V156.096H18.3174V146.464H16.5734C15.8054 146.928 15.0054 147.232 13.8054 147.472V148.928H15.9654V156.096H13.4054V158Z" fill="black" fill-opacity="0.87"/>
<path d="M34.704 157H36.622V146.906H34.144L30.294 153.08V154.494H37.854V152.912H32.296L33.892 150.378C34.186 149.804 34.466 149.286 34.732 148.74H34.788C34.76 149.342 34.704 150.308 34.704 150.91V157ZM42.3878 157.196C44.5018 157.196 45.8878 155.348 45.8878 151.918C45.8878 148.502 44.5018 146.724 42.3878 146.724C40.2458 146.724 38.8738 148.488 38.8738 151.918C38.8738 155.348 40.2458 157.196 42.3878 157.196ZM42.3878 155.586C41.4918 155.586 40.8198 154.732 40.8198 151.918C40.8198 149.104 41.4918 148.32 42.3878 148.32C43.2838 148.32 43.9418 149.104 43.9418 151.918C43.9418 154.732 43.2838 155.586 42.3878 155.586ZM47.6216 160.01H49.6796V157.63L49.6096 156.356C50.1976 156.902 50.8696 157.196 51.5416 157.196C53.2636 157.196 54.8736 155.656 54.8736 152.968C54.8736 150.546 53.7256 148.978 51.7936 148.978C50.9536 148.978 50.1416 149.412 49.4976 149.986H49.4556L49.2876 149.174H47.6216V160.01ZM51.0936 155.502C50.6736 155.502 50.1696 155.362 49.6796 154.928V151.47C50.2116 150.924 50.6876 150.658 51.2056 150.658C52.2976 150.658 52.7596 151.484 52.7596 152.996C52.7596 154.69 52.0316 155.502 51.0936 155.502ZM55.2842 157H57.4262L58.1402 155.558C58.3642 155.096 58.5742 154.634 58.7982 154.2H58.8682C59.1342 154.634 59.3862 155.11 59.6382 155.558L60.5062 157H62.7182L60.2542 153.15L62.5502 149.174H60.4222L59.7782 150.546C59.5822 151.008 59.3862 151.442 59.2042 151.89H59.1342C58.8962 151.442 58.6582 151.008 58.4482 150.546L57.6502 149.174H55.4522L57.7482 152.926L55.2842 157Z" fill="black" fill-opacity="0.6"/>
<path d="M11.28 202.64V209.2C11.28 213.48 12.56 214.84 17.88 214.84C18.92 214.84 23.44 214.84 24.56 214.84C28.8 214.84 30.16 213.4 30.72 207.68C29.4 207.4 27.36 206.64 26.36 205.92C26.12 209.92 25.84 210.48 24.16 210.48C23 210.48 19.32 210.48 18.44 210.48C16.48 210.48 16.12 210.36 16.12 209.16V202.64H11.28ZM15.24 201.4C18.08 202.96 21.48 205.4 23.04 207.16L26.48 203.88C24.76 202.08 21.24 199.84 18.4 198.44L15.24 201.4ZM29.16 203.12C31.28 206.24 33.36 210.36 34.04 213.04L38.72 211.08C37.92 208.24 35.64 204.32 33.44 201.36L29.16 203.12ZM5.64 201.6C4.8 204.88 3.28 208.52 1.44 210.92L5.72 213.32C7.64 210.64 9.04 206.6 9.96 203.16L5.64 201.6ZM9.96 191.16H29.48V194.6H9.96V191.16ZM9.96 183.88H29.48V187.28H9.96V183.88ZM5.44 179.72V198.76H34.24V179.72H5.44ZM17.48 181.56V197.04H22.16V181.56H17.48ZM54.64 180.12V184.44H78.32V180.12H54.64ZM53.2 180.12V191.2C53.2 197.72 52.8 206.84 48.32 213.08C49.44 213.56 51.48 214.84 52.36 215.64C57.12 208.96 57.84 198.32 57.84 191.2V180.12H53.2ZM63.52 196.72H72.76V198.92H63.52V196.72ZM63.52 191.32H72.76V193.48H63.52V191.32ZM59.24 187.88V202.36H77.2V187.88H59.24ZM59.92 203.96C58.92 206.44 57.36 209.24 55.8 211.12C56.84 211.68 58.64 212.76 59.56 213.44C61.04 211.36 62.96 208.04 64.16 205.16L59.92 203.96ZM71.28 205.08C72.6 207.64 74.2 211.04 74.92 213.08L79.32 211.16C78.52 209.2 76.76 205.92 75.44 203.48L71.28 205.08ZM65.64 184.28C65.36 185.64 64.76 187.6 64.2 189L68.04 190.04C68.92 188.88 70 187.08 71.08 185.24L65.64 184.28ZM65.6 200.92V210.96C65.6 211.36 65.44 211.48 65 211.52C64.52 211.52 62.88 211.52 61.48 211.48C62 212.64 62.56 214.36 62.72 215.56C65.2 215.6 67.08 215.56 68.44 214.92C69.88 214.28 70.16 213.12 70.16 211.08V200.92H65.6ZM43 181.76C45.08 183.04 48.12 184.92 49.56 186.08L52.44 182.24C50.88 181.16 47.8 179.44 45.8 178.36L43 181.76ZM41.08 192.6C43.16 193.8 46.16 195.6 47.64 196.68L50.48 192.8C48.92 191.8 45.84 190.16 43.84 189.12L41.08 192.6ZM41.6 212.52L45.96 215.08C47.76 211.12 49.6 206.52 51.12 202.2L47.2 199.56C45.52 204.28 43.24 209.36 41.6 212.52ZM90.36 183.24H109.36V190.88H90.36V183.24ZM85.8 179.36V194.76H114.2V179.36H85.8ZM91.28 184.88C92.2 186.64 93.04 188.96 93.28 190.44L96.44 189.24C96.16 187.72 95.24 185.52 94.24 183.84L91.28 184.88ZM85.2 196.68V200.44H114.76V196.68H85.2ZM82.04 202.44V206.64H117.96V202.44H82.04ZM97.52 180.96V204.64H102.36V180.96H97.52ZM105.36 183.72C104.88 185.44 103.92 187.92 103.12 189.48L106.08 190.6C106.92 189.16 107.92 187 108.92 184.96L105.36 183.72ZM93 208.6C93.36 210.8 93.52 213.64 93.52 215.36L98.24 214.8C98.24 213.12 97.92 210.32 97.48 208.16L93 208.6ZM101.04 208.76C101.84 210.88 102.64 213.68 102.88 215.4L107.72 214.28C107.4 212.56 106.48 209.88 105.6 207.84L101.04 208.76ZM108.96 208.52C110.68 210.76 112.76 213.84 113.6 215.76L118.44 214.08C117.44 212.08 115.2 209.16 113.44 207.04L108.96 208.52ZM85.96 207.08C85.04 209.6 83.4 212.28 81.72 213.76L86.32 215.76C88.16 213.88 89.8 210.96 90.68 208.24L85.96 207.08ZM138 195.24V198.64H158.44V195.24H138ZM137.56 211.52V215H158.8V211.52H137.56ZM143.32 178.08V183.32H147.04V178.08H143.32ZM148.76 178.08V183.32H152.52V178.08H148.76ZM142.12 188.8H154V190.68H142.12V188.8ZM142.12 184.08H154V185.92H142.12V184.08ZM138.6 180.92V193.8H157.68V180.92H138.6ZM143.68 202.88H152.4V204.96H143.68V202.88ZM139.52 199.96V207.84H156.84V199.96H139.52ZM151.08 207.48C150.68 208.92 149.88 210.96 149.2 212.36L152.28 213.44C153.12 212.28 154.2 210.44 155.36 208.64L151.08 207.48ZM141.24 208.6C141.84 210.04 142.52 212.04 142.8 213.28L146.56 212C146.2 210.8 145.48 208.92 144.84 207.48L141.24 208.6ZM144.16 182.68V192.56H147.08V182.68H144.16ZM149 182.68V192.56H151.92V182.68H149ZM125.32 195.6V198.72H134.2V195.6H125.32ZM132.08 195.6V211.4C132.08 211.8 131.96 211.92 131.56 211.92C131.2 211.92 130 211.92 128.84 211.88C129.32 212.88 129.84 214.4 130 215.44C132.08 215.44 133.56 215.36 134.64 214.8C135.76 214.2 136.04 213.2 136.04 211.48V195.6H132.08ZM123.12 179.28V192.2H126.8V182.68H132.24V192.2H136.16V179.28H123.12ZM121.56 190.72V197H125V193.96H134.24V197H137.84V190.72H121.56ZM128.32 184.32V191.8H130.76V187H134.84V184.32H128.32ZM123.52 195.6V203.16C123.52 206.32 123.36 210.44 121.4 213.4C122.32 213.84 124.04 215.04 124.76 215.72C127.04 212.32 127.4 207.04 127.4 203.2V195.6H123.52ZM126.76 207.12L128.2 210.28C130.2 209 132.32 207.64 134.56 206.2L133.84 203.88C131.16 205.16 128.6 206.4 126.76 207.12ZM126.8 201.6C128.08 202.48 129.72 203.88 130.48 204.72L132.56 202.4C131.72 201.6 130.12 200.48 128.76 199.6L126.8 201.6ZM172.303 212H190.143V207.24H184.583V182.4H180.223C178.303 183.56 176.303 184.32 173.303 184.88V188.52H178.703V207.24H172.303V212Z" fill="black"/>
<path d="M1.456 258H3.824V252.88H8.304V258H10.656V246.16H8.304V250.832H3.824V246.16H1.456V258ZM12.7814 258H20.7174V256.016H18.1254C17.5654 256.016 16.7814 256.096 16.1894 256.16C18.3014 253.952 20.1734 251.856 20.1734 249.856C20.1734 247.664 18.6694 246.256 16.4454 246.256C14.8294 246.256 13.7574 246.88 12.6694 248.048L13.9654 249.328C14.5734 248.688 15.2614 248.096 16.1414 248.096C17.2774 248.096 17.9014 248.8 17.9014 249.968C17.9014 251.696 15.8694 253.696 12.7814 256.656V258Z" fill="black" fill-opacity="0.87"/>
<path d="M33.822 257.196C35.81 257.196 37.476 256.132 37.476 254.27C37.476 252.954 36.58 252.1 35.404 251.778V251.722C36.496 251.274 37.126 250.518 37.126 249.426C37.126 247.704 35.768 246.724 33.766 246.724C32.562 246.724 31.568 247.228 30.672 247.998L31.722 249.272C32.338 248.698 32.94 248.334 33.682 248.334C34.564 248.334 35.068 248.796 35.068 249.58C35.068 250.448 34.452 251.078 32.548 251.078V252.562C34.802 252.562 35.404 253.178 35.404 254.144C35.404 255.026 34.69 255.53 33.626 255.53C32.688 255.53 31.946 255.054 31.33 254.452L30.35 255.754C31.078 256.594 32.184 257.196 33.822 257.196ZM38.8458 257H45.7898V255.264H43.5218C43.0318 255.264 42.3458 255.334 41.8278 255.39C43.6758 253.458 45.3138 251.624 45.3138 249.874C45.3138 247.956 43.9978 246.724 42.0518 246.724C40.6378 246.724 39.6998 247.27 38.7478 248.292L39.8818 249.412C40.4138 248.852 41.0158 248.334 41.7858 248.334C42.7798 248.334 43.3258 248.95 43.3258 249.972C43.3258 251.484 41.5478 253.234 38.8458 255.824V257ZM47.6216 260.01H49.6796V257.63L49.6096 256.356C50.1976 256.902 50.8696 257.196 51.5416 257.196C53.2636 257.196 54.8736 255.656 54.8736 252.968C54.8736 250.546 53.7256 248.978 51.7936 248.978C50.9536 248.978 50.1416 249.412 49.4976 249.986H49.4556L49.2876 249.174H47.6216V260.01ZM51.0936 255.502C50.6736 255.502 50.1696 255.362 49.6796 254.928V251.47C50.2116 250.924 50.6876 250.658 51.2056 250.658C52.2976 250.658 52.7596 251.484 52.7596 252.996C52.7596 254.69 52.0316 255.502 51.0936 255.502ZM55.2842 257H57.4262L58.1402 255.558C58.3642 255.096 58.5742 254.634 58.7982 254.2H58.8682C59.1342 254.634 59.3862 255.11 59.6382 255.558L60.5062 257H62.7182L60.2542 253.15L62.5502 249.174H60.4222L59.7782 250.546C59.5822 251.008 59.3862 251.442 59.2042 251.89H59.1342C58.8962 251.442 58.6582 251.008 58.4482 250.546L57.6502 249.174H55.4522L57.7482 252.926L55.2842 257Z" fill="black" fill-opacity="0.6"/>
<path d="M9.024 296.512V301.76C9.024 305.184 10.048 306.272 14.304 306.272C15.136 306.272 18.752 306.272 19.648 306.272C23.04 306.272 24.128 305.12 24.576 300.544C23.52 300.32 21.888 299.712 21.088 299.136C20.896 302.336 20.672 302.784 19.328 302.784C18.4 302.784 15.456 302.784 14.752 302.784C13.184 302.784 12.896 302.688 12.896 301.728V296.512H9.024ZM12.192 295.52C14.464 296.768 17.184 298.72 18.432 300.128L21.184 297.504C19.808 296.064 16.992 294.272 14.72 293.152L12.192 295.52ZM23.328 296.896C25.024 299.392 26.688 302.688 27.232 304.832L30.976 303.264C30.336 300.992 28.512 297.856 26.752 295.488L23.328 296.896ZM4.512 295.68C3.84 298.304 2.624 301.216 1.152 303.136L4.576 305.056C6.112 302.912 7.232 299.68 7.968 296.928L4.512 295.68ZM7.968 287.328H23.584V290.08H7.968V287.328ZM7.968 281.504H23.584V284.224H7.968V281.504ZM4.352 278.176V293.408H27.392V278.176H4.352ZM13.984 279.648V292.032H17.728V279.648H13.984ZM43.712 278.496V281.952H62.656V278.496H43.712ZM42.56 278.496V287.36C42.56 292.576 42.24 299.872 38.656 304.864C39.552 305.248 41.184 306.272 41.888 306.912C45.696 301.568 46.272 293.056 46.272 287.36V278.496H42.56ZM50.816 291.776H58.208V293.536H50.816V291.776ZM50.816 287.456H58.208V289.184H50.816V287.456ZM47.392 284.704V296.288H61.76V284.704H47.392ZM47.936 297.568C47.136 299.552 45.888 301.792 44.64 303.296C45.472 303.744 46.912 304.608 47.648 305.152C48.832 303.488 50.368 300.832 51.328 298.528L47.936 297.568ZM57.024 298.464C58.08 300.512 59.36 303.232 59.936 304.864L63.456 303.328C62.816 301.76 61.408 299.136 60.352 297.184L57.024 298.464ZM52.512 281.824C52.288 282.912 51.808 284.48 51.36 285.6L54.432 286.432C55.136 285.504 56 284.064 56.864 282.592L52.512 281.824ZM52.48 295.136V303.168C52.48 303.488 52.352 303.584 52 303.616C51.616 303.616 50.304 303.616 49.184 303.584C49.6 304.512 50.048 305.888 50.176 306.848C52.16 306.88 53.664 306.848 54.752 306.336C55.904 305.824 56.128 304.896 56.128 303.264V295.136H52.48ZM34.4 279.808C36.064 280.832 38.496 282.336 39.648 283.264L41.952 280.192C40.704 279.328 38.24 277.952 36.64 277.088L34.4 279.808ZM32.864 288.48C34.528 289.44 36.928 290.88 38.112 291.744L40.384 288.64C39.136 287.84 36.672 286.528 35.072 285.696L32.864 288.48ZM33.28 304.416L36.768 306.464C38.208 303.296 39.68 299.616 40.896 296.16L37.76 294.048C36.416 297.824 34.592 301.888 33.28 304.416ZM72.288 280.992H87.488V287.104H72.288V280.992ZM68.64 277.888V290.208H91.36V277.888H68.64ZM73.024 282.304C73.76 283.712 74.432 285.568 74.624 286.752L77.152 285.792C76.928 284.576 76.192 282.816 75.392 281.472L73.024 282.304ZM68.16 291.744V294.752H91.808V291.744H68.16ZM65.632 296.352V299.712H94.368V296.352H65.632ZM78.016 279.168V298.112H81.888V279.168H78.016ZM84.288 281.376C83.904 282.752 83.136 284.736 82.496 285.984L84.864 286.88C85.536 285.728 86.336 284 87.136 282.368L84.288 281.376ZM74.4 301.28C74.688 303.04 74.816 305.312 74.816 306.688L78.592 306.24C78.592 304.896 78.336 302.656 77.984 300.928L74.4 301.28ZM80.832 301.408C81.472 303.104 82.112 305.344 82.304 306.72L86.176 305.824C85.92 304.448 85.184 302.304 84.48 300.672L80.832 301.408ZM87.168 301.216C88.544 303.008 90.208 305.472 90.88 307.008L94.752 305.664C93.952 304.064 92.16 301.728 90.752 300.032L87.168 301.216ZM68.768 300.064C68.032 302.08 66.72 304.224 65.376 305.408L69.056 307.008C70.528 305.504 71.84 303.168 72.544 300.992L68.768 300.064ZM110.4 290.592V293.312H126.752V290.592H110.4ZM110.048 303.616V306.4H127.04V303.616H110.048ZM114.656 276.864V281.056H117.632V276.864H114.656ZM119.008 276.864V281.056H122.016V276.864H119.008ZM113.696 285.44H123.2V286.944H113.696V285.44ZM113.696 281.664H123.2V283.136H113.696V281.664ZM110.88 279.136V289.44H126.144V279.136H110.88ZM114.944 296.704H121.92V298.368H114.944V296.704ZM111.616 294.368V300.672H125.472V294.368H111.616ZM120.864 300.384C120.544 301.536 119.904 303.168 119.36 304.288L121.824 305.152C122.496 304.224 123.36 302.752 124.288 301.312L120.864 300.384ZM112.992 301.28C113.472 302.432 114.016 304.032 114.24 305.024L117.248 304C116.96 303.04 116.384 301.536 115.872 300.384L112.992 301.28ZM115.328 280.544V288.448H117.664V280.544H115.328ZM119.2 280.544V288.448H121.536V280.544H119.2ZM100.256 290.88V293.376H107.36V290.88H100.256ZM105.664 290.88V303.52C105.664 303.84 105.568 303.936 105.248 303.936C104.96 303.936 104 303.936 103.072 303.904C103.456 304.704 103.872 305.92 104 306.752C105.664 306.752 106.848 306.688 107.712 306.24C108.608 305.76 108.832 304.96 108.832 303.584V290.88H105.664ZM98.496 277.824V288.16H101.44V280.544H105.792V288.16H108.928V277.824H98.496ZM97.248 286.976V292H100V289.568H107.392V292H110.272V286.976H97.248ZM102.656 281.856V287.84H104.608V284H107.872V281.856H102.656ZM98.816 290.88V296.928C98.816 299.456 98.688 302.752 97.12 305.12C97.856 305.472 99.232 306.432 99.808 306.976C101.632 304.256 101.92 300.032 101.92 296.96V290.88H98.816ZM101.408 300.096L102.56 302.624C104.16 301.6 105.856 300.512 107.648 299.36L107.072 297.504C104.928 298.528 102.88 299.52 101.408 300.096ZM101.44 295.68C102.464 296.384 103.776 297.504 104.384 298.176L106.048 296.32C105.376 295.68 104.096 294.784 103.008 294.08L101.44 295.68ZM136.594 304H152.466V300.032H147.346C146.226 300.032 144.658 300.192 143.474 300.32C147.794 296.096 151.378 291.488 151.378 287.168C151.378 282.752 148.37 279.904 143.922 279.904C140.69 279.904 138.546 281.152 136.37 283.488L138.962 286.048C140.178 284.704 141.554 283.584 143.314 283.584C145.586 283.584 146.834 285.056 146.834 287.424C146.834 291.072 143.058 295.52 136.594 301.312V304Z" fill="black"/>
<path d="M1.456 348H3.824V342.88H8.304V348H10.656V336.16H8.304V340.832H3.824V336.16H1.456V348ZM16.4774 348.224C18.7494 348.224 20.6534 347.008 20.6534 344.88C20.6534 343.376 19.6294 342.4 18.2854 342.032V341.968C19.5334 341.456 20.2534 340.592 20.2534 339.344C20.2534 337.376 18.7014 336.256 16.4134 336.256C15.0374 336.256 13.9014 336.832 12.8774 337.712L14.0774 339.168C14.7814 338.512 15.4694 338.096 16.3174 338.096C17.3254 338.096 17.9014 338.624 17.9014 339.52C17.9014 340.512 17.1974 341.232 15.0214 341.232V342.928C17.5974 342.928 18.2854 343.632 18.2854 344.736C18.2854 345.744 17.4694 346.32 16.2534 346.32C15.1814 346.32 14.3334 345.776 13.6294 345.088L12.5094 346.576C13.3414 347.536 14.6054 348.224 16.4774 348.224Z" fill="black" fill-opacity="0.87"/>
<path d="M30.588 347H37.532V345.264H35.264C34.774 345.264 34.088 345.334 33.57 345.39C35.418 343.458 37.056 341.624 37.056 339.874C37.056 337.956 35.74 336.724 33.794 336.724C32.38 336.724 31.442 337.27 30.49 338.292L31.624 339.412C32.156 338.852 32.758 338.334 33.528 338.334C34.522 338.334 35.068 338.95 35.068 339.972C35.068 341.484 33.29 343.234 30.588 345.824V347ZM42.9618 347H44.8798V336.906H42.4018L38.5518 343.08V344.494H46.1118V342.912H40.5538L42.1498 340.378C42.4438 339.804 42.7238 339.286 42.9898 338.74H43.0458C43.0178 339.342 42.9618 340.308 42.9618 340.91V347ZM47.6216 350.01H49.6796V347.63L49.6096 346.356C50.1976 346.902 50.8696 347.196 51.5416 347.196C53.2636 347.196 54.8736 345.656 54.8736 342.968C54.8736 340.546 53.7256 338.978 51.7936 338.978C50.9536 338.978 50.1416 339.412 49.4976 339.986H49.4556L49.2876 339.174H47.6216V350.01ZM51.0936 345.502C50.6736 345.502 50.1696 345.362 49.6796 344.928V341.47C50.2116 340.924 50.6876 340.658 51.2056 340.658C52.2976 340.658 52.7596 341.484 52.7596 342.996C52.7596 344.69 52.0316 345.502 51.0936 345.502ZM55.2842 347H57.4262L58.1402 345.558C58.3642 345.096 58.5742 344.634 58.7982 344.2H58.8682C59.1342 344.634 59.3862 345.11 59.6382 345.558L60.5062 347H62.7182L60.2542 343.15L62.5502 339.174H60.4222L59.7782 340.546C59.5822 341.008 59.3862 341.442 59.2042 341.89H59.1342C58.8962 341.442 58.6582 341.008 58.4482 340.546L57.6502 339.174H55.4522L57.7482 342.926L55.2842 347Z" fill="black" fill-opacity="0.6"/>
<path d="M6.024 368.472H10.536V370.584H6.024V368.472ZM6.024 364.152H10.536V366.168H6.024V364.152ZM17.688 366.168H13.296V364.152H17.688V366.168ZM17.688 370.584H13.296V368.472H17.688V370.584ZM9.168 374.616C10.896 375.528 12.912 377.016 13.848 378.048L15.888 376.104C14.904 375.096 13.056 373.872 11.448 373.056H20.52V361.68H3.336V373.056H10.848L9.168 374.616ZM3.504 381.72C4.656 380.136 5.472 377.712 6.048 375.672L3.456 374.736C2.952 376.704 2.04 378.864 0.936 380.304L3.504 381.72ZM11.088 380.064C9.888 380.064 9.672 379.968 9.672 379.248V375.336H6.792V379.272C6.792 381.816 7.584 382.656 10.752 382.656H14.736C17.232 382.656 18.072 381.792 18.384 378.384C17.616 378.216 16.392 377.76 15.816 377.328C15.672 379.704 15.48 380.064 14.496 380.064H11.088ZM17.448 375.648C18.744 377.52 19.968 379.968 20.376 381.576L23.16 380.4C22.68 378.72 21.336 376.392 19.992 374.592L17.448 375.648ZM31.512 363.168C30.576 362.544 28.728 361.512 27.504 360.84L25.872 362.88C27.12 363.648 28.92 364.776 29.76 365.448L31.512 363.168ZM30.336 369.504C29.4 368.88 27.552 367.896 26.352 367.296L24.744 369.336C25.968 370.08 27.768 371.136 28.632 371.808L30.336 369.504ZM28.392 373.536C27.36 376.344 26.016 379.368 25.008 381.24L27.624 382.8C28.704 380.424 29.808 377.664 30.72 375.096L28.392 373.536ZM35.976 376.152C35.376 377.64 34.416 379.296 33.504 380.448C34.128 380.76 35.208 381.384 35.736 381.816C36.624 380.592 37.752 378.6 38.496 376.872L35.976 376.152ZM38.088 371.808H43.632V373.152H38.088V371.808ZM38.088 368.568H43.632V369.888H38.088V368.568ZM46.272 375.192V366.528H41.688C41.976 366.024 42.288 365.496 42.6 364.968L39.936 364.488H46.944V361.92H31.968V368.544C31.968 372.432 31.728 377.88 29.04 381.576C29.736 381.888 30.936 382.656 31.44 383.112C34.296 379.128 34.728 372.792 34.728 368.544V364.488H39.36C39.216 365.112 39 365.832 38.76 366.528H35.568V375.192H39.36V380.304C39.36 380.568 39.264 380.64 38.976 380.64C38.688 380.64 37.728 380.64 36.888 380.616C37.2 381.312 37.512 382.32 37.632 383.064C39.096 383.088 40.224 383.04 41.04 382.656C41.88 382.272 42.072 381.6 42.072 380.376V375.192H46.272ZM42.744 376.824C43.512 378.336 44.472 380.352 44.904 381.6L47.544 380.448C47.04 379.272 45.984 377.328 45.216 375.888L42.744 376.824ZM63.648 368.184C64.152 367.32 64.728 366.048 65.328 364.8L63.216 364.056C62.928 365.088 62.376 366.576 61.896 367.512L63.648 368.184ZM54.792 364.752C55.368 365.808 55.872 367.2 56.016 368.088L57.888 367.368C57.72 366.456 57.168 365.136 56.544 364.128L54.792 364.752ZM54.24 368.352V363.768H58.56V368.352H54.24ZM65.616 368.352H61.416V363.768H65.616V368.352ZM70.728 375.264H61.416V374.04H68.832V371.808H61.416V370.656H68.496V361.464H51.528V370.656H58.56V371.808H51.168V374.04H58.56V375.264H49.296V377.76H70.728V375.264ZM51.84 383.208C52.92 382.056 53.904 380.328 54.432 378.72L51.624 378.024C51.072 379.512 50.112 381.12 49.104 382.008L51.84 383.208ZM55.848 378.936C56.064 380.232 56.16 381.912 56.16 382.968L58.968 382.608C58.968 381.6 58.776 379.944 58.512 378.672L55.848 378.936ZM60.648 379.008C61.128 380.28 61.608 381.936 61.752 382.968L64.632 382.32C64.44 381.312 63.888 379.68 63.36 378.48L60.648 379.008ZM65.352 378.888C66.408 380.208 67.656 382.032 68.16 383.184L71.016 382.176C70.416 381 69.096 379.248 68.04 378L65.352 378.888ZM92.376 365.376H91.104V364.272H92.376V365.376ZM92.376 368.232H91.104V367.104H92.376V368.232ZM85.272 367.104H86.496V368.232H85.272V367.104ZM85.272 364.272H86.496V365.376H85.272V364.272ZM89.376 367.104V368.232H88.224V367.104H89.376ZM88.224 365.376V364.272H89.376V365.376H88.224ZM94.584 362.4H91.488V360.696H89.256V362.4H88.2V360.696H85.992V362.4H83.16V370.104H94.584V362.4ZM95.04 370.92H82.8V372.96H95.04V370.92ZM76.488 374.976C77.184 375.504 77.928 376.152 78.336 376.56L79.296 375.504V376.56C78.216 377.088 77.232 377.568 76.416 377.904C76.464 377.112 76.488 376.392 76.488 375.696V374.976ZM76.128 363.432H79.392V364.416H77.064V368.256H76.128V363.432ZM78.504 368.256V366.024H79.392V368.256H78.504ZM80.568 371.136H75.072V370.176H80.568V371.136ZM76.488 372.984H79.296V374.952C78.768 374.52 78 373.992 77.304 373.536L76.488 374.352V372.984ZM82.728 371.976V368.256H81.72V361.416H73.92V368.256H73.008V371.976H74.184V375.648C74.184 377.568 74.088 379.992 72.912 381.792C73.44 382.032 74.496 382.752 74.904 383.16C75.744 381.912 76.152 380.184 76.344 378.552L76.968 379.896C77.736 379.44 78.504 378.936 79.296 378.408V380.592C79.296 380.808 79.224 380.904 78.984 380.904C78.768 380.904 78.048 380.904 77.376 380.88C77.664 381.456 77.952 382.368 78.024 382.968C79.296 382.968 80.184 382.944 80.808 382.584C81.48 382.224 81.648 381.648 81.648 380.616V371.976H82.728ZM90.552 378.432C90.36 379.104 90.048 379.92 89.76 380.64H87.816C87.6 379.968 87.288 379.152 87 378.432H90.552ZM86.208 375.48H91.416V376.728H86.208V375.48ZM92.112 380.64C92.448 380.112 92.784 379.536 93.168 378.936L91.32 378.432H94.056V373.752H83.736V378.432H86.256L84.744 378.888C84.984 379.416 85.2 380.04 85.392 380.64H82.56V382.704H95.232V380.64H92.112ZM108.014 381.336C111.398 381.336 114.254 379.44 114.254 376.176C114.254 373.848 112.718 372.36 110.726 371.808V371.688C112.598 370.944 113.678 369.552 113.678 367.632C113.678 364.608 111.35 362.904 107.918 362.904C105.83 362.904 104.126 363.744 102.59 365.088L104.39 367.248C105.446 366.264 106.478 365.688 107.75 365.688C109.262 365.688 110.126 366.504 110.126 367.896C110.126 369.48 109.07 370.608 105.806 370.608V373.128C109.67 373.128 110.702 374.232 110.702 375.96C110.702 377.568 109.478 378.456 107.678 378.456C106.07 378.456 104.774 377.664 103.718 376.632L102.062 378.864C103.31 380.28 105.206 381.336 108.014 381.336Z" fill="black"/>
<path d="M1.456 424H3.824V418.88H8.304V424H10.656V412.16H8.304V416.832H3.824V412.16H1.456V424ZM17.4854 424H19.6774V412.464H16.8454L12.4454 419.52V421.136H21.0854V419.328H14.7334L16.5574 416.432C16.8934 415.776 17.2134 415.184 17.5174 414.56H17.5814C17.5494 415.248 17.4854 416.352 17.4854 417.04V424Z" fill="black" fill-opacity="0.87"/>
<path d="M30.588 423H37.532V421.264H35.264C34.774 421.264 34.088 421.334 33.57 421.39C35.418 419.458 37.056 417.624 37.056 415.874C37.056 413.956 35.74 412.724 33.794 412.724C32.38 412.724 31.442 413.27 30.49 414.292L31.624 415.412C32.156 414.852 32.758 414.334 33.528 414.334C34.522 414.334 35.068 414.95 35.068 415.972C35.068 417.484 33.29 419.234 30.588 421.824V423ZM42.3878 423.196C44.5018 423.196 45.8878 421.348 45.8878 417.918C45.8878 414.502 44.5018 412.724 42.3878 412.724C40.2458 412.724 38.8738 414.488 38.8738 417.918C38.8738 421.348 40.2458 423.196 42.3878 423.196ZM42.3878 421.586C41.4918 421.586 40.8198 420.732 40.8198 417.918C40.8198 415.104 41.4918 414.32 42.3878 414.32C43.2838 414.32 43.9418 415.104 43.9418 417.918C43.9418 420.732 43.2838 421.586 42.3878 421.586ZM47.6216 426.01H49.6796V423.63L49.6096 422.356C50.1976 422.902 50.8696 423.196 51.5416 423.196C53.2636 423.196 54.8736 421.656 54.8736 418.968C54.8736 416.546 53.7256 414.978 51.7936 414.978C50.9536 414.978 50.1416 415.412 49.4976 415.986H49.4556L49.2876 415.174H47.6216V426.01ZM51.0936 421.502C50.6736 421.502 50.1696 421.362 49.6796 420.928V417.47C50.2116 416.924 50.6876 416.658 51.2056 416.658C52.2976 416.658 52.7596 417.484 52.7596 418.996C52.7596 420.69 52.0316 421.502 51.0936 421.502ZM55.2842 423H57.4262L58.1402 421.558C58.3642 421.096 58.5742 420.634 58.7982 420.2H58.8682C59.1342 420.634 59.3862 421.11 59.6382 421.558L60.5062 423H62.7182L60.2542 419.15L62.5502 415.174H60.4222L59.7782 416.546C59.5822 417.008 59.3862 417.442 59.2042 417.89H59.1342C58.8962 417.442 58.6582 417.008 58.4482 416.546L57.6502 415.174H55.4522L57.7482 418.926L55.2842 423Z" fill="black" fill-opacity="0.6"/>
<path d="M5.02 444.56H8.78V446.32H5.02V444.56ZM5.02 440.96H8.78V442.64H5.02V440.96ZM14.74 442.64H11.08V440.96H14.74V442.64ZM14.74 446.32H11.08V444.56H14.74V446.32ZM7.64 449.68C9.08 450.44 10.76 451.68 11.54 452.54L13.24 450.92C12.42 450.08 10.88 449.06 9.54 448.38H17.1V438.9H2.78V448.38H9.04L7.64 449.68ZM2.92 455.6C3.88 454.28 4.56 452.26 5.04 450.56L2.88 449.78C2.46 451.42 1.7 453.22 0.78 454.42L2.92 455.6ZM9.24 454.22C8.24 454.22 8.06 454.14 8.06 453.54V450.28H5.66V453.56C5.66 455.68 6.32 456.38 8.96 456.38H12.28C14.36 456.38 15.06 455.66 15.32 452.82C14.68 452.68 13.66 452.3 13.18 451.94C13.06 453.92 12.9 454.22 12.08 454.22H9.24ZM14.54 450.54C15.62 452.1 16.64 454.14 16.98 455.48L19.3 454.5C18.9 453.1 17.78 451.16 16.66 449.66L14.54 450.54ZM26.26 440.14C25.48 439.62 23.94 438.76 22.92 438.2L21.56 439.9C22.6 440.54 24.1 441.48 24.8 442.04L26.26 440.14ZM25.28 445.42C24.5 444.9 22.96 444.08 21.96 443.58L20.62 445.28C21.64 445.9 23.14 446.78 23.86 447.34L25.28 445.42ZM23.66 448.78C22.8 451.12 21.68 453.64 20.84 455.2L23.02 456.5C23.92 454.52 24.84 452.22 25.6 450.08L23.66 448.78ZM29.98 450.96C29.48 452.2 28.68 453.58 27.92 454.54C28.44 454.8 29.34 455.32 29.78 455.68C30.52 454.66 31.46 453 32.08 451.56L29.98 450.96ZM31.74 447.34H36.36V448.46H31.74V447.34ZM31.74 444.64H36.36V445.74H31.74V444.64ZM38.56 450.16V442.94H34.74C34.98 442.52 35.24 442.08 35.5 441.64L33.28 441.24H39.12V439.1H26.64V444.62C26.64 447.86 26.44 452.4 24.2 455.48C24.78 455.74 25.78 456.38 26.2 456.76C28.58 453.44 28.94 448.16 28.94 444.62V441.24H32.8C32.68 441.76 32.5 442.36 32.3 442.94H29.64V450.16H32.8V454.42C32.8 454.64 32.72 454.7 32.48 454.7C32.24 454.7 31.44 454.7 30.74 454.68C31 455.26 31.26 456.1 31.36 456.72C32.58 456.74 33.52 456.7 34.2 456.38C34.9 456.06 35.06 455.5 35.06 454.48V450.16H38.56ZM35.62 451.52C36.26 452.78 37.06 454.46 37.42 455.5L39.62 454.54C39.2 453.56 38.32 451.94 37.68 450.74L35.62 451.52ZM53.04 444.32C53.46 443.6 53.94 442.54 54.44 441.5L52.68 440.88C52.44 441.74 51.98 442.98 51.58 443.76L53.04 444.32ZM45.66 441.46C46.14 442.34 46.56 443.5 46.68 444.24L48.24 443.64C48.1 442.88 47.64 441.78 47.12 440.94L45.66 441.46ZM45.2 444.46V440.64H48.8V444.46H45.2ZM54.68 444.46H51.18V440.64H54.68V444.46ZM58.94 450.22H51.18V449.2H57.36V447.34H51.18V446.38H57.08V438.72H42.94V446.38H48.8V447.34H42.64V449.2H48.8V450.22H41.08V452.3H58.94V450.22ZM43.2 456.84C44.1 455.88 44.92 454.44 45.36 453.1L43.02 452.52C42.56 453.76 41.76 455.1 40.92 455.84L43.2 456.84ZM46.54 453.28C46.72 454.36 46.8 455.76 46.8 456.64L49.14 456.34C49.14 455.5 48.98 454.12 48.76 453.06L46.54 453.28ZM50.54 453.34C50.94 454.4 51.34 455.78 51.46 456.64L53.86 456.1C53.7 455.26 53.24 453.9 52.8 452.9L50.54 453.34ZM54.46 453.24C55.34 454.34 56.38 455.86 56.8 456.82L59.18 455.98C58.68 455 57.58 453.54 56.7 452.5L54.46 453.24ZM76.98 441.98H75.92V441.06H76.98V441.98ZM76.98 444.36H75.92V443.42H76.98V444.36ZM71.06 443.42H72.08V444.36H71.06V443.42ZM71.06 441.06H72.08V441.98H71.06V441.06ZM74.48 443.42V444.36H73.52V443.42H74.48ZM73.52 441.98V441.06H74.48V441.98H73.52ZM78.82 439.5H76.24V438.08H74.38V439.5H73.5V438.08H71.66V439.5H69.3V445.92H78.82V439.5ZM79.2 446.6H69V448.3H79.2V446.6ZM63.74 449.98C64.32 450.42 64.94 450.96 65.28 451.3L66.08 450.42V451.3C65.18 451.74 64.36 452.14 63.68 452.42C63.72 451.76 63.74 451.16 63.74 450.58V449.98ZM63.44 440.36H66.16V441.18H64.22V444.38H63.44V440.36ZM65.42 444.38V442.52H66.16V444.38H65.42ZM67.14 446.78H62.56V445.98H67.14V446.78ZM63.74 448.32H66.08V449.96C65.64 449.6 65 449.16 64.42 448.78L63.74 449.46V448.32ZM68.94 447.48V444.38H68.1V438.68H61.6V444.38H60.84V447.48H61.82V450.54C61.82 452.14 61.74 454.16 60.76 455.66C61.2 455.86 62.08 456.46 62.42 456.8C63.12 455.76 63.46 454.32 63.62 452.96L64.14 454.08C64.78 453.7 65.42 453.28 66.08 452.84V454.66C66.08 454.84 66.02 454.92 65.82 454.92C65.64 454.92 65.04 454.92 64.48 454.9C64.72 455.38 64.96 456.14 65.02 456.64C66.08 456.64 66.82 456.62 67.34 456.32C67.9 456.02 68.04 455.54 68.04 454.68V447.48H68.94ZM75.46 452.86C75.3 453.42 75.04 454.1 74.8 454.7H73.18C73 454.14 72.74 453.46 72.5 452.86H75.46ZM71.84 450.4H76.18V451.44H71.84V450.4ZM76.76 454.7C77.04 454.26 77.32 453.78 77.64 453.28L76.1 452.86H78.38V448.96H69.78V452.86H71.88L70.62 453.24C70.82 453.68 71 454.2 71.16 454.7H68.8V456.42H79.36V454.7H76.76ZM87.8113 448.92L90.1113 445.24C90.5313 444.44 90.9313 443.62 91.2913 442.82H91.3713C91.3313 443.7 91.2713 445.04 91.2713 445.9V448.92H87.8113ZM91.2713 455H94.0113V451.16H95.7513V448.92H94.0113V440.18H90.4713L84.9513 449.16V451.16H91.2713V455Z" fill="black"/>
<path d="M1.456 498H3.824V492.88H8.304V498H10.656V486.16H8.304V490.832H3.824V486.16H1.456V498ZM16.5254 498.224C18.7014 498.224 20.6694 496.768 20.6694 494.224C20.6694 491.76 19.0054 490.64 17.0214 490.64C16.4774 490.64 16.0614 490.736 15.5974 490.96L15.8214 488.448H20.1254V486.464H13.7894L13.4534 492.224L14.5414 492.928C15.2294 492.48 15.6134 492.288 16.3174 492.288C17.5014 492.288 18.3014 493.024 18.3014 494.288C18.3014 495.584 17.4534 496.32 16.2054 496.32C15.1174 496.32 14.2694 495.776 13.6134 495.12L12.5094 496.608C13.4054 497.488 14.6534 498.224 16.5254 498.224Z" fill="black" fill-opacity="0.87"/>
<path d="M31.134 497H37.378V495.334H35.432V486.906H33.906C33.234 487.312 32.534 487.578 31.484 487.788V489.062H33.374V495.334H31.134V497ZM42.3738 497.196C44.4598 497.196 45.8598 496.006 45.8598 494.438C45.8598 493.08 45.0618 492.324 44.1238 491.792V491.722C44.7818 491.26 45.4538 490.448 45.4538 489.468C45.4538 487.816 44.2778 486.724 42.4438 486.724C40.6378 486.724 39.3078 487.774 39.3078 489.454C39.3078 490.504 39.9098 491.246 40.6798 491.82V491.876C39.7418 492.38 38.9158 493.178 38.9158 494.438C38.9158 496.062 40.3858 497.196 42.3738 497.196ZM43.0318 491.232C41.9538 490.798 41.1278 490.378 41.1278 489.454C41.1278 488.614 41.6878 488.166 42.4018 488.166C43.2558 488.166 43.7738 488.754 43.7738 489.594C43.7738 490.182 43.5078 490.714 43.0318 491.232ZM42.4158 495.74C41.4498 495.74 40.6798 495.138 40.6798 494.2C40.6798 493.486 41.0858 492.87 41.6458 492.436C42.9618 492.996 43.9418 493.346 43.9418 494.354C43.9418 495.25 43.3118 495.74 42.4158 495.74ZM47.6216 500.01H49.6796V497.63L49.6096 496.356C50.1976 496.902 50.8696 497.196 51.5416 497.196C53.2636 497.196 54.8736 495.656 54.8736 492.968C54.8736 490.546 53.7256 488.978 51.7936 488.978C50.9536 488.978 50.1416 489.412 49.4976 489.986H49.4556L49.2876 489.174H47.6216V500.01ZM51.0936 495.502C50.6736 495.502 50.1696 495.362 49.6796 494.928V491.47C50.2116 490.924 50.6876 490.658 51.2056 490.658C52.2976 490.658 52.7596 491.484 52.7596 492.996C52.7596 494.69 52.0316 495.502 51.0936 495.502ZM55.2842 497H57.4262L58.1402 495.558C58.3642 495.096 58.5742 494.634 58.7982 494.2H58.8682C59.1342 494.634 59.3862 495.11 59.6382 495.558L60.5062 497H62.7182L60.2542 493.15L62.5502 489.174H60.4222L59.7782 490.546C59.5822 491.008 59.3862 491.442 59.2042 491.89H59.1342C58.8962 491.442 58.6582 491.008 58.4482 490.546L57.6502 489.174H55.4522L57.7482 492.926L55.2842 497Z" fill="black" fill-opacity="0.6"/>
<path d="M4.518 516.604H7.902V518.188H4.518V516.604ZM4.518 513.364H7.902V514.876H4.518V513.364ZM13.266 514.876H9.972V513.364H13.266V514.876ZM13.266 518.188H9.972V516.604H13.266V518.188ZM6.876 521.212C8.172 521.896 9.684 523.012 10.386 523.786L11.916 522.328C11.178 521.572 9.792 520.654 8.586 520.042H15.39V511.51H2.502V520.042H8.136L6.876 521.212ZM2.628 526.54C3.492 525.352 4.104 523.534 4.536 522.004L2.592 521.302C2.214 522.778 1.53 524.398 0.702 525.478L2.628 526.54ZM8.316 525.298C7.416 525.298 7.254 525.226 7.254 524.686V521.752H5.094V524.704C5.094 526.612 5.688 527.242 8.064 527.242H11.052C12.924 527.242 13.554 526.594 13.788 524.038C13.212 523.912 12.294 523.57 11.862 523.246C11.754 525.028 11.61 525.298 10.872 525.298H8.316ZM13.086 521.986C14.058 523.39 14.976 525.226 15.282 526.432L17.37 525.55C17.01 524.29 16.002 522.544 14.994 521.194L13.086 521.986ZM23.634 512.626C22.932 512.158 21.546 511.384 20.628 510.88L19.404 512.41C20.34 512.986 21.69 513.832 22.32 514.336L23.634 512.626ZM22.752 517.378C22.05 516.91 20.664 516.172 19.764 515.722L18.558 517.252C19.476 517.81 20.826 518.602 21.474 519.106L22.752 517.378ZM21.294 520.402C20.52 522.508 19.512 524.776 18.756 526.18L20.718 527.35C21.528 525.568 22.356 523.498 23.04 521.572L21.294 520.402ZM26.982 522.364C26.532 523.48 25.812 524.722 25.128 525.586C25.596 525.82 26.406 526.288 26.802 526.612C27.468 525.694 28.314 524.2 28.872 522.904L26.982 522.364ZM28.566 519.106H32.724V520.114H28.566V519.106ZM28.566 516.676H32.724V517.666H28.566V516.676ZM34.704 521.644V515.146H31.266C31.482 514.768 31.716 514.372 31.95 513.976L29.952 513.616H35.208V511.69H23.976V516.658C23.976 519.574 23.796 523.66 21.78 526.432C22.302 526.666 23.202 527.242 23.58 527.584C25.722 524.596 26.046 519.844 26.046 516.658V513.616H29.52C29.412 514.084 29.25 514.624 29.07 515.146H26.676V521.644H29.52V525.478C29.52 525.676 29.448 525.73 29.232 525.73C29.016 525.73 28.296 525.73 27.666 525.712C27.9 526.234 28.134 526.99 28.224 527.548C29.322 527.566 30.168 527.53 30.78 527.242C31.41 526.954 31.554 526.45 31.554 525.532V521.644H34.704ZM32.058 522.868C32.634 524.002 33.354 525.514 33.678 526.45L35.658 525.586C35.28 524.704 34.488 523.246 33.912 522.166L32.058 522.868ZM47.736 516.388C48.114 515.74 48.546 514.786 48.996 513.85L47.412 513.292C47.196 514.066 46.782 515.182 46.422 515.884L47.736 516.388ZM41.094 513.814C41.526 514.606 41.904 515.65 42.012 516.316L43.416 515.776C43.29 515.092 42.876 514.102 42.408 513.346L41.094 513.814ZM40.68 516.514V513.076H43.92V516.514H40.68ZM49.212 516.514H46.062V513.076H49.212V516.514ZM53.046 521.698H46.062V520.78H51.624V519.106H46.062V518.242H51.372V511.348H38.646V518.242H43.92V519.106H38.376V520.78H43.92V521.698H36.972V523.57H53.046V521.698ZM38.88 527.656C39.69 526.792 40.428 525.496 40.824 524.29L38.718 523.768C38.304 524.884 37.584 526.09 36.828 526.756L38.88 527.656ZM41.886 524.452C42.048 525.424 42.12 526.684 42.12 527.476L44.226 527.206C44.226 526.45 44.082 525.208 43.884 524.254L41.886 524.452ZM45.486 524.506C45.846 525.46 46.206 526.702 46.314 527.476L48.474 526.99C48.33 526.234 47.916 525.01 47.52 524.11L45.486 524.506ZM49.014 524.416C49.806 525.406 50.742 526.774 51.12 527.638L53.262 526.882C52.812 526 51.822 524.686 51.03 523.75L49.014 524.416ZM69.282 514.282H68.328V513.454H69.282V514.282ZM69.282 516.424H68.328V515.578H69.282V516.424ZM63.954 515.578H64.872V516.424H63.954V515.578ZM63.954 513.454H64.872V514.282H63.954V513.454ZM67.032 515.578V516.424H66.168V515.578H67.032ZM66.168 514.282V513.454H67.032V514.282H66.168ZM70.938 512.05H68.616V510.772H66.942V512.05H66.15V510.772H64.494V512.05H62.37V517.828H70.938V512.05ZM71.28 518.44H62.1V519.97H71.28V518.44ZM57.366 521.482C57.888 521.878 58.446 522.364 58.752 522.67L59.472 521.878V522.67C58.662 523.066 57.924 523.426 57.312 523.678C57.348 523.084 57.366 522.544 57.366 522.022V521.482ZM57.096 512.824H59.544V513.562H57.798V516.442H57.096V512.824ZM58.878 516.442V514.768H59.544V516.442H58.878ZM60.426 518.602H56.304V517.882H60.426V518.602ZM57.366 519.988H59.472V521.464C59.076 521.14 58.5 520.744 57.978 520.402L57.366 521.014V519.988ZM62.046 519.232V516.442H61.29V511.312H55.44V516.442H54.756V519.232H55.638V521.986C55.638 523.426 55.566 525.244 54.684 526.594C55.08 526.774 55.872 527.314 56.178 527.62C56.808 526.684 57.114 525.388 57.258 524.164L57.726 525.172C58.302 524.83 58.878 524.452 59.472 524.056V525.694C59.472 525.856 59.418 525.928 59.238 525.928C59.076 525.928 58.536 525.928 58.032 525.91C58.248 526.342 58.464 527.026 58.518 527.476C59.472 527.476 60.138 527.458 60.606 527.188C61.11 526.918 61.236 526.486 61.236 525.712V519.232H62.046ZM67.914 524.074C67.77 524.578 67.536 525.19 67.32 525.73H65.862C65.7 525.226 65.466 524.614 65.25 524.074H67.914ZM64.656 521.86H68.562V522.796H64.656V521.86ZM69.084 525.73C69.336 525.334 69.588 524.902 69.876 524.452L68.49 524.074H70.542V520.564H62.802V524.074H64.692L63.558 524.416C63.738 524.812 63.9 525.28 64.044 525.73H61.92V527.278H71.424V525.73H69.084ZM81.0461 526.252C83.5121 526.252 85.7081 524.542 85.7081 521.572C85.7081 518.674 83.8361 517.342 81.6041 517.342C80.9921 517.342 80.5421 517.468 80.0021 517.72L80.2541 514.894H85.0961V512.662H77.9681L77.6081 519.142L78.8141 519.934C79.5881 519.43 80.0201 519.232 80.8121 519.232C82.1621 519.232 83.0621 520.096 83.0621 521.644C83.0621 523.21 82.0901 524.092 80.7041 524.092C79.4621 524.092 78.5261 523.48 77.7701 522.742L76.5461 524.434C77.5361 525.424 78.9401 526.252 81.0461 526.252Z" fill="black"/>
<path d="M300.844 157H298.422V147.594H295.32V145.578H303.945V147.594H300.844V157ZM305.414 146.008C305.414 145.232 305.846 144.844 306.711 144.844C307.576 144.844 308.008 145.232 308.008 146.008C308.008 146.378 307.898 146.667 307.68 146.875C307.466 147.078 307.143 147.18 306.711 147.18C305.846 147.18 305.414 146.789 305.414 146.008ZM307.898 157H305.516V148.266H307.898V157ZM314.086 155.258C314.503 155.258 315.003 155.167 315.586 154.984V156.758C314.992 157.023 314.263 157.156 313.398 157.156C312.445 157.156 311.75 156.917 311.312 156.438C310.88 155.953 310.664 155.229 310.664 154.266V150.055H309.523V149.047L310.836 148.25L311.523 146.406H313.047V148.266H315.492V150.055H313.047V154.266C313.047 154.604 313.141 154.854 313.328 155.016C313.521 155.177 313.773 155.258 314.086 155.258ZM319.742 157H317.359V144.844H319.742V157ZM325.867 149.797C325.362 149.797 324.966 149.958 324.68 150.281C324.393 150.599 324.229 151.052 324.188 151.641H327.531C327.521 151.052 327.367 150.599 327.07 150.281C326.773 149.958 326.372 149.797 325.867 149.797ZM326.203 157.156C324.797 157.156 323.698 156.768 322.906 155.992C322.115 155.216 321.719 154.117 321.719 152.695C321.719 151.232 322.083 150.102 322.812 149.305C323.547 148.503 324.56 148.102 325.852 148.102C327.086 148.102 328.047 148.453 328.734 149.156C329.422 149.859 329.766 150.831 329.766 152.07V153.227H324.133C324.159 153.904 324.359 154.432 324.734 154.812C325.109 155.193 325.635 155.383 326.312 155.383C326.839 155.383 327.336 155.328 327.805 155.219C328.273 155.109 328.763 154.935 329.273 154.695V156.539C328.857 156.747 328.411 156.901 327.938 157C327.464 157.104 326.885 157.156 326.203 157.156Z" fill="black" fill-opacity="0.87"/>
<path d="M340.148 157H346.378V155.334H344.432V146.906H342.906C342.248 147.312 341.534 147.578 340.498 147.774V149.048H342.374V155.334H340.148V157ZM351.542 152.184C352.438 152.184 353.026 152.702 353.026 153.836C353.026 155.04 352.396 155.642 351.612 155.642C350.758 155.642 350.058 154.998 349.862 153.29C350.38 152.478 351.01 152.184 351.542 152.184ZM351.654 157.196C353.432 157.196 354.916 155.908 354.916 153.836C354.916 151.722 353.67 150.728 351.934 150.728C351.262 150.728 350.38 151.148 349.806 151.862C349.89 149.258 350.87 148.376 352.06 148.376C352.662 148.376 353.292 148.712 353.656 149.118L354.748 147.886C354.132 147.242 353.208 146.71 351.948 146.71C349.848 146.71 347.93 148.376 347.93 152.226C347.93 155.684 349.694 157.196 351.654 157.196ZM356.594 160.01H358.652V157.63L358.582 156.342C359.184 156.888 359.842 157.196 360.528 157.196C362.25 157.196 363.86 155.642 363.86 152.954C363.86 150.546 362.712 148.964 360.78 148.964C359.94 148.964 359.128 149.412 358.47 149.972H358.428L358.274 149.16H356.594V160.01ZM360.066 155.502C359.646 155.502 359.142 155.348 358.652 154.914V151.47C359.184 150.924 359.66 150.658 360.192 150.658C361.27 150.658 361.746 151.484 361.746 152.982C361.746 154.69 361.018 155.502 360.066 155.502ZM364.326 157H366.454L367.182 155.558C367.406 155.096 367.616 154.634 367.84 154.186H367.91C368.162 154.634 368.414 155.11 368.666 155.558L369.534 157H371.746L369.296 153.15L371.592 149.16H369.464L368.806 150.546C368.624 150.994 368.414 151.442 368.232 151.876H368.176C367.938 151.442 367.7 150.994 367.476 150.546L366.692 149.16H364.48L366.776 152.912L364.326 157Z" fill="black" fill-opacity="0.6"/>
<path d="M299.512 180.256V182.88C299.512 184.592 300.024 185.136 302.152 185.136C302.568 185.136 304.376 185.136 304.824 185.136C306.52 185.136 307.064 184.56 307.288 182.272C306.76 182.16 305.944 181.856 305.544 181.568C305.448 183.168 305.336 183.392 304.664 183.392C304.2 183.392 302.728 183.392 302.376 183.392C301.592 183.392 301.448 183.344 301.448 182.864V180.256H299.512ZM301.096 179.76C302.232 180.384 303.592 181.36 304.216 182.064L305.592 180.752C304.904 180.032 303.496 179.136 302.36 178.576L301.096 179.76ZM306.664 180.448C307.512 181.696 308.344 183.344 308.616 184.416L310.488 183.632C310.168 182.496 309.256 180.928 308.376 179.744L306.664 180.448ZM297.256 179.84C296.92 181.152 296.312 182.608 295.576 183.568L297.288 184.528C298.056 183.456 298.616 181.84 298.984 180.464L297.256 179.84ZM298.984 175.664H306.792V177.04H298.984V175.664ZM298.984 172.752H306.792V174.112H298.984V172.752ZM297.176 171.088V178.704H308.696V171.088H297.176ZM301.992 171.824V178.016H303.864V171.824H301.992ZM316.856 171.248V172.976H326.328V171.248H316.856ZM316.28 171.248V175.68C316.28 178.288 316.12 181.936 314.328 184.432C314.776 184.624 315.592 185.136 315.944 185.456C317.848 182.784 318.136 178.528 318.136 175.68V171.248H316.28ZM320.408 177.888H324.104V178.768H320.408V177.888ZM320.408 175.728H324.104V176.592H320.408V175.728ZM318.696 174.352V180.144H325.88V174.352H318.696ZM318.968 180.784C318.568 181.776 317.944 182.896 317.32 183.648C317.736 183.872 318.456 184.304 318.824 184.576C319.416 183.744 320.184 182.416 320.664 181.264L318.968 180.784ZM323.512 181.232C324.04 182.256 324.68 183.616 324.968 184.432L326.728 183.664C326.408 182.88 325.704 181.568 325.176 180.592L323.512 181.232ZM321.256 172.912C321.144 173.456 320.904 174.24 320.68 174.8L322.216 175.216C322.568 174.752 323 174.032 323.432 173.296L321.256 172.912ZM321.24 179.568V183.584C321.24 183.744 321.176 183.792 321 183.808C320.808 183.808 320.152 183.808 319.592 183.792C319.8 184.256 320.024 184.944 320.088 185.424C321.08 185.44 321.832 185.424 322.376 185.168C322.952 184.912 323.064 184.448 323.064 183.632V179.568H321.24ZM312.2 171.904C313.032 172.416 314.248 173.168 314.824 173.632L315.976 172.096C315.352 171.664 314.12 170.976 313.32 170.544L312.2 171.904ZM311.432 176.24C312.264 176.72 313.464 177.44 314.056 177.872L315.192 176.32C314.568 175.92 313.336 175.264 312.536 174.848L311.432 176.24ZM311.64 184.208L313.384 185.232C314.104 183.648 314.84 181.808 315.448 180.08L313.88 179.024C313.208 180.912 312.296 182.944 311.64 184.208ZM331.144 172.496H338.744V175.552H331.144V172.496ZM329.32 170.944V177.104H340.68V170.944H329.32ZM331.512 173.152C331.88 173.856 332.216 174.784 332.312 175.376L333.576 174.896C333.464 174.288 333.096 173.408 332.696 172.736L331.512 173.152ZM329.08 177.872V179.376H340.904V177.872H329.08ZM327.816 180.176V181.856H342.184V180.176H327.816ZM334.008 171.584V181.056H335.944V171.584H334.008ZM337.144 172.688C336.952 173.376 336.568 174.368 336.248 174.992L337.432 175.44C337.768 174.864 338.168 174 338.568 173.184L337.144 172.688ZM332.2 182.64C332.344 183.52 332.408 184.656 332.408 185.344L334.296 185.12C334.296 184.448 334.168 183.328 333.992 182.464L332.2 182.64ZM335.416 182.704C335.736 183.552 336.056 184.672 336.152 185.36L338.088 184.912C337.96 184.224 337.592 183.152 337.24 182.336L335.416 182.704ZM338.584 182.608C339.272 183.504 340.104 184.736 340.44 185.504L342.376 184.832C341.976 184.032 341.08 182.864 340.376 182.016L338.584 182.608ZM329.384 182.032C329.016 183.04 328.36 184.112 327.688 184.704L329.528 185.504C330.264 184.752 330.92 183.584 331.272 182.496L329.384 182.032ZM350.2 177.296V178.656H358.376V177.296H350.2ZM350.024 183.808V185.2H358.52V183.808H350.024ZM352.328 170.432V172.528H353.816V170.432H352.328ZM354.504 170.432V172.528H356.008V170.432H354.504ZM351.848 174.72H356.6V175.472H351.848V174.72ZM351.848 172.832H356.6V173.568H351.848V172.832ZM350.44 171.568V176.72H358.072V171.568H350.44ZM352.472 180.352H355.96V181.184H352.472V180.352ZM350.808 179.184V182.336H357.736V179.184H350.808ZM355.432 182.192C355.272 182.768 354.952 183.584 354.68 184.144L355.912 184.576C356.248 184.112 356.68 183.376 357.144 182.656L355.432 182.192ZM351.496 182.64C351.736 183.216 352.008 184.016 352.12 184.512L353.624 184C353.48 183.52 353.192 182.768 352.936 182.192L351.496 182.64ZM352.664 172.272V176.224H353.832V172.272H352.664ZM354.6 172.272V176.224H355.768V172.272H354.6ZM345.128 177.44V178.688H348.68V177.44H345.128ZM347.832 177.44V183.76C347.832 183.92 347.784 183.968 347.624 183.968C347.48 183.968 347 183.968 346.536 183.952C346.728 184.352 346.936 184.96 347 185.376C347.832 185.376 348.424 185.344 348.856 185.12C349.304 184.88 349.416 184.48 349.416 183.792V177.44H347.832ZM344.248 170.912V176.08H345.72V172.272H347.896V176.08H349.464V170.912H344.248ZM343.624 175.488V178H345V176.784H348.696V178H350.136V175.488H343.624ZM346.328 172.928V175.92H347.304V174H348.936V172.928H346.328ZM344.408 177.44V180.464C344.408 181.728 344.344 183.376 343.56 184.56C343.928 184.736 344.616 185.216 344.904 185.488C345.816 184.128 345.96 182.016 345.96 180.48V177.44H344.408ZM345.704 182.048L346.28 183.312C347.08 182.8 347.928 182.256 348.824 181.68L348.536 180.752C347.464 181.264 346.44 181.76 345.704 182.048ZM345.72 179.84C346.232 180.192 346.888 180.752 347.192 181.088L348.024 180.16C347.688 179.84 347.048 179.392 346.504 179.04L345.72 179.84Z" fill="black"/>
<path d="M303.18 221.828C303.18 222.859 302.807 223.672 302.062 224.266C301.323 224.859 300.292 225.156 298.969 225.156C297.75 225.156 296.672 224.927 295.734 224.469V222.219C296.505 222.562 297.156 222.805 297.688 222.945C298.224 223.086 298.714 223.156 299.156 223.156C299.688 223.156 300.094 223.055 300.375 222.852C300.661 222.648 300.805 222.346 300.805 221.945C300.805 221.721 300.742 221.523 300.617 221.352C300.492 221.174 300.307 221.005 300.062 220.844C299.823 220.682 299.331 220.424 298.586 220.07C297.888 219.742 297.365 219.427 297.016 219.125C296.667 218.823 296.388 218.471 296.18 218.07C295.971 217.669 295.867 217.201 295.867 216.664C295.867 215.654 296.208 214.859 296.891 214.281C297.578 213.703 298.526 213.414 299.734 213.414C300.328 213.414 300.893 213.484 301.43 213.625C301.971 213.766 302.536 213.964 303.125 214.219L302.344 216.102C301.734 215.852 301.229 215.677 300.828 215.578C300.432 215.479 300.042 215.43 299.656 215.43C299.198 215.43 298.846 215.536 298.602 215.75C298.357 215.964 298.234 216.242 298.234 216.586C298.234 216.799 298.284 216.987 298.383 217.148C298.482 217.305 298.638 217.458 298.852 217.609C299.07 217.755 299.583 218.021 300.391 218.406C301.458 218.917 302.19 219.43 302.586 219.945C302.982 220.456 303.18 221.083 303.18 221.828ZM311.25 225L310.93 223.883H310.805C310.549 224.289 310.188 224.604 309.719 224.828C309.25 225.047 308.716 225.156 308.117 225.156C307.091 225.156 306.318 224.883 305.797 224.336C305.276 223.784 305.016 222.992 305.016 221.961V216.266H307.398V221.367C307.398 221.997 307.51 222.471 307.734 222.789C307.958 223.102 308.315 223.258 308.805 223.258C309.471 223.258 309.953 223.036 310.25 222.594C310.547 222.146 310.695 221.406 310.695 220.375V216.266H313.078V225H311.25ZM320.438 216.102C321.469 216.102 322.276 216.505 322.859 217.312C323.443 218.115 323.734 219.216 323.734 220.617C323.734 222.06 323.432 223.177 322.828 223.969C322.229 224.76 321.411 225.156 320.375 225.156C319.349 225.156 318.544 224.784 317.961 224.039H317.797L317.398 225H315.578V212.844H317.961V215.672C317.961 216.031 317.93 216.607 317.867 217.398H317.961C318.518 216.534 319.344 216.102 320.438 216.102ZM319.672 218.008C319.083 218.008 318.654 218.19 318.383 218.555C318.112 218.914 317.971 219.51 317.961 220.344V220.602C317.961 221.539 318.099 222.211 318.375 222.617C318.656 223.023 319.099 223.227 319.703 223.227C320.193 223.227 320.581 223.003 320.867 222.555C321.159 222.102 321.305 221.445 321.305 220.586C321.305 219.727 321.159 219.083 320.867 218.656C320.576 218.224 320.177 218.008 319.672 218.008ZM329.383 223.258C329.799 223.258 330.299 223.167 330.883 222.984V224.758C330.289 225.023 329.56 225.156 328.695 225.156C327.742 225.156 327.047 224.917 326.609 224.438C326.177 223.953 325.961 223.229 325.961 222.266V218.055H324.82V217.047L326.133 216.25L326.82 214.406H328.344V216.266H330.789V218.055H328.344V222.266C328.344 222.604 328.438 222.854 328.625 223.016C328.818 223.177 329.07 223.258 329.383 223.258ZM332.555 214.008C332.555 213.232 332.987 212.844 333.852 212.844C334.716 212.844 335.148 213.232 335.148 214.008C335.148 214.378 335.039 214.667 334.82 214.875C334.607 215.078 334.284 215.18 333.852 215.18C332.987 215.18 332.555 214.789 332.555 214.008ZM335.039 225H332.656V216.266H335.039V225ZM341.227 223.258C341.643 223.258 342.143 223.167 342.727 222.984V224.758C342.133 225.023 341.404 225.156 340.539 225.156C339.586 225.156 338.891 224.917 338.453 224.438C338.021 223.953 337.805 223.229 337.805 222.266V218.055H336.664V217.047L337.977 216.25L338.664 214.406H340.188V216.266H342.633V218.055H340.188V222.266C340.188 222.604 340.281 222.854 340.469 223.016C340.661 223.177 340.914 223.258 341.227 223.258ZM346.883 225H344.5V212.844H346.883V225ZM353.008 217.797C352.503 217.797 352.107 217.958 351.82 218.281C351.534 218.599 351.37 219.052 351.328 219.641H354.672C354.661 219.052 354.508 218.599 354.211 218.281C353.914 217.958 353.513 217.797 353.008 217.797ZM353.344 225.156C351.938 225.156 350.839 224.768 350.047 223.992C349.255 223.216 348.859 222.117 348.859 220.695C348.859 219.232 349.224 218.102 349.953 217.305C350.688 216.503 351.701 216.102 352.992 216.102C354.227 216.102 355.188 216.453 355.875 217.156C356.562 217.859 356.906 218.831 356.906 220.07V221.227H351.273C351.299 221.904 351.5 222.432 351.875 222.812C352.25 223.193 352.776 223.383 353.453 223.383C353.979 223.383 354.477 223.328 354.945 223.219C355.414 223.109 355.904 222.935 356.414 222.695V224.539C355.997 224.747 355.552 224.901 355.078 225C354.604 225.104 354.026 225.156 353.344 225.156Z" fill="black" fill-opacity="0.87"/>
<path d="M367.134 225H373.378V223.334H371.432V214.906H369.906C369.234 215.312 368.534 215.578 367.484 215.788V217.062H369.374V223.334H367.134V225ZM378.962 225H380.88V214.906H378.402L374.552 221.08V222.494H382.112V220.912H376.554L378.15 218.378C378.444 217.804 378.724 217.286 378.99 216.74H379.046C379.018 217.342 378.962 218.308 378.962 218.91V225ZM383.622 228.01H385.68V225.63L385.61 224.356C386.198 224.902 386.87 225.196 387.542 225.196C389.264 225.196 390.874 223.656 390.874 220.968C390.874 218.546 389.726 216.978 387.794 216.978C386.954 216.978 386.142 217.412 385.498 217.986H385.456L385.288 217.174H383.622V228.01ZM387.094 223.502C386.674 223.502 386.17 223.362 385.68 222.928V219.47C386.212 218.924 386.688 218.658 387.206 218.658C388.298 218.658 388.76 219.484 388.76 220.996C388.76 222.69 388.032 223.502 387.094 223.502ZM391.284 225H393.426L394.14 223.558C394.364 223.096 394.574 222.634 394.798 222.2H394.868C395.134 222.634 395.386 223.11 395.638 223.558L396.506 225H398.718L396.254 221.15L398.55 217.174H396.422L395.778 218.546C395.582 219.008 395.386 219.442 395.204 219.89H395.134C394.896 219.442 394.658 219.008 394.448 218.546L393.65 217.174H391.452L393.748 220.926L391.284 225Z" fill="black" fill-opacity="0.6"/>
<path d="M298.948 245.724V248.02C298.948 249.518 299.396 249.994 301.258 249.994C301.622 249.994 303.204 249.994 303.596 249.994C305.08 249.994 305.556 249.49 305.752 247.488C305.29 247.39 304.576 247.124 304.226 246.872C304.142 248.272 304.044 248.468 303.456 248.468C303.05 248.468 301.762 248.468 301.454 248.468C300.768 248.468 300.642 248.426 300.642 248.006V245.724H298.948ZM300.334 245.29C301.328 245.836 302.518 246.69 303.064 247.306L304.268 246.158C303.666 245.528 302.434 244.744 301.44 244.254L300.334 245.29ZM305.206 245.892C305.948 246.984 306.676 248.426 306.914 249.364L308.552 248.678C308.272 247.684 307.474 246.312 306.704 245.276L305.206 245.892ZM296.974 245.36C296.68 246.508 296.148 247.782 295.504 248.622L297.002 249.462C297.674 248.524 298.164 247.11 298.486 245.906L296.974 245.36ZM298.486 241.706H305.318V242.91H298.486V241.706ZM298.486 239.158H305.318V240.348H298.486V239.158ZM296.904 237.702V244.366H306.984V237.702H296.904ZM301.118 238.346V243.764H302.756V238.346H301.118ZM314.124 237.842V239.354H322.412V237.842H314.124ZM313.62 237.842V241.72C313.62 244.002 313.48 247.194 311.912 249.378C312.304 249.546 313.018 249.994 313.326 250.274C314.992 247.936 315.244 244.212 315.244 241.72V237.842H313.62ZM317.232 243.61H320.466V244.394H317.232V243.61ZM317.232 241.72H320.466V242.49H317.232V241.72ZM315.734 240.516V245.598H322.02V240.516H315.734ZM315.972 246.144C315.678 247.096 315.132 248.062 314.488 248.706C314.852 248.902 315.482 249.308 315.79 249.56C316.434 248.818 317.092 247.642 317.456 246.494L315.972 246.144ZM319.948 246.55C320.48 247.446 321.04 248.636 321.236 249.378L322.776 248.72C322.538 247.964 321.922 246.83 321.39 245.976L319.948 246.55ZM317.988 239.004C317.96 239.606 317.82 240.432 317.694 241.02L319.192 241.328C319.388 240.824 319.612 240.068 319.85 239.298L317.988 239.004ZM317.96 245.122V248.636C317.96 248.776 317.904 248.818 317.75 248.832C317.582 248.832 317.008 248.832 316.518 248.818C316.7 249.224 316.896 249.826 316.952 250.246C317.82 250.26 318.478 250.246 318.954 250.022C319.458 249.798 319.556 249.392 319.556 248.678V245.122H317.96ZM310.05 238.416C310.862 238.808 311.87 239.452 312.332 239.928L313.34 238.584C312.836 238.108 311.8 237.548 310.988 237.198L310.05 238.416ZM309.378 242.21C310.19 242.574 311.198 243.176 311.66 243.638L312.654 242.28C312.136 241.832 311.114 241.286 310.316 240.964L309.378 242.21ZM309.56 249.182L311.086 250.078C311.716 248.692 312.36 247.082 312.892 245.57L311.52 244.646C310.932 246.298 310.134 248.076 309.56 249.182ZM326.626 238.934H333.276V241.608H326.626V238.934ZM325.03 237.576V242.966H334.97V237.576H325.03ZM326.948 239.508C327.27 240.124 327.564 240.936 327.648 241.454L328.754 241.034C328.656 240.502 328.334 239.732 327.984 239.144L326.948 239.508ZM324.82 243.638V244.954H335.166V243.638H324.82ZM323.714 245.654V247.124H336.286V245.654H323.714ZM329.132 238.136V246.424H330.826V238.136H329.132ZM331.876 239.102C331.708 239.704 331.372 240.572 331.092 241.118L332.128 241.51C332.422 241.006 332.772 240.25 333.122 239.536L331.876 239.102ZM327.55 247.81C327.676 248.58 327.732 249.574 327.732 250.176L329.384 249.98C329.384 249.392 329.272 248.412 329.118 247.656L327.55 247.81ZM330.364 247.866C330.644 248.608 330.924 249.588 331.008 250.19L332.702 249.798C332.59 249.196 332.268 248.258 331.96 247.544L330.364 247.866ZM333.136 247.782C333.738 248.566 334.466 249.644 334.76 250.316L336.454 249.728C336.104 249.028 335.32 248.006 334.704 247.264L333.136 247.782ZM325.086 247.278C324.764 248.16 324.19 249.098 323.602 249.616L325.212 250.316C325.856 249.658 326.43 248.636 326.738 247.684L325.086 247.278ZM343.734 243.134V244.268H350.454V243.134H343.734ZM343.426 248.916V250.092H350.594V248.916H343.426ZM345.582 237.114V239.032H346.758V237.114H345.582ZM347.36 237.114V239.032H348.536V237.114H347.36ZM345.568 245.682H348.564V246.466H345.568V245.682ZM344.224 244.702V247.446H349.978V244.702H344.224ZM345.246 240.964H348.886V241.594H345.246V240.964ZM345.246 239.34H348.886V239.97H345.246V239.34ZM344.028 238.29V242.658H350.174V238.29H344.028ZM344.714 247.754C345.022 248.258 345.274 248.958 345.358 249.406L346.562 248.944C346.464 248.482 346.184 247.824 345.848 247.348L344.714 247.754ZM348.116 247.32C347.976 247.81 347.696 248.524 347.458 249.014L348.508 249.336C348.774 248.902 349.138 248.272 349.502 247.642L348.116 247.32ZM339.31 244.996V246.102H342.376V244.996H339.31ZM339.31 246.732V247.866H342.376V246.732H339.31ZM338.512 243.26V250.274H339.912V244.38H342.292V243.26H338.512ZM341.424 243.26V248.832C341.424 248.958 341.382 249 341.256 249C341.144 249 340.808 249 340.486 248.986C340.654 249.336 340.822 249.882 340.864 250.26C341.536 250.26 342.012 250.246 342.376 250.022C342.754 249.812 342.838 249.462 342.838 248.86V243.26H341.424ZM338.47 237.548V242.07H339.674V238.738H341.634V242.07H342.894V237.548H338.47ZM337.658 241.552V243.75H338.862V242.686H342.488V243.75H343.748V241.552H337.658ZM340.15 239.312V241.93H341.06V240.25H342.474V239.312H340.15ZM345.848 238.766V242.14H346.758V238.766H345.848ZM347.36 238.766V242.14H348.27V238.766H347.36Z" fill="black"/>
<path d="M296.456 292H300.68C303.288 292 305.272 290.896 305.272 288.512C305.272 286.912 304.328 286.016 303.048 285.712V285.632C304.056 285.28 304.664 284.16 304.664 283.072C304.664 280.864 302.808 280.144 300.376 280.144H296.456V292ZM298.824 284.976V281.968H300.232C301.656 281.968 302.36 282.384 302.36 283.424C302.36 284.368 301.704 284.976 300.2 284.976H298.824ZM298.824 290.176V286.72H300.472C302.104 286.72 302.968 287.216 302.968 288.368C302.968 289.6 302.088 290.176 300.472 290.176H298.824ZM310.899 292.224C313.139 292.224 315.203 290.496 315.203 287.52C315.203 284.544 313.139 282.816 310.899 282.816C308.659 282.816 306.595 284.544 306.595 287.52C306.595 290.496 308.659 292.224 310.899 292.224ZM310.899 290.304C309.683 290.304 308.995 289.216 308.995 287.52C308.995 285.84 309.683 284.736 310.899 284.736C312.115 284.736 312.803 285.84 312.803 287.52C312.803 289.216 312.115 290.304 310.899 290.304ZM320.322 292.224C321.25 292.224 322.146 291.712 322.802 291.072H322.866L323.042 292H324.946V279.232H322.61V282.384L322.69 283.792C322.05 283.2 321.426 282.816 320.418 282.816C318.482 282.816 316.658 284.608 316.658 287.52C316.658 290.464 318.098 292.224 320.322 292.224ZM320.93 290.288C319.746 290.288 319.074 289.36 319.074 287.504C319.074 285.712 319.922 284.752 320.93 284.752C321.49 284.752 322.066 284.928 322.61 285.424V289.36C322.082 290.032 321.554 290.288 320.93 290.288ZM328.251 295.6C330.251 295.6 331.211 294.384 331.995 292.272L335.179 283.04H332.923L331.691 287.2C331.483 288.032 331.259 288.896 331.051 289.728H330.971C330.715 288.864 330.491 288 330.219 287.2L328.795 283.04H326.427L329.915 291.84L329.755 292.368C329.499 293.152 328.987 293.728 328.075 293.728C327.867 293.728 327.611 293.664 327.451 293.616L327.019 295.424C327.371 295.536 327.723 295.6 328.251 295.6Z" fill="black" fill-opacity="0.87"/>
<path d="M345.148 291H351.378V289.334H349.432V280.906H347.906C347.248 281.312 346.534 281.578 345.498 281.774V283.048H347.374V289.334H345.148V291ZM356.542 286.184C357.438 286.184 358.026 286.702 358.026 287.836C358.026 289.04 357.396 289.642 356.612 289.642C355.758 289.642 355.058 288.998 354.862 287.29C355.38 286.478 356.01 286.184 356.542 286.184ZM356.654 291.196C358.432 291.196 359.916 289.908 359.916 287.836C359.916 285.722 358.67 284.728 356.934 284.728C356.262 284.728 355.38 285.148 354.806 285.862C354.89 283.258 355.87 282.376 357.06 282.376C357.662 282.376 358.292 282.712 358.656 283.118L359.748 281.886C359.132 281.242 358.208 280.71 356.948 280.71C354.848 280.71 352.93 282.376 352.93 286.226C352.93 289.684 354.694 291.196 356.654 291.196ZM361.594 294.01H363.652V291.63L363.582 290.342C364.184 290.888 364.842 291.196 365.528 291.196C367.25 291.196 368.86 289.642 368.86 286.954C368.86 284.546 367.712 282.964 365.78 282.964C364.94 282.964 364.128 283.412 363.47 283.972H363.428L363.274 283.16H361.594V294.01ZM365.066 289.502C364.646 289.502 364.142 289.348 363.652 288.914V285.47C364.184 284.924 364.66 284.658 365.192 284.658C366.27 284.658 366.746 285.484 366.746 286.982C366.746 288.69 366.018 289.502 365.066 289.502ZM369.326 291H371.454L372.182 289.558C372.406 289.096 372.616 288.634 372.84 288.186H372.91C373.162 288.634 373.414 289.11 373.666 289.558L374.534 291H376.746L374.296 287.15L376.592 283.16H374.464L373.806 284.546C373.624 284.994 373.414 285.442 373.232 285.876H373.176C372.938 285.442 372.7 284.994 372.476 284.546L371.692 283.16H369.48L371.776 286.912L369.326 291Z" fill="black" fill-opacity="0.6"/>
<path d="M299.592 314.144V317.312C299.592 318.608 300.056 318.96 301.784 318.96C302.136 318.96 304.648 318.96 305.016 318.96C306.504 318.96 306.872 318.416 307.032 316.24C306.696 316.16 306.2 315.968 305.928 315.776C305.848 317.584 305.72 317.84 304.936 317.84C304.376 317.84 302.28 317.84 301.864 317.84C300.968 317.84 300.808 317.776 300.808 317.312V314.144H299.592ZM301.08 313.536C302.28 314.176 303.72 315.184 304.408 315.888L305.256 315.072C304.536 314.352 303.064 313.392 301.864 312.8L301.08 313.536ZM306.856 314.32C307.784 315.568 308.696 317.248 309.048 318.336L310.2 317.824C309.848 316.72 308.856 315.088 307.928 313.888L306.856 314.32ZM297.528 314.064C297.176 315.312 296.568 316.896 295.768 317.888L296.84 318.464C297.64 317.424 298.216 315.76 298.584 314.432L297.528 314.064ZM298.456 309.376H307.352V311.44H298.456V309.376ZM298.456 306.336H307.352V308.368H298.456V306.336ZM297.32 305.28V312.496H308.536V305.28H297.32ZM302.36 305.728V312.032H303.528V305.728H302.36ZM316.808 305.344V306.448H326.2V305.344H316.808ZM316.408 305.344V309.744C316.408 312.384 316.232 316.016 314.408 318.592C314.696 318.704 315.192 319.024 315.416 319.232C317.304 316.544 317.576 312.528 317.576 309.744V305.344H316.408ZM319.592 311.488H324.472V312.896H319.592V311.488ZM319.592 309.216H324.472V310.608H319.592V309.216ZM318.504 308.288V313.824H325.592V308.288H318.504ZM319.064 314.72C318.6 315.792 317.88 316.928 317.16 317.712C317.416 317.856 317.896 318.144 318.12 318.32C318.808 317.488 319.624 316.192 320.152 315.024L319.064 314.72ZM323.592 315.008C324.232 316.016 325 317.376 325.368 318.176L326.472 317.664C326.072 316.896 325.272 315.584 324.632 314.592L323.592 315.008ZM321.4 306.672C321.272 307.232 321.016 308.064 320.808 308.624L321.768 308.896C322.056 308.416 322.392 307.648 322.728 306.944L321.4 306.672ZM321.384 313.36V318.016C321.384 318.192 321.32 318.24 321.112 318.256C320.904 318.256 320.216 318.272 319.448 318.24C319.592 318.544 319.736 318.976 319.784 319.28C320.856 319.296 321.544 319.28 321.976 319.104C322.424 318.944 322.52 318.624 322.52 318.032V313.36H321.384ZM312.376 305.584C313.256 306.128 314.456 306.928 315.048 307.408L315.768 306.448C315.16 306 313.96 305.248 313.096 304.752L312.376 305.584ZM311.592 309.904C312.488 310.4 313.688 311.152 314.312 311.6L315.016 310.64C314.376 310.208 313.16 309.504 312.296 309.04L311.592 309.904ZM311.928 318.384L313 319.056C313.768 317.568 314.664 315.584 315.336 313.888L314.36 313.216C313.64 315.024 312.648 317.136 311.928 318.384ZM330.616 306.176H339.256V309.664H330.616V306.176ZM329.48 305.168V310.688H340.456V305.168H329.48ZM331.512 306.88C331.96 307.632 332.392 308.64 332.52 309.28L333.368 308.944C333.224 308.288 332.776 307.328 332.312 306.592L331.512 306.88ZM329.192 312V312.992H340.76V312H329.192ZM327.88 314.432V315.504H342.12V314.432H327.88ZM334.36 305.584V314.976H335.576V305.584H334.36ZM337.512 306.576C337.24 307.328 336.712 308.432 336.28 309.104L337.064 309.44C337.48 308.8 338.008 307.792 338.456 306.928L337.512 306.576ZM332.44 316.56C332.616 317.424 332.712 318.528 332.728 319.2L333.896 319.04C333.896 318.4 333.752 317.312 333.544 316.464L332.44 316.56ZM335.72 316.592C336.072 317.424 336.456 318.512 336.584 319.2L337.768 318.912C337.624 318.24 337.224 317.168 336.856 316.368L335.72 316.592ZM338.984 316.528C339.752 317.392 340.648 318.56 341.032 319.312L342.2 318.864C341.784 318.096 340.856 316.96 340.072 316.144L338.984 316.528ZM329.672 316.144C329.288 317.136 328.616 318.208 327.896 318.832L329 319.344C329.768 318.624 330.44 317.472 330.824 316.432L329.672 316.144ZM350.2 311.504V312.416H358.2V311.504H350.2ZM350.008 318.032V318.976H358.36V318.032H350.008ZM352.52 304.576V306.432H353.496V304.576H352.52ZM354.664 304.576V306.432H355.656V304.576H354.664ZM351.464 308.624H356.808V309.808H351.464V308.624ZM351.464 306.672H356.808V307.824H351.464V306.672ZM350.52 305.792V310.656H357.784V305.792H350.52ZM352.024 314.016H356.296V315.36H352.024V314.016ZM350.968 313.2V316.16H357.416V313.2H350.968ZM355.624 316.208C355.448 316.8 355.096 317.696 354.808 318.256L355.608 318.544C355.944 318.032 356.344 317.232 356.712 316.512L355.624 316.208ZM351.752 316.528C352.024 317.152 352.328 317.984 352.456 318.512L353.416 318.192C353.272 317.68 352.968 316.864 352.68 316.24L351.752 316.528ZM352.696 306.224V310.288H353.512V306.224H352.696ZM354.712 306.224V310.288H355.544V306.224H354.712ZM345.096 311.52V312.384H348.776V311.52H345.096ZM348.168 311.52V318.048C348.168 318.208 348.12 318.272 347.944 318.272C347.784 318.272 347.224 318.272 346.6 318.256C346.728 318.528 346.872 318.928 346.92 319.184C347.832 319.184 348.376 319.168 348.744 319.024C349.096 318.848 349.208 318.576 349.208 318.064V311.52H348.168ZM344.504 305.136V310H345.464V306.048H348.232V310H349.256V305.136H344.504ZM343.832 309.584V311.888H344.76V310.464H348.984V311.888H349.944V309.584H343.832ZM346.472 307.088V309.92H347.192V307.856H348.872V307.088H346.472ZM344.632 311.52V314.528C344.632 315.808 344.536 317.472 343.688 318.704C343.928 318.816 344.36 319.136 344.536 319.344C345.48 317.968 345.64 315.984 345.64 314.528V311.52H344.632ZM345.56 316.4L346.024 317.248C346.888 316.736 347.864 316.144 348.856 315.536L348.632 314.864C347.48 315.472 346.36 316.048 345.56 316.4ZM345.736 313.536C346.344 313.936 347.08 314.56 347.448 314.96L348.056 314.288C347.672 313.92 346.936 313.392 346.296 312.976L345.736 313.536Z" fill="black"/>
<path d="M299.992 360.224C302.712 360.224 304.328 358.576 304.328 356.64C304.328 354.944 303.384 354.016 301.96 353.424L300.408 352.784C299.4 352.384 298.552 352.064 298.552 351.216C298.552 350.448 299.208 349.984 300.248 349.984C301.224 349.984 302.008 350.336 302.776 350.96L303.96 349.472C303 348.496 301.624 347.952 300.248 347.952C297.864 347.952 296.152 349.44 296.152 351.376C296.152 353.088 297.368 354.064 298.552 354.544L300.136 355.216C301.192 355.664 301.912 355.952 301.912 356.832C301.912 357.648 301.272 358.176 300.04 358.176C299 358.176 297.864 357.664 297.032 356.88L295.672 358.512C296.824 359.616 298.392 360.224 299.992 360.224ZM306.248 360H308.6V353.84C309.208 353.168 309.8 352.848 310.296 352.848C311.16 352.848 311.56 353.312 311.56 354.72V360H313.912V353.84C314.552 353.168 315.112 352.848 315.624 352.848C316.488 352.848 316.872 353.312 316.872 354.72V360H319.224V354.416C319.224 352.176 318.36 350.832 316.456 350.832C315.288 350.832 314.424 351.536 313.592 352.384C313.176 351.392 312.424 350.832 311.128 350.832C309.976 350.832 309.144 351.472 308.392 352.24H308.344L308.152 351.056H306.248V360ZM323.862 360.224C324.886 360.224 325.782 359.728 326.566 359.056H326.63L326.806 360H328.726V354.784C328.726 352.176 327.558 350.832 325.286 350.832C323.862 350.832 322.598 351.36 321.542 352L322.39 353.568C323.206 353.072 324.022 352.72 324.854 352.72C325.958 352.72 326.326 353.376 326.374 354.256C322.774 354.656 321.222 355.664 321.222 357.568C321.222 359.104 322.262 360.224 323.862 360.224ZM324.63 358.384C323.942 358.384 323.462 358.08 323.462 357.392C323.462 356.576 324.182 355.984 326.374 355.712V357.52C325.798 358.08 325.302 358.384 324.63 358.384ZM333.331 360.224C333.891 360.224 334.259 360.128 334.531 360.032L334.243 358.288C334.083 358.32 334.019 358.32 333.939 358.32C333.715 358.32 333.475 358.144 333.475 357.584V347.248H331.123V357.488C331.123 359.152 331.683 360.224 333.331 360.224ZM338.378 360.224C338.938 360.224 339.306 360.128 339.578 360.032L339.29 358.288C339.13 358.32 339.066 358.32 338.986 358.32C338.762 358.32 338.522 358.144 338.522 357.584V347.248H336.17V357.488C336.17 359.152 336.73 360.224 338.378 360.224Z" fill="black" fill-opacity="0.87"/>
<path d="M349.134 359H355.378V357.334H353.432V348.906H351.906C351.234 349.312 350.534 349.578 349.484 349.788V351.062H351.374V357.334H349.134V359ZM357.392 359H363.636V357.334H361.69V348.906H360.164C359.492 349.312 358.792 349.578 357.742 349.788V351.062H359.632V357.334H357.392V359ZM365.622 362.01H367.68V359.63L367.61 358.356C368.198 358.902 368.87 359.196 369.542 359.196C371.264 359.196 372.874 357.656 372.874 354.968C372.874 352.546 371.726 350.978 369.794 350.978C368.954 350.978 368.142 351.412 367.498 351.986H367.456L367.288 351.174H365.622V362.01ZM369.094 357.502C368.674 357.502 368.17 357.362 367.68 356.928V353.47C368.212 352.924 368.688 352.658 369.206 352.658C370.298 352.658 370.76 353.484 370.76 354.996C370.76 356.69 370.032 357.502 369.094 357.502ZM373.284 359H375.426L376.14 357.558C376.364 357.096 376.574 356.634 376.798 356.2H376.868C377.134 356.634 377.386 357.11 377.638 357.558L378.506 359H380.718L378.254 355.15L380.55 351.174H378.422L377.778 352.546C377.582 353.008 377.386 353.442 377.204 353.89H377.134C376.896 353.442 376.658 353.008 376.448 352.546L375.65 351.174H373.452L375.748 354.926L373.284 359Z" fill="black" fill-opacity="0.6"/>
<path d="M298.157 377.349V379.527C298.157 380.418 298.476 380.66 299.664 380.66C299.906 380.66 301.633 380.66 301.886 380.66C302.909 380.66 303.162 380.286 303.272 378.79C303.041 378.735 302.7 378.603 302.513 378.471C302.458 379.714 302.37 379.89 301.831 379.89C301.446 379.89 300.005 379.89 299.719 379.89C299.103 379.89 298.993 379.846 298.993 379.527V377.349H298.157ZM299.18 376.931C300.005 377.371 300.995 378.064 301.468 378.548L302.051 377.987C301.556 377.492 300.544 376.832 299.719 376.425L299.18 376.931ZM303.151 377.47C303.789 378.328 304.416 379.483 304.658 380.231L305.45 379.879C305.208 379.12 304.526 377.998 303.888 377.173L303.151 377.47ZM296.738 377.294C296.496 378.152 296.078 379.241 295.528 379.923L296.265 380.319C296.815 379.604 297.211 378.46 297.464 377.547L296.738 377.294ZM297.376 374.071H303.492V375.49H297.376V374.071ZM297.376 371.981H303.492V373.378H297.376V371.981ZM296.595 371.255V376.216H304.306V371.255H296.595ZM300.06 371.563V375.897H300.863V371.563H300.06ZM309.993 371.299V372.058H316.45V371.299H309.993ZM309.718 371.299V374.324C309.718 376.139 309.597 378.636 308.343 380.407C308.541 380.484 308.882 380.704 309.036 380.847C310.334 378.999 310.521 376.238 310.521 374.324V371.299H309.718ZM311.907 375.523H315.262V376.491H311.907V375.523ZM311.907 373.961H315.262V374.918H311.907V373.961ZM311.159 373.323V377.129H316.032V373.323H311.159ZM311.544 377.745C311.225 378.482 310.73 379.263 310.235 379.802C310.411 379.901 310.741 380.099 310.895 380.22C311.368 379.648 311.929 378.757 312.292 377.954L311.544 377.745ZM314.657 377.943C315.097 378.636 315.625 379.571 315.878 380.121L316.637 379.769C316.362 379.241 315.812 378.339 315.372 377.657L314.657 377.943ZM313.15 372.212C313.062 372.597 312.886 373.169 312.743 373.554L313.403 373.741C313.601 373.411 313.832 372.883 314.063 372.399L313.15 372.212ZM313.139 376.81V380.011C313.139 380.132 313.095 380.165 312.952 380.176C312.809 380.176 312.336 380.187 311.808 380.165C311.907 380.374 312.006 380.671 312.039 380.88C312.776 380.891 313.249 380.88 313.546 380.759C313.854 380.649 313.92 380.429 313.92 380.022V376.81H313.139ZM306.946 371.464C307.551 371.838 308.376 372.388 308.783 372.718L309.278 372.058C308.86 371.75 308.035 371.233 307.441 370.892L306.946 371.464ZM306.407 374.434C307.023 374.775 307.848 375.292 308.277 375.6L308.761 374.94C308.321 374.643 307.485 374.159 306.891 373.84L306.407 374.434ZM306.638 380.264L307.375 380.726C307.903 379.703 308.519 378.339 308.981 377.173L308.31 376.711C307.815 377.954 307.133 379.406 306.638 380.264ZM319.486 371.871H325.426V374.269H319.486V371.871ZM318.705 371.178V374.973H326.251V371.178H318.705ZM320.102 372.355C320.41 372.872 320.707 373.565 320.795 374.005L321.378 373.774C321.279 373.323 320.971 372.663 320.652 372.157L320.102 372.355ZM318.507 375.875V376.557H326.46V375.875H318.507ZM317.605 377.547V378.284H327.395V377.547H317.605ZM322.06 371.464V377.921H322.896V371.464H322.06ZM324.227 372.146C324.04 372.663 323.677 373.422 323.38 373.884L323.919 374.115C324.205 373.675 324.568 372.982 324.876 372.388L324.227 372.146ZM320.74 379.01C320.861 379.604 320.927 380.363 320.938 380.825L321.741 380.715C321.741 380.275 321.642 379.527 321.499 378.944L320.74 379.01ZM322.995 379.032C323.237 379.604 323.501 380.352 323.589 380.825L324.403 380.627C324.304 380.165 324.029 379.428 323.776 378.878L322.995 379.032ZM325.239 378.988C325.767 379.582 326.383 380.385 326.647 380.902L327.45 380.594C327.164 380.066 326.526 379.285 325.987 378.724L325.239 378.988ZM318.837 378.724C318.573 379.406 318.111 380.143 317.616 380.572L318.375 380.924C318.903 380.429 319.365 379.637 319.629 378.922L318.837 378.724ZM332.95 375.534V376.161H338.45V375.534H332.95ZM332.818 380.022V380.671H338.56V380.022H332.818ZM334.545 370.771V372.047H335.216V370.771H334.545ZM336.019 370.771V372.047H336.701V370.771H336.019ZM333.819 373.554H337.493V374.368H333.819V373.554ZM333.819 372.212H337.493V373.004H333.819V372.212ZM333.17 371.607V374.951H338.164V371.607H333.17ZM334.204 377.261H337.141V378.185H334.204V377.261ZM333.478 376.7V378.735H337.911V376.7H333.478ZM336.679 378.768C336.558 379.175 336.316 379.791 336.118 380.176L336.668 380.374C336.899 380.022 337.174 379.472 337.427 378.977L336.679 378.768ZM334.017 378.988C334.204 379.417 334.413 379.989 334.501 380.352L335.161 380.132C335.062 379.78 334.853 379.219 334.655 378.79L334.017 378.988ZM334.666 371.904V374.698H335.227V371.904H334.666ZM336.052 371.904V374.698H336.624V371.904H336.052ZM329.441 375.545V376.139H331.971V375.545H329.441ZM331.553 375.545V380.033C331.553 380.143 331.52 380.187 331.399 380.187C331.289 380.187 330.904 380.187 330.475 380.176C330.563 380.363 330.662 380.638 330.695 380.814C331.322 380.814 331.696 380.803 331.949 380.704C332.191 380.583 332.268 380.396 332.268 380.044V375.545H331.553ZM329.034 371.156V374.5H329.694V371.783H331.597V374.5H332.301V371.156H329.034ZM328.572 374.214V375.798H329.21V374.819H332.114V375.798H332.774V374.214H328.572ZM330.387 372.498V374.445H330.882V373.026H332.037V372.498H330.387ZM329.122 375.545V377.613C329.122 378.493 329.056 379.637 328.473 380.484C328.638 380.561 328.935 380.781 329.056 380.924C329.705 379.978 329.815 378.614 329.815 377.613V375.545H329.122ZM329.76 378.9L330.079 379.483C330.673 379.131 331.344 378.724 332.026 378.306L331.872 377.844C331.08 378.262 330.31 378.658 329.76 378.9ZM329.881 376.931C330.299 377.206 330.805 377.635 331.058 377.91L331.476 377.448C331.212 377.195 330.706 376.832 330.266 376.546L329.881 376.931Z" fill="black"/>
</svg>
